SplineFontDB: 3.0
FontName: KleiBldIta
FullName: Klei Bold Italic
FamilyName: Klei
Weight: Bold
Copyright: Copyright (c) 2015, Joseph Steck, Rocketroom, LLC. All rights reserved.
UComments: "For my beloved Alisa +ACIA-Clay+ACIA Steck+AAoA-2015-2-14: Created with FontForge (http://fontforge.org)"
Version: 001.000
ItalicAngle: 0
UnderlinePosition: -100
UnderlineWidth: 50
Ascent: 768
Descent: 232
InvalidEm: 0
LayerCount: 2
Layer: 0 0 "Back" 1
Layer: 1 0 "Fore" 0
PreferredKerning: 4
XUID: [1021 610 -1734517455 9502657]
FSType: 0
OS2Version: 3
OS2_WeightWidthSlopeOnly: 0
OS2_UseTypoMetrics: 1
CreationTime: 1424325067
ModificationTime: 1449371700
PfmFamily: 17
TTFWeight: 400
TTFWidth: 5
LineGap: 90
VLineGap: 0
Panose: 2 0 5 3 0 0 0 0 0 0
OS2TypoAscent: 0
OS2TypoAOffset: 1
OS2TypoDescent: 0
OS2TypoDOffset: 1
OS2TypoLinegap: 90
OS2WinAscent: 0
OS2WinAOffset: 1
OS2WinDescent: 0
OS2WinDOffset: 1
HheadAscent: 0
HheadAOffset: 1
HheadDescent: 0
HheadDOffset: 1
OS2Vendor: 'PfEd'
OS2CodePages: 20000001.00000000
OS2UnicodeRanges: 00000005.00000000.00000000.00000000
Lookup: 4 0 1 "'liga' Standard Ligatures in Latin lookup 0" { "'liga' ffl"  "'liga' ffi"  "'liga' fi"  "'liga' ff"  "'liga' fl"  } ['liga' ('DFLT' <'dflt' > 'latn' <'dflt' > ) ]

StartChar: s
Encoding: 115 115 0
GlifName: s
Width: 493
VWidth: 0
Flags: W
HStem: -11.2754 40.3506<139.045 249.451> 475.125 36.875<273.88 351.829>
VStem: 19.1152 105.741<43.8897 120.369> 97.6855 147.573<350.694 435.406> 282.292 148.195<71.6388 176.529>
LayerCount: 2
Fore
SplineSet
124.856445312 78 m 0xe8
 124.856445312 45.513671875 168.857421875 29.0751953125 193.836914062 29.0751953125 c 0
 236.237304688 29.0751953125 282.291992188 59.3037109375 282.291992188 117.981445312 c 0
 282.291992188 159.352539062 239.114257812 208.862304688 204.416992188 237.578125 c 0
 174.16015625 262.506835938 97.685546875 315.3203125 97.685546875 374.374023438 c 0
 97.685546875 459.349609375 204.455078125 512 317.71484375 512 c 0
 392.534179688 512 455 476.629882812 455 455 c 0
 455 430.409179688 430.553710938 388.974609375 409.71484375 388.974609375 c 0
 358.556640625 388.974609375 368.926757812 475.125 322.615234375 475.125 c 0
 273.180664062 475.125 245.258789062 433.341796875 245.258789062 402.158203125 c 0xd8
 245.258789062 360.53125 293.481445312 320.8515625 322.448242188 296.221679688 c 1
 358.306640625 263.22265625 430.487304688 215.916992188 430.487304688 149.68359375 c 0
 430.487304688 15.3046875 285.241210938 -11.275390625 181.2265625 -11.275390625 c 0
 74.0244140625 -11.275390625 19.115234375 45.5205078125 19.115234375 87.8251953125 c 0
 19.115234375 118.083984375 50.2958984375 149.974609375 90.615234375 149.974609375 c 0
 115.879882812 149.974609375 135.4296875 127.028320312 135.4296875 110 c 0
 135.4296875 97.2109375 124.856445312 84.95703125 124.856445312 78 c 0xe8
EndSplineSet
Validated: 1
EndChar

StartChar: W
Encoding: 87 87 1
GlifName: W_
Width: 1050
VWidth: 0
Flags: W
HStem: -9 21G<288.847 298.188> 700 30<97.7069 121.92 290.817 337.9 412.866 434.76 565.414 613.9 677.866 702.678 821.057 846.9 936.866 964.776 1077.07 1106.9>
LayerCount: 2
Fore
SplineSet
1120 730 m 1
 1120 730 1122.23925781 726.947265625 1122.23925781 724.005859375 c 0
 1122.23925781 720.961914062 1121.85546875 717.963867188 1120.29199219 714.3046875 c 0
 1116.93554688 706.447265625 1106.90039062 700 1106.90039062 700 c 1
 1100.96582031 700 l 0
 1093.58203125 700 1084.16796875 698.500976562 1076.71582031 696.27734375 c 0
 1061.71972656 691.803710938 1053.21679688 671.92578125 1042.98730469 655.130859375 c 0
 907.7265625 433.046875 753.58984375 234.6328125 615.057617188 10.4306640625 c 0
 610.04296875 2.314453125 599.81640625 -10 586.63671875 -10 c 0
 577.17578125 -10 567.571289062 -0.28125 566.379882812 9.0712890625 c 1
 565.587890625 14.5009765625 541.135742188 120.450195312 515 284 c 1
 329.38671875 24.3037109375 l 1
 322.219726562 13.2607421875 318.295898438 6.515625 318.295898438 6.515625 c 0
 318.176757812 6.3125 l 1
 318.043945312 6.1171875 l 0
 312.25 -2.404296875 302.53125 -9 293.84375 -9 c 0
 283.850585938 -9 271.869140625 1.6318359375 270.389648438 12.798828125 c 0
 258.376953125 103.474609375 146.243164062 601.651367188 134.1015625 661.193359375 c 0
 130.012695312 681.243164062 128.375976562 692.376953125 122.083007812 696.291015625 c 0
 118.633789062 698.436523438 114.037109375 700 105.965820312 700 c 0
 96.900390625 700 l 1
 96.900390625 700 96.1005859375 702.6875 96.1005859375 706.434570312 c 0
 96.1005859375 709.340820312 96.58203125 712.884765625 98.2919921875 716.3046875 c 0
 102.291992188 724.3046875 108.866210938 730 108.5 730 c 1
 179.348632812 730 280.197265625 730 351.045898438 730 c 1
 351 730 353.239257812 726.947265625 353.239257812 724.005859375 c 0
 353.239257812 720.961914062 352.85546875 717.963867188 351.291992188 714.3046875 c 0
 347.935546875 706.447265625 337.900390625 700 337.900390625 700 c 1
 333.3828125 700 l 0
 302.720703125 700 282.942382812 689.311523438 282.942382812 659.772460938 c 0
 282.942382812 659.146484375 284.013671875 648.336914062 284.317382812 645.958007812 c 1
 366.001953125 251.841796875 l 1
 490.7109375 413.478515625 l 1
 471.154296875 534.602539062 450.09765625 609.438476562 441 663 c 1
 436 687 431.158203125 700 413.540039062 700 c 0
 401.395507812 700 l 1
 400.900390625 700 400.100585938 702.6875 400.100585938 706.434570312 c 0
 400.100585938 709.340820312 400.58203125 712.884765625 402.291992188 716.3046875 c 0
 406.291992188 724.3046875 412.866210938 730 412.866210938 730 c 1
 626.338867188 730 l 1
 627 730 629.239257812 726.947265625 629.239257812 724.005859375 c 0
 629.239257812 720.961914062 628.85546875 717.963867188 627.291992188 714.3046875 c 0
 623.935546875 706.447265625 613.900390625 700 613.900390625 700 c 1
 608.67578125 700 l 2
 576 700 556.004882812 684.303710938 556.004882812 661.64453125 c 0
 556.004882812 661.546875 556.439453125 657.250976562 556.625976562 656.116210938 c 0
 586.21484375 519.51171875 l 1
 690.39453125 644.796875 l 1
 699.995117188 658.915039062 704.515625 666.959960938 704.515625 678.104492188 c 0
 704.515625 687.26953125 694.62109375 700 675.934570312 700 c 0
 665.900390625 700 l 1
 665.900390625 700 665.100585938 702.6875 665.100585938 706.434570312 c 0
 665.100585938 709.340820312 665.58203125 712.884765625 667.291992188 716.3046875 c 0
 671.291992188 724.3046875 677.866210938 730 677.866210938 730 c 1
 859.834960938 730 l 1
 860 730 862.239257812 726.947265625 862.239257812 724.005859375 c 0
 862.239257812 720.961914062 861.85546875 717.963867188 860.291992188 714.3046875 c 0
 856.935546875 706.447265625 846.900390625 700 846.900390625 700 c 1
 841.611328125 700 l 0
 833.984375 700 826.97265625 699.091796875 820.765625 696.180664062 c 0
 803.594726562 688.127929688 797.104492188 675.76171875 785.465820312 657.162109375 c 1
 609 411 l 1
 647.530273438 206.038085938 l 1
 950.747070312 642.606445312 l 0
 960.831054688 659.052734375 966.801757812 666.471679688 966.801757812 677.83984375 c 0
 966.801757812 686.794921875 956.004882812 700 934.34765625 700 c 0
 924.900390625 700 l 1
 924.900390625 700 924.100585938 702.6875 924.100585938 706.434570312 c 0
 924.100585938 709.340820312 924.58203125 712.884765625 926.291992188 716.3046875 c 0
 930.291992188 724.3046875 936.866210938 730 936.866210938 730 c 1
 1120 730 l 1
EndSplineSet
Validated: 1
EndChar

StartChar: A
Encoding: 65 65 2
GlifName: A_
Width: 725
VWidth: 0
Flags: W
HStem: 0 30<9.90039 37.7693 174.997 185.9 442.9 470.929 651.995 666.9> 295 63<347.787 450.17> 715.977 20G<526.109 538.749>
LayerCount: 2
Fore
SplineSet
681.880859375 30 m 1
 681.880859375 30 682.239257812 27.947265625 682.239257812 25.005859375 c 0
 682.239257812 21.9619140625 681.85546875 17.9638671875 680.291992188 14.3046875 c 0
 676.935546875 6.447265625 666.900390625 0 666.900390625 0 c 1
 429.900390625 0 l 1
 429.900390625 0 429.100585938 2.6875 429.100585938 6.4345703125 c 0
 429.100585938 9.3408203125 429.58203125 12.884765625 431.291992188 16.3046875 c 0
 435.291992188 24.3046875 442.900390625 30 442.900390625 30 c 1
 448.434570312 30 l 0
 455.663085938 30 463.946289062 30.970703125 471.2734375 31.8623046875 c 0
 484.890625 34.8349609375 491.201171875 43.1748046875 495.567382812 58.74609375 c 1
 496.487304688 64.162109375 496.848632812 72.2099609375 496.848632812 76.505859375 c 0
 496.848632812 78.1943359375 496.733398438 80.150390625 496.498046875 81.9833984375 c 2
 460.559570312 291.723632812 l 1
 459.979492188 294.012695312 459.782226562 294.598632812 459.651367188 295 c 1
 320.282226562 295 l 0
 318.385742188 295 318.37109375 294.721679688 314.81640625 290.15625 c 1
 176.36328125 86.1044921875 l 1
 165.751953125 70.0078125 160.59765625 63.2099609375 160.59765625 51.8046875 c 0
 160.59765625 45.11328125 165.046875 38.087890625 174.786132812 32.85546875 c 0
 179.258789062 30.453125 185.413085938 30 192.434570312 30 c 0
 200.880859375 30 l 1
 200.880859375 30 201.239257812 27.947265625 201.239257812 25.005859375 c 0
 201.239257812 21.9619140625 200.85546875 17.9638671875 199.291992188 14.3046875 c 0
 195.935546875 6.447265625 185.900390625 0 185.900390625 0 c 1
 -3.099609375 0 l 1
 -3.099609375 0 -3.8994140625 2.6875 -3.8994140625 6.4345703125 c 0
 -3.8994140625 9.3408203125 -3.41796875 12.884765625 -1.7080078125 16.3046875 c 0
 2.2919921875 24.3046875 9.900390625 30 9.900390625 30 c 1
 16.4345703125 30 l 0
 22.458984375 30 31.8369140625 30.376953125 38.0634765625 32.845703125 c 0
 53.4765625 38.95703125 64.486328125 58.3251953125 75.5087890625 75.025390625 c 1
 482.138671875 709.145507812 l 1
 483.166992188 709.920898438 l 0
 497.959960938 721.076171875 513.70703125 718.951171875 526.109375 728.50390625 c 0
 535.620117188 735.9765625 l 1
 642.334960938 53.9150390625 l 2
 644.260742188 44.470703125 646.198242188 37.9775390625 651.798828125 33.83984375 c 0
 655.876953125 30.826171875 667.006835938 30 673.434570312 30 c 0
 681.880859375 30 l 1
427.766601562 485.947265625 m 1
 347.787109375 358 l 1
 449.434570312 358 l 0
 449.731445312 358 450 358.032226562 450.178710938 358.048828125 c 1
 449.8828125 360.365234375 449.5078125 362.98828125 449.5078125 362.98828125 c 1
 427.766601562 485.947265625 l 1
EndSplineSet
Validated: 1
EndChar

StartChar: O
Encoding: 79 79 3
GlifName: O_
Width: 805
VWidth: 0
Flags: W
HStem: -11 52<266.596 407.951> 685 49<395.445 563.177>
VStem: 38.1074 161.946<129.903 395.436> 628.391 152.783<340.281 588.912>
LayerCount: 2
Fore
SplineSet
38.107421875 241.868164062 m 0
 38.107421875 544.681640625 215.052734375 734 501.8984375 734 c 0
 672.143554688 734 781.173828125 643.686523438 781.173828125 473.903320312 c 0
 781.173828125 180.783203125 552.1875 -11 322.473632812 -11 c 0
 207.598632812 -11 38.107421875 37.09375 38.107421875 241.868164062 c 0
481.275390625 685 m 0
 266.873046875 685 200.053710938 373.399414062 200.053710938 234.334960938 c 0
 200.053710938 72.1669921875 283.831054688 41 337.94140625 41 c 0
 438.057617188 41 628.390625 210.41796875 628.390625 494.999023438 c 0
 628.390625 604.614257812 590.006835938 685 481.275390625 685 c 0
EndSplineSet
Validated: 1
EndChar

StartChar: V
Encoding: 86 86 4
GlifName: V_
Width: 671
VWidth: 0
Flags: W
HStem: 700 30<104.866 122.29 283.826 333.9 605.5 633.246 731.915 772.9>
LayerCount: 2
Fore
SplineSet
786.930664062 730 m 1
 786.930664062 730 788.239257812 726.947265625 788.239257812 724.005859375 c 0
 788.239257812 720.961914062 787.85546875 717.963867188 786.291992188 714.3046875 c 0
 782.935546875 706.447265625 772.900390625 700 772.900390625 700 c 1
 767.965820312 700 l 0
 733.727539062 700 729.828125 681.766601562 712.861328125 656.927734375 c 1
 572.375976562 436.3828125 437.959960938 220.885742188 298.827148438 5.345703125 c 0
 295.751953125 0.486328125 285.290039062 -10 274.25 -10 c 0
 262.989257812 -10 253.793945312 0.23046875 252.811523438 7.6865234375 c 1
 250.780273438 20.2099609375 160.0234375 474.333984375 135.047851562 644.813476562 c 1
 134.067382812 650.583007812 133.041992188 659.588867188 132.043945312 664.478515625 c 0
 128.940429688 679.685546875 128.592773438 689.348632812 122.528320312 694.184570312 c 0
 117.479492188 698.2109375 109.623046875 700 102.965820312 700 c 0
 92.900390625 700 l 1
 92.900390625 700 92.1005859375 702.6875 92.1005859375 706.434570312 c 0
 92.1005859375 709.340820312 92.58203125 712.884765625 94.2919921875 716.3046875 c 0
 98.2919921875 724.3046875 104.866210938 730 104.866210938 730 c 1
 347 730 l 1
 347 730 349.239257812 726.947265625 349.239257812 724.005859375 c 0
 349.239257812 720.961914062 348.85546875 717.963867188 347.291992188 714.3046875 c 0
 343.935546875 706.447265625 333.900390625 700 333.900390625 700 c 1
 330.23046875 700 l 0
 323.124023438 700 310.9921875 698.498046875 304.01171875 696.1796875 c 0
 287.702148438 690.762695312 276.754882812 683.48828125 276.754882812 665.13671875 c 0
 276.754882812 662.383789062 277.986328125 651.352539062 278.495117188 648.024414062 c 0
 350.217773438 249.077148438 l 1
 619.634765625 645.723632812 l 1
 630.754882812 662.455078125 633.801757812 669.115234375 633.801757812 680.947265625 c 0
 633.801757812 691.555664062 624.587890625 700 602.918945312 700 c 0
 592.900390625 700 l 1
 592.900390625 700 592.100585938 702.6875 592.100585938 706.434570312 c 0
 592.100585938 709.340820312 592.58203125 712.884765625 594.291992188 716.3046875 c 0
 598.291992188 724.3046875 605.5 730 605.5 730 c 1
 786.930664062 730 l 1
EndSplineSet
Validated: 1
EndChar

StartChar: H
Encoding: 72 72 5
GlifName: H_
Width: 858
VWidth: 0
Flags: W
HStem: 0 30<22.9004 49.0515 239.06 254.431 471.9 500.058 688.138 703.9> 368 61<312.919 597.987> 700 30<187.9 218.715 394.966 424.9 640.9 659.115 846.914 874.9>
LayerCount: 2
Fore
SplineSet
459 0 m 1
 458.900390625 0 458.100585938 2.6875 458.100585938 6.4345703125 c 0
 458.100585938 9.3408203125 458.58203125 12.884765625 460.291992188 16.3046875 c 0
 464.291992188 24.3046875 471.900390625 30 471.900390625 30 c 1
 476.965820312 30 l 0
 485.0625 30 494 31 500.357421875 32.77734375 c 0
 517.555664062 37.5859375 526.80859375 56.1201171875 529.143554688 66.03515625 c 0
 598 365 l 1
 597.737304688 365.359375 596.669921875 366 595.881835938 366 c 1
 543.236328125 366.000976562 516.372070312 368 454.254882812 368 c 3
 393.084960938 368 350.119140625 366.041992188 301.904296875 366.020507812 c 1
 300.721679688 365.491210938 299.075195312 363.076171875 298.6796875 362.095703125 c 1
 290.918945312 325.678710938 282.958007812 298.200195312 274.485351562 262.6875 c 1
 256.805664062 192.198242188 246.7265625 144.318359375 229.827148438 74.146484375 c 1
 228.55859375 68.884765625 226.594726562 57.107421875 226.594726562 55.8720703125 c 0
 226.594726562 45.974609375 228.205078125 37.439453125 238.776367188 32.7275390625 c 0
 244.8125 30.037109375 251.8515625 30 259.965820312 30 c 0
 268.880859375 30 l 1
 268.880859375 30 269.239257812 27.947265625 269.239257812 25.005859375 c 0
 269.239257812 21.9619140625 268.85546875 17.9638671875 267.291992188 14.3046875 c 0
 263.935546875 6.447265625 254.430664062 0 254.430664062 0 c 1
 10 0 l 1
 10 0 9.1005859375 2.6875 9.1005859375 6.4345703125 c 0
 9.1005859375 9.3408203125 9.58203125 12.884765625 11.2919921875 16.3046875 c 0
 15.2919921875 24.3046875 22.900390625 30 22.900390625 30 c 1
 26.9658203125 30 l 0
 35.0859375 30 42.072265625 30.9921875 49.39453125 32.78515625 c 1
 65.7919921875 36.1669921875 76.697265625 56.6220703125 79.154296875 67.05078125 c 1
 108.181640625 183.724609375 133.1484375 289.174804688 160.140625 405.70703125 c 0
 181.150390625 495.865234375 198.10546875 573.76171875 217.126953125 663.9765625 c 1
 217.594726562 665.961914062 219.784179688 676.602539062 219.784179688 678.31640625 c 0
 219.784179688 685.697265625 217.201171875 690.779296875 208.245117188 695.250976562 c 0
 202.73046875 698.004882812 194.850585938 700 185.965820312 700 c 0
 174.900390625 700 l 1
 174.900390625 700 174.100585938 702.6875 174.100585938 706.434570312 c 0
 174.100585938 709.340820312 174.58203125 712.884765625 176.291992188 716.3046875 c 0
 180.291992188 724.3046875 187.900390625 730 187.900390625 730 c 1
 439.077148438 730 l 1
 439.077148438 730 440.239257812 727.947265625 440.239257812 725.005859375 c 0
 440.239257812 721.961914062 439.85546875 718.963867188 438.291992188 715.3046875 c 0
 434.935546875 707.447265625 424.900390625 701 424.900390625 701 c 1
 418.965820312 701 l 0
 411.471679688 701 403.733398438 700.301757812 394.536132812 698.247070312 c 0
 380 695 370.28515625 678.4765625 366.797851562 664.15625 c 1
 353.755859375 609.3671875 343.809570312 561.075195312 330.770507812 506.297851562 c 1
 323.870117188 479.375976562 318.625976562 455.116210938 312.918945312 430.950195312 c 1
 362.642578125 430.905273438 403.396484375 429 464.724609375 429 c 0
 527.819335938 429 553.6796875 429.998046875 606.403320312 431 c 1
 612.083007812 431 612.583007812 432.756835938 613.069335938 433.876953125 c 1
 667.130859375 667.099609375 l 1
 667.556640625 669.040039062 668.784179688 676.029296875 668.784179688 677.750976562 c 3
 668.784179688 685.1953125 666.828125 689.579101562 659.362304688 695.231445312 c 0
 654.13671875 699.1875 646 700 636.965820312 700 c 2
 627.900390625 700 l 1
 627.900390625 700 627.100585938 702.6875 627.100585938 706.434570312 c 0
 627.100585938 709.340820312 627.58203125 712.884765625 629.291992188 716.3046875 c 0
 633.291992188 724.3046875 640.900390625 730 640.900390625 730 c 1
 888.930664062 730 l 1
 888.930664062 730 890.239257812 727.947265625 890.239257812 725.005859375 c 0
 890.239257812 721.961914062 889.85546875 717.963867188 888.291992188 714.3046875 c 0
 884.935546875 706.447265625 874.900390625 700 874.900390625 700 c 1
 869.965820312 700 l 0
 861.868164062 700 853.810546875 699.99609375 846.57421875 698.223632812 c 1
 830.610351562 694.749023438 819.95703125 675.787109375 816.723632812 664.701171875 c 1
 792.818359375 572.98828125 775.771484375 490.736328125 753.78515625 398.716796875 c 1
 726.7890625 283.149414062 704.80078125 182.615234375 678.793945312 67 c 1
 678.4375 65.4873046875 677.287109375 59.154296875 677.287109375 57.8251953125 c 0
 677.287109375 50.8662109375 679.552734375 37.0458984375 687.776367188 33.7265625 c 0
 695.510742188 30.6044921875 701.8515625 30 709.965820312 30 c 0
 718.880859375 30 l 1
 718.880859375 30 719.239257812 27.947265625 719.239257812 25.005859375 c 0
 719.239257812 21.9619140625 718.85546875 17.9638671875 717.291992188 14.3046875 c 0
 713.935546875 6.447265625 703.900390625 0 703.900390625 0 c 1
 459 0 l 1
EndSplineSet
Validated: 1
EndChar

StartChar: m
Encoding: 109 109 6
GlifName: m
Width: 965
VWidth: 0
Flags: W
HStem: -10.4502 52.3506<754.394 870.364> 0 21G<13.8799 161.718 353.512 493.238> 457.941 54.5781<91.1178 178.504> 465.7 46.75<318.985 418.798 639.405 744.986>
VStem: 692.557 139.382<42.1785 162.195> 760.255 135.643<265.038 431.098>
LayerCount: 2
Fore
SplineSet
692.556640625 50.7080078125 m 0x98
 692.556640625 69.943359375 700.868164062 107.87109375 711.196289062 148.327148438 c 2
 754 331 l 1
 758.206054688 348.541992188 760.254882812 364.53125 760.254882812 378.548828125 c 0
 760.254882812 426.834960938 752.013671875 465.700195312 695.825195312 465.700195312 c 3
 669.998046875 465.700195312 627.670898438 444.16796875 583.229492188 397.08203125 c 1
 582.409179688 392.553710938 580.998046875 387.71875 579.368164062 380.830078125 c 0
 488.463867188 0 l 1
 353.51171875 0 l 1
 435 351 l 1
 437.686523438 362.3046875 438.978515625 373.2421875 438.978515625 383.282226562 c 0
 438.978515625 435.387695312 409.228515625 465.700195312 376.142578125 465.700195312 c 0x54
 325.837890625 465.700195312 291.013671875 431.275390625 249 390 c 1
 157 0 l 1
 13.8798828125 0 l 1
 102.083984375 376.403320312 l 0
 108.298828125 401.606445312 117.590820312 441.322265625 117.590820312 446.50390625 c 0
 117.590820312 454.768554688 110.516601562 457.94140625 99.791015625 457.94140625 c 0
 85.017578125 457.94140625 67.8271484375 442.96484375 52.75 426.224609375 c 1
 41.2890625 446.997070312 l 1
 58.7333984375 479.260742188 114.489257812 512.51953125 185.466796875 512.51953125 c 0x64
 239.422851562 512.51953125 266.41796875 489.666015625 266.41796875 473.075195312 c 0
 266.41796875 465.346679688 265 458.678710938 264 449 c 1
 310.110351562 495.5 356.896484375 512.450195312 414.19140625 512.450195312 c 0
 487.770507812 512.450195312 543.600585938 494.07421875 562.099609375 439.70703125 c 1
 614.212890625 497.655273438 658.930664062 506.522460938 717.0859375 506.522460938 c 0
 812.758789062 506.522460938 895.897460938 449.623046875 895.897460938 357.8125 c 0x14
 895.897460938 344.931640625 894.200195312 331.108398438 890.557617188 316.189453125 c 1
 846.504882812 133.19921875 l 1
 841.275390625 110.8671875 831.938476562 69.92578125 831.938476562 59.572265625 c 0
 831.938476562 50.0869140625 840.422851562 41.900390625 849.786132812 41.900390625 c 0
 861.952148438 41.900390625 880.5546875 46.0390625 902.235351562 62.5498046875 c 1
 914.810546875 51.802734375 l 17
 893.29296875 16.552734375 843.709960938 -10.4501953125 783.94140625 -10.4501953125 c 0
 724.846679688 -10.4501953125 692.556640625 14.5810546875 692.556640625 50.7080078125 c 0x98
EndSplineSet
Validated: 1
EndChar

StartChar: w
Encoding: 119 119 7
GlifName: w
Width: 775
VWidth: 0
Flags: W
HStem: 429.261 82.3398<592.695 662.289> 458.3 53.7002<59.493 181.139>
VStem: 90.5693 134.339<229.734 458.296> 326.043 97.623<332.534 428.106> 449.755 46.9082<332.806 428.247> 662.84 71.5967<337.261 428.981>
LayerCount: 2
Fore
SplineSet
236.868164062 306.2578125 m 0x7c
 247.793945312 190.140625 262.016601562 174.337890625 271.825195312 144.983398438 c 1
 291.890625 170.624023438 304 178 339.532226562 227.291015625 c 1
 334.110351562 275.994140625 326.04296875 337.982421875 326.04296875 385.696289062 c 0
 326.04296875 425.077148438 332.078125 451.6875 344.653320312 460.61328125 c 0
 352.631835938 466.276367188 403.776367188 468.229492188 414.241210938 468.229492188 c 0
 460.895507812 468.229492188 496.663085938 424.685546875 496.663085938 381.561523438 c 0
 496.663085938 339.330078125 463.7421875 284.463867188 445 254 c 1
 456.208984375 179.092773438 468.705078125 158.487304688 477.892578125 132.918945312 c 1
 516.655273438 183.846679688 662.83984375 321.673828125 662.83984375 402.047851562 c 0
 662.83984375 418.588867188 654.486328125 429.260742188 645.313476562 429.260742188 c 0
 636.748046875 429.260742188 624.385742188 415.651367188 610.493164062 415.651367188 c 0
 583.41015625 415.651367188 567.1875 443.977539062 567.1875 465.243164062 c 0
 567.1875 495.981445312 593.34375 511.600585938 625.84375 511.600585938 c 0xbc
 649.865234375 511.600585938 681.04296875 503.353515625 697.759765625 486.928710938 c 0
 718.298828125 466.748046875 734.436523438 438.274414062 734.436523438 410.448242188 c 0
 734.436523438 374.573242188 721.947265625 337.010742188 704.14453125 305.5546875 c 0
 650.248046875 210.328125 560.732421875 129.124023438 475.543945312 7.0107421875 c 0
 470.249023438 -0.7880859375 456.159179688 -11.5498046875 446.23046875 -11.5498046875 c 0
 434.934570312 -11.5498046875 425.565429688 -0.228515625 422.540039062 7.3955078125 c 0
 403.754882812 54.7509765625 381.877929688 89.7275390625 366.153320312 158.866210938 c 1
 327.313476562 102.942382812 282.84765625 66.5654296875 233.012695312 3.87109375 c 0
 227.436523438 -3.1435546875 215.185546875 -11.5498046875 204.796875 -11.5498046875 c 0
 195.024414062 -11.5498046875 187.599609375 -2.5986328125 184.37890625 3.86328125 c 0
 155.977539062 59.1123046875 117.876953125 101.759765625 98.2265625 275.177734375 c 0
 91.189453125 337.283203125 90.5693359375 377.572265625 90.5693359375 403.288085938 c 0
 90.5693359375 423.676757812 91.6875 442.608398438 91.6875 446.797851562 c 0
 91.6875 453.243164062 82.953125 458.299804688 76.9375 458.299804688 c 0
 58.9951171875 458.299804688 39.4619140625 449.248046875 20.01171875 433.29296875 c 1
 8.0908203125 442.97265625 l 1
 27.9287109375 478.3359375 78.5859375 512 153.6875 512 c 0
 208.590820312 512 224.700195312 484.3828125 224.908203125 471.047851562 c 0
 225.296875 446.005859375 228.486328125 395.334960938 236.868164062 306.2578125 c 0x7c
449.754882812 386.47265625 m 3
 449.754882812 400.614257812 443.240234375 420.099609375 428.83203125 428.984375 c 1
 424.580078125 404.743164062 423.666015625 399.548828125 423.666015625 379.234375 c 0
 423.666015625 365.447265625 426.263671875 345.684570312 428.647460938 331.865234375 c 1
 445.50390625 350.986328125 449.754882812 365.88671875 449.754882812 386.47265625 c 3
EndSplineSet
Validated: 1
EndChar

StartChar: x
Encoding: 120 120 8
GlifName: x
Width: 677
VWidth: 0
Flags: W
HStem: -8.75977 44.7637<121.635 177.637> -6 51<485.184 583.551> 451.758 58.7451<515.622 601.438> 463.9 48.0996<155.345 277.791>
LayerCount: 2
Fore
SplineSet
140.634765625 36.00390625 m 0x80
 154.397460938 36.00390625 183.306640625 60.0966796875 200.264648438 80.658203125 c 0
 229.516601562 116.127929688 254.512695312 151.26953125 302.564453125 246.892578125 c 1
 283.55078125 333.177734375 242.9921875 409.122070312 227.858398438 434.759765625 c 0
 213.7890625 458.59375 197.27734375 463.900390625 182.209960938 463.900390625 c 0
 162.686523438 463.900390625 138.765625 449.51953125 125.405273438 433.8125 c 1
 115.857421875 442.932617188 l 1
 134.854492188 480.577148438 169.666992188 512 227.177734375 512 c 0x90
 328.403320312 512 364.004882812 411.25 382.071289062 344.109375 c 1
 429.127929688 418.357421875 436.384765625 426.095703125 476.65234375 465.55859375 c 0
 499.891601562 488.333984375 543.284179688 510.502929688 584.2890625 510.502929688 c 0
 617.705078125 510.502929688 657.065429688 494.788085938 657.065429688 459.0078125 c 0
 657.065429688 440.565429688 642.829101562 416.232421875 612.64453125 416.232421875 c 0
 597.025390625 416.232421875 587.392578125 426.643554688 579.01171875 437.325195312 c 0
 571.84765625 446.462890625 566.93359375 451.7578125 560.186523438 451.7578125 c 0
 542.083984375 451.7578125 528.916015625 444.03515625 516.107421875 431.103515625 c 0
 474.473632812 389.073242188 454.607421875 341.420898438 407.361328125 262.388671875 c 1
 407.5078125 260.331054688 408.22265625 256.788085938 408.956054688 254.956054688 c 0
 431.806640625 197.911132812 433.989257812 155.688476562 463.536132812 102.279296875 c 0
 477.28515625 77.4267578125 486.947265625 45 532.020507812 45 c 0
 553.895507812 45 587.233398438 52.3486328125 605.700195312 72.640625 c 1
 617.630859375 64.1171875 l 1
 600.25390625 27.373046875 578.076171875 -6 515.000976562 -6 c 0x60
 383.634765625 -6 359.307617188 87.9580078125 338.884765625 159.897460938 c 1
 307.072265625 106.766601562 289.602539062 85.6943359375 262.135742188 56.330078125 c 0
 228.86328125 20.759765625 195.817382812 -8.759765625 127.872070312 -8.759765625 c 0
 73.53515625 -8.759765625 35.08984375 10.9453125 35.08984375 41.7568359375 c 0
 35.08984375 69.177734375 53.359375 93.0625 81.3525390625 93.0625 c 0
 128.984375 93.0625 111.931640625 36.00390625 140.634765625 36.00390625 c 0x80
EndSplineSet
Validated: 1
EndChar

StartChar: X
Encoding: 88 88 9
GlifName: X_
Width: 692
VWidth: 0
Flags: W
HStem: 0 30<-68.1338 -22.9338 99.0952 127.9 379.866 420.947 591.379 618.431> 700 30<116.866 147.948 314.408 369 578.866 604.212 721.681 767.9>
LayerCount: 2
Fore
SplineSet
618.430664062 0 m 1
 368 0 l 1
 367.900390625 0 367.100585938 2.6875 367.100585938 6.4345703125 c 0
 367.100585938 9.3408203125 367.58203125 12.884765625 369.291992188 16.3046875 c 0
 373.291992188 24.3046875 379.866210938 30 379.866210938 30 c 1
 385.965820312 30 l 2
 408 30 425.732421875 41.4072265625 425.732421875 59.208984375 c 0
 425.732421875 65.384765625 423.965820312 74.5849609375 420.40234375 84.5634765625 c 1
 327.875976562 287.858398438 l 1
 130.104492188 86.24609375 l 1
 115.18359375 68.330078125 104.505859375 55.8193359375 101.73828125 50.2294921875 c 0
 99.9580078125 46.6337890625 99.08984375 43.5390625 99.08984375 40.923828125 c 0
 99.08984375 33.30078125 106.4609375 29.75 120.090820312 29.75 c 0
 123.114257812 29.75 126.669921875 30 130.965820312 30 c 0
 141 30 l 1
 141 30 143.239257812 26.947265625 143.239257812 24.005859375 c 0
 143.239257812 20.9619140625 142.85546875 17.9638671875 141.291992188 14.3046875 c 0
 137.935546875 6.447265625 127.900390625 0 127.900390625 0 c 1
 -80.099609375 0 l 1
 -80.099609375 0 -80.8994140625 2.6875 -80.8994140625 6.4345703125 c 0
 -80.8994140625 9.3408203125 -80.41796875 12.884765625 -78.7080078125 16.3046875 c 0
 -74.7080078125 24.3046875 -68.1337890625 30 -68.1337890625 30 c 1
 -63.0341796875 30 l 0
 -27.984375 30 -19.927734375 49.2880859375 2.806640625 73.0419921875 c 1
 280.896484375 367.459960938 l 1
 229.9609375 497.594726562 177.767578125 620.694335938 152 677 c 1
 145.05859375 693.317382812 137.875976562 700 111.965820312 700 c 0
 104.900390625 700 l 1
 104.900390625 700 104.100585938 702.6875 104.100585938 706.434570312 c 0
 104.100585938 709.340820312 104.58203125 712.884765625 106.291992188 716.3046875 c 0
 110.291992188 724.3046875 116.866210938 730 116.866210938 730 c 1
 369 730 l 1
 369 730 371.239257812 726.947265625 371.239257812 724.005859375 c 0
 371.239257812 720.961914062 370.85546875 717.963867188 369.291992188 714.3046875 c 0
 365.935546875 706.447265625 355.900390625 700 356.430664062 700 c 1
 350.965820312 700 l 0
 323.594726562 700 308.76953125 687.362304688 308.76953125 666.754882812 c 0
 308.76953125 662.033203125 312.49609375 653.0859375 315.47265625 645.580078125 c 0
 392.536132812 464.005859375 l 1
 578.775390625 642.697265625 l 1
 597.625 663.641601562 605.275390625 669.681640625 605.275390625 680.924804688 c 0
 605.275390625 686.442382812 596.810546875 700 577.965820312 700 c 0
 566.900390625 700 l 1
 566.900390625 700 566.100585938 702.6875 566.100585938 706.434570312 c 0
 566.100585938 709.340820312 566.58203125 712.884765625 568.291992188 716.3046875 c 0
 572.291992188 724.3046875 578.866210938 730 578.866210938 730 c 1
 781 730 l 1
 781 730 783.239257812 726.947265625 783.239257812 724.005859375 c 0
 783.239257812 720.961914062 782.85546875 717.963867188 781.291992188 714.3046875 c 0
 777.935546875 706.447265625 767.900390625 700 767.900390625 700 c 1
 762.965820312 700 l 0
 727.87890625 700 715.911132812 679.72265625 694.1171875 656.951171875 c 1
 430.352539062 385.764648438 l 1
 436.21875 371.079101562 l 1
 499.499023438 234.977539062 557.530273438 117.8359375 584.397460938 58.37890625 c 1
 591.915039062 40.70703125 598.719726562 30 622.965820312 30 c 0
 631 30 l 1
 631 30 633.239257812 26.947265625 633.239257812 24.005859375 c 0
 633.239257812 20.9619140625 632.85546875 17.9638671875 631.291992188 14.3046875 c 0
 627.935546875 6.447265625 617.900390625 0 618.430664062 0 c 1
EndSplineSet
Validated: 1
EndChar

StartChar: d
Encoding: 100 100 10
GlifName: d
Width: 658
VWidth: 0
Flags: W
HStem: -9.9502 45.5<225.78 316.501> 475.85 36.0508<307.184 401.743> 754.15 20G<641.493 647.23>
VStem: 40.2793 146.312<81.2454 309.812> 493.119 160.942<670.564 764.516>
LayerCount: 2
Fore
SplineSet
517.465820312 59.580078125 m 1
 517.465820312 22.5595703125 l 1
 485.0703125 7.904296875 469.669921875 -6.7998046875 422.18359375 -6.7998046875 c 0
 391.263671875 -6.7998046875 336.293945312 10.69921875 336.293945312 23.2353515625 c 0
 336.293945312 23.2353515625 287.040039062 -9.9501953125 239.22265625 -9.9501953125 c 0
 118.479492188 -9.9501953125 40.279296875 61.587890625 40.279296875 171.98828125 c 0
 40.279296875 393.969726562 153.479492188 511.900390625 336.388671875 511.900390625 c 0
 365.370117188 511.900390625 411.46484375 503.635742188 442.209960938 475.251953125 c 1
 488.817382812 671.631835938 l 1
 490.422851562 678.053710938 493.119140625 686.342773438 493.119140625 693.811523438 c 0
 493.119140625 700.366210938 492.750976562 708.141601562 489.094726562 711.638671875 c 0
 483.751953125 716.75 473.622070312 719.100585938 466.801757812 719.100585938 c 0
 458.584960938 719.100585938 l 1
 463.959960938 744.471679688 l 1
 501.499023438 753.922851562 599.609375 762.803710938 636.677734375 772.725585938 c 0
 637.420898438 772.958007812 639.760742188 774.150390625 643.224609375 774.150390625 c 0
 651.236328125 774.150390625 654.061523438 766.616210938 654.061523438 762.415039062 c 0
 654.061523438 757.73828125 652.610351562 752.530273438 651.129882812 746.608398438 c 1
 491.791015625 69.6435546875 l 1
 487.71875 52.4677734375 l 1
 517.465820312 59.580078125 l 1
352 89 m 1
 418 368 l 1
 419.3671875 375.1015625 422.517578125 390.247070312 422.517578125 396.291015625 c 0
 422.517578125 437.248046875 403.013671875 475.849609375 361.083007812 475.849609375 c 0
 259.849609375 475.849609375 186.591796875 318.9765625 186.591796875 175.94140625 c 0
 186.591796875 118.530273438 208.483398438 35.5498046875 270.416015625 35.5498046875 c 0
 330.608398438 35.5498046875 345.010742188 72.3447265625 352 89 c 1
EndSplineSet
Validated: 1
EndChar

StartChar: f
Encoding: 102 102 11
GlifName: f
Width: 542
VWidth: 0
Flags: W
HStem: -179.2 38.1504<-102.433 -25.0145> 437.063 64.9268<112.4 138.121 295.772 386.181> 732.775 36.0498<392.189 461.178>
LayerCount: 2
Fore
SplineSet
404.006835938 484.899414062 m 0
 404.006835938 477.924804688 392.595703125 448.948242188 390 444 c 2
 386.180664062 437.063476562 l 1
 381.467773438 437.063476562 l 0
 375.899414062 437.063476562 322.713867188 440.797851562 284.05859375 441.155273438 c 1
 182.749023438 16.6806640625 l 0
 152.549804688 -113.77734375 68.6875 -179.200195312 -67.4501953125 -179.200195312 c 0
 -116.66015625 -179.200195312 -184.852539062 -158.87109375 -211.645507812 -109.751953125 c 1
 -211.645507812 -109.751953125 -215.012695312 -98.9775390625 -215.012695312 -96.6181640625 c 0
 -215.012695312 -77.9560546875 -179.559570312 -51.849609375 -154.75 -51.849609375 c 0
 -92.630859375 -51.849609375 -130.512695312 -141.049804688 -69.884765625 -141.049804688 c 0
 -18.6220703125 -141.049804688 21.232421875 -78.98046875 43.0302734375 24.125 c 0
 138.12109375 440.807617188 l 1
 114.453125 440.04296875 105.258789062 436.942382812 105.165039062 436.927734375 c 0
 92.34375 434.916015625 l 1
 112.400390625 497.560546875 l 1
 151.881835938 497.560546875 l 1
 153.66796875 504.46875 156.553710938 515.831054688 159.557617188 528.693359375 c 0
 161.815429688 538.568359375 165.029296875 548.916992188 167.194335938 557.333007812 c 1
 214.3515625 718.221679688 288.688476562 768.825195312 447.41796875 768.825195312 c 0
 506.096679688 768.825195312 552.1328125 753.033203125 577.194335938 700.774414062 c 1
 580.298828125 695.022460938 581.107421875 690.452148438 581.107421875 687.188476562 c 0
 581.107421875 663.235351562 543.673828125 639.125 528.517578125 639.125 c 0
 467.875976562 639.125 477.879882812 732.775390625 437.854492188 732.775390625 c 0
 385.973632812 732.775390625 335.920898438 666.279296875 307.078125 547.616210938 c 0
 295.772460938 501.990234375 l 1
 373.66015625 501.990234375 l 0
 390.134765625 501.990234375 404.006835938 497.936523438 404.006835938 484.899414062 c 0
EndSplineSet
Validated: 1
EndChar

StartChar: j
Encoding: 106 106 12
GlifName: j
Width: 413
VWidth: 0
Flags: W
HStem: -175.7 62.2998<-64.8652 43.3021> 463.3 48.25<180.272 312.494> 580 147.9<249.818 328.107>
VStem: 204.666 146.978<365.175 488.03> 217.5 143.531<613.335 695.718>
LayerCount: 2
Fore
SplineSet
304.599609375 727.900390625 m 0xe8
 338.326171875 727.900390625 361.03125 701.553710938 361.03125 668.692382812 c 0
 361.03125 618.291015625 315.05859375 580 274 580 c 0
 239.446289062 580 217.5 606.106445312 217.5 638.639648438 c 0
 217.5 689.166992188 261.953125 727.900390625 304.599609375 727.900390625 c 0xe8
351.643554688 472.362304688 m 0xf0
 351.643554688 446.08984375 337.29296875 393.94140625 327.68359375 354.377929688 c 2
 261.643554688 82.474609375 l 1
 258.444335938 67.880859375 254.15234375 53.54296875 250.841796875 39.3583984375 c 1
 237.131835938 -14.115234375 225.881835938 -49.7177734375 173.51171875 -92.5576171875 c 1
 139.090820312 -120.572265625 70.50390625 -175.700195312 -54.3896484375 -175.700195312 c 0
 -75.3408203125 -175.700195312 -126.213867188 -161.28515625 -146.975585938 -152.54296875 c 1
 -154.737304688 -149.217773438 -158.037109375 -142.54296875 -158.037109375 -136.325195312 c 0
 -158.037109375 -102.088867188 -105.375 -78.2001953125 -80.5400390625 -78.2001953125 c 0
 -47.6435546875 -78.2001953125 -31.6337890625 -113.400390625 -7.71875 -113.400390625 c 0
 -0.5625 -113.400390625 9.7548828125 -110.668945312 20.2548828125 -105.739257812 c 0
 77.98828125 -79.30859375 88.5908203125 -41.158203125 105.420898438 25.6162109375 c 0
 187.505859375 366.48046875 l 1
 193.06640625 389.90234375 204.424804688 436.954101562 204.666015625 448.087890625 c 1
 204.666015625 454.8671875 201.568359375 463.299804688 193.661132812 463.299804688 c 0
 175.909179688 463.299804688 159.69140625 456.166015625 137.072265625 436.73828125 c 0
 122.7890625 448.142578125 l 1
 143.73046875 482.966796875 220.213867188 511.549804688 293.810546875 511.549804688 c 0
 331.176757812 511.549804688 351.643554688 500.650390625 351.643554688 472.362304688 c 0xf0
EndSplineSet
Validated: 1
EndChar

StartChar: g
Encoding: 103 103 13
GlifName: g
Width: 632
VWidth: 0
Flags: W
HStem: -271.65 40.25<129.588 279.928> 435.302 71.1982<518.776 602.093> 467.2 44.4502<306.351 390.22>
VStem: -30.1611 139.422<-213.849 -116.48> 95.8613 145.904<177.232 355.511> 361.614 133.472<-138.523 -27.5288> 403.859 133.474<247.988 436.112>
LayerCount: 2
Fore
SplineSet
193.166015625 -231.400390625 m 0x94
 279.459960938 -231.400390625 361.614257812 -174.094726562 361.614257812 -109.334960938 c 0
 361.614257812 -71.474609375 299.375976562 -47.9970703125 246.248046875 -40.384765625 c 1
 177.638671875 -65.5537109375 109.260742188 -104.075195312 109.260742188 -165.913085938 c 0
 109.260742188 -209.376953125 140.169921875 -231.400390625 193.166015625 -231.400390625 c 0x94
241.765625 249.908203125 m 0xaa
 241.765625 188.44140625 255.081054688 136.799804688 285.572265625 136.799804688 c 0
 366.071289062 136.799804688 403.859375 265.961914062 403.859375 375.750976562 c 0
 403.859375 433.856445312 390.646484375 467.200195312 352.704101562 467.200195312 c 0
 284.872070312 467.200195312 241.765625 351.436523438 241.765625 249.908203125 c 0xaa
495.0859375 -60.328125 m 0xc4
 495.0859375 -202.841796875 320.58203125 -271.650390625 173.595703125 -271.650390625 c 0
 58.1591796875 -271.650390625 -30.1611328125 -254.416992188 -30.1611328125 -180.487304688 c 0xd4
 -30.1611328125 -83.6943359375 82.9130859375 -52.6943359375 158.798828125 -30.70703125 c 1
 139.252929688 -28.45703125 122.80078125 -25.57421875 109.583984375 -22.2392578125 c 1
 85.3486328125 -16.71484375 63.0400390625 1.615234375 63.0400390625 24.7060546875 c 0
 63.0400390625 69.1845703125 176.724609375 93.3681640625 222.357421875 106.224609375 c 1
 169.580078125 121.1640625 95.861328125 164.924804688 95.861328125 246.74609375 c 0
 95.861328125 409.139648438 219.228515625 511.650390625 366.318359375 511.650390625 c 0xa8
 423.141601562 511.650390625 466.791992188 501.150390625 491.829101562 476.864257812 c 1
 525.046875 497.013671875 560.625 506.5 597.3359375 506.5 c 0
 609.0078125 506.5 614.375 496.3359375 614.375 487.184570312 c 0
 614.375 442.044921875 560.049804688 435.301757812 530.971679688 435.301757812 c 0
 527.96484375 435.301757812 520.294921875 435.705078125 518 436 c 1
 527 418 537.333007812 388.02734375 537.333007812 363.354492188 c 0xca
 537.333007812 138.680664062 359.971679688 110.384765625 241.947265625 57.4541015625 c 0
 235.673828125 54.640625 230.786132812 49.09375 230.786132812 45.591796875 c 0
 230.786132812 41.376953125 234.837890625 36.904296875 243.77734375 34.6337890625 c 0
 247.948242188 33.5751953125 270.171875 31.0947265625 283.795898438 29.884765625 c 0
 309.811523438 27.5751953125 322.251953125 27.44140625 351.889648438 25.673828125 c 0
 434.228515625 20.763671875 495.0859375 5.2705078125 495.0859375 -60.328125 c 0xc4
EndSplineSet
Validated: 1
EndChar

StartChar: q
Encoding: 113 113 14
GlifName: q
Width: 658
VWidth: 0
Flags: W
HStem: -9.59961 45.5996<227.601 333.516> 475.15 37.0996<319.525 407.341>
VStem: 45.793 146.091<80.0662 293.815>
LayerCount: 2
Fore
SplineSet
584.458984375 521.326171875 m 2
 588.373046875 523.267578125 592.487304688 526 597.032226562 526 c 0
 600.48046875 526 606.983398438 523.669921875 606.983398438 514.6171875 c 0
 606.983398438 509.821289062 605.251953125 502.91796875 603.883789062 497.447265625 c 2
 431.0546875 -232 l 1
 285.153320312 -232 l 1
 350 22 l 1
 316 0 295.228515625 -9.599609375 253.658203125 -9.599609375 c 0
 141.62890625 -9.599609375 45.79296875 40.91796875 45.79296875 173.159179688 c 0
 45.79296875 371.392578125 194.176757812 512.25 377.953125 512.25 c 0
 412.466796875 512.25 448.630859375 499.359375 481.678710938 470.342773438 c 1
 584.458984375 521.326171875 l 2
191.883789062 184.109375 m 0
 191.883789062 103.5703125 220.384765625 36 273 36 c 0
 308.760742188 36 334 50 362 74 c 1
 437.807617188 404.47265625 l 1
 437.901367188 404.745117188 l 1
 438.224609375 405.774414062 l 1
 438.1328125 405.978515625 l 2
 419.564453125 446.088867188 400.80078125 475.150390625 367.74609375 475.150390625 c 0
 282.819335938 475.150390625 191.883789062 306.310546875 191.883789062 184.109375 c 0
EndSplineSet
Validated: 1
EndChar

StartChar: p
Encoding: 112 112 15
GlifName: p
Width: 635
VWidth: 0
Flags: W
HStem: -12.0254 45.1006<229.379 330.052> 453.925 58.0498<103.074 214.687> 466.325 45.5<332.815 479.354>
VStem: 447.759 140.015<198.413 437.116>
LayerCount: 2
Fore
SplineSet
-17 -232 m 1xb0
 129.438476562 373.6484375 l 2
 132.560546875 385.911132812 146.706054688 428.442382812 146.706054688 441.6328125 c 0
 146.706054688 447.958984375 138.841796875 453.924804688 130.383789062 453.924804688 c 0
 114.1796875 453.924804688 93.77734375 444.57421875 74.228515625 426.717773438 c 1
 56.30859375 445.3984375 l 1
 77.5078125 482.934570312 125.981445312 511.974609375 195.778320312 511.974609375 c 0xd0
 233.595703125 511.974609375 290.21875 510.829101562 290.21875 475.575195312 c 0
 290.21875 473.374023438 289.70703125 467.814453125 289.056640625 461.848632812 c 1
 324.326171875 492.809570312 378.75390625 511.825195312 422.110351562 511.825195312 c 0
 536.596679688 511.825195312 587.7734375 450.614257812 587.7734375 328.23828125 c 0
 587.7734375 103.977539062 447.938476562 -12.025390625 284.728515625 -12.025390625 c 0
 251.11328125 -12.025390625 218.012695312 -1.6552734375 185.056640625 20.3095703125 c 1
 125.231445312 -232 l 1
 -17 -232 l 1xb0
376.04296875 466.325195312 m 0xb0
 341.865234375 466.325195312 315.110351562 445.1015625 278.303710938 410.388671875 c 1
 208.373046875 118.547851562 l 1
 215.12109375 63.1064453125 231.486328125 33.0751953125 282.037109375 33.0751953125 c 0
 351.509765625 33.0751953125 447.758789062 185.016601562 447.758789062 304.634765625 c 0
 447.758789062 371.7578125 445.213867188 466.325195312 376.04296875 466.325195312 c 0xb0
EndSplineSet
Validated: 1
EndChar

StartChar: o
Encoding: 111 111 16
GlifName: o
Width: 584
VWidth: 0
Flags: W
HStem: -10.375 45.5<192.937 288.443> 465.875 45.5<281.968 370.91>
VStem: 22.6758 145.146<60.8584 289.184> 399.483 144.418<211.844 434.9>
LayerCount: 2
Fore
SplineSet
543.901367188 349.989257812 m 0
 543.901367188 88.9453125 406.359375 -10.375 229.682617188 -10.375 c 0
 119.060546875 -10.375 22.67578125 9.427734375 22.67578125 149.85546875 c 0
 22.67578125 381.249023438 160.693359375 511.375 340.65625 511.375 c 0
 448.828125 511.375 543.901367188 493.053710938 543.901367188 349.989257812 c 0
334.962890625 465.875 m 0
 240.955078125 465.875 167.821289062 288.885742188 167.821289062 150.247070312 c 0
 167.821289062 82.66796875 189.109375 35.125 239.013671875 35.125 c 0
 328.37109375 35.125 399.483398438 225.03125 399.483398438 344.278320312 c 0
 399.483398438 399.455078125 376.75390625 465.875 334.962890625 465.875 c 0
EndSplineSet
Validated: 1
EndChar

StartChar: I
Encoding: 73 73 17
GlifName: I_
Width: 407
VWidth: 0
Flags: W
HStem: 0 31<12.9004 41.0066 223.586 247.9> 700 30<184.5 201.803 383.539 404.9>
LayerCount: 2
Fore
SplineSet
262.077148438 31 m 1
 262.077148438 31 263.239257812 27.947265625 263.239257812 25.005859375 c 0
 263.239257812 21.9619140625 262.85546875 18.9638671875 261.291992188 15.3046875 c 0
 257.935546875 7.447265625 247.900390625 0 247.900390625 0 c 1
 -0.099609375 0 l 1
 -0.099609375 0 -0.8994140625 2.6875 -0.8994140625 6.4345703125 c 0
 -0.8994140625 9.3408203125 -0.41796875 12.884765625 1.2919921875 16.3046875 c 0
 5.2919921875 24.3046875 12.900390625 30 12.900390625 30 c 1
 17.9658203125 30 l 0
 26.0859375 30 33.099609375 30.8232421875 41.39453125 33.78515625 c 0
 56 39 66.529296875 52.8544921875 70.154296875 67.0498046875 c 0
 120.431640625 263.927734375 169.576171875 466.9609375 211.135742188 662.014648438 c 0
 211.54296875 663.92578125 212.78515625 670.625976562 212.78515625 672.315429688 c 0
 212.78515625 683.443359375 212 689 202.041992188 695.3046875 c 0
 196.965820312 698.518554688 190.012695312 700 181.965820312 700 c 0
 171.900390625 700 l 1
 171.900390625 700 171.100585938 702.6875 171.100585938 706.434570312 c 0
 171.100585938 709.340820312 171.58203125 712.884765625 173.291992188 716.3046875 c 0
 177.291992188 724.3046875 184.5 730 184.5 730 c 1
 418.930664062 730 l 1
 418.930664062 730 420.239257812 726.947265625 420.239257812 724.005859375 c 0
 420.239257812 720.961914062 419.85546875 717.963867188 418.291992188 714.3046875 c 0
 414.935546875 706.447265625 404.900390625 700 404.900390625 700 c 1
 398.965820312 700 l 0
 395.295898438 700 390.849609375 699.469726562 383.181640625 697.145507812 c 0
 369.432617188 692.977539062 359.33984375 674.950195312 356.771484375 664.888671875 c 0
 309.3203125 478.963867188 256.551757812 252.545898438 216 69 c 0
 214.85546875 63.818359375 213.122070312 58.033203125 213.122070312 52.36328125 c 0
 213.122070312 45.0703125 215.833007812 37.6142578125 223.31640625 34.7265625 c 0
 229.025390625 32.5244140625 237.8515625 31 245.965820312 31 c 0
 262.077148438 31 l 1
EndSplineSet
Validated: 1
EndChar

StartChar: y
Encoding: 121 121 18
GlifName: y
Width: 576
VWidth: 0
Flags: W
HStem: 468.925 43.25<77.0799 176.296>
VStem: 444.686 112.387<418.247 500.176>
LayerCount: 2
Fore
SplineSet
150.455078125 90.76953125 m 0
 150.455078125 139.818359375 147.326171875 205.641601562 140.546875 280.928710938 c 0
 138.301757812 305.682617188 119.629882812 441.793945312 116.91015625 452.95703125 c 0
 114.696289062 462.038085938 106.271484375 468.924804688 99.51171875 468.924804688 c 0
 80.896484375 468.924804688 59.1572265625 451.962890625 45.564453125 433.91796875 c 1
 35.6455078125 442.598632812 l 1
 51.9384765625 475.231445312 84.83203125 512.174804688 157.169921875 512.174804688 c 0
 195.421875 512.174804688 243.86328125 501.551757812 246.555664062 473.2578125 c 0
 248.9140625 448.471679688 264.887695312 358.05078125 267.092773438 311.747070312 c 1
 273.396484375 244.729492188 277.192382812 189.89453125 278.05078125 154.701171875 c 1
 304.98046875 187.600585938 332.513671875 222.766601562 375.047851562 294.232421875 c 0
 424.057617188 378.674804688 438.49609375 411.224609375 439.158203125 415.416992188 c 0
 442.299804688 435.315429688 440.465820312 460.120117188 444.685546875 483.327148438 c 0
 447.834960938 500.65625 485.32421875 512.040039062 501.4765625 512.040039062 c 0
 527.504882812 512.040039062 557.072265625 488.000976562 557.072265625 471.55859375 c 0
 557.072265625 454.361328125 537.310546875 422.709960938 532.1953125 412.196289062 c 0
 512.408203125 371.52734375 515.22265625 371.68359375 457.513671875 273.341796875 c 0
 406.43359375 188.689453125 339.356445312 114.712890625 297.94921875 50.7607421875 c 0
 272.05078125 10.763671875 239.138671875 -44.2646484375 223.138671875 -64.4921875 c 1
 193.080078125 -104.444335938 63.61328125 -251.174804688 5.3388671875 -251.174804688 c 0
 -28.3154296875 -251.174804688 -53.6064453125 -239 -53.6064453125 -222.659179688 c 0
 -53.6064453125 -209.192382812 -48 -190 -36.673828125 -176.565429688 c 0
 5.8623046875 -126.110351562 28.8369140625 -154.727539062 66.0732421875 -115.803710938 c 0
 85.7001953125 -96.0908203125 134.295898438 -31.9599609375 144.48828125 -13.6943359375 c 1
 148.639648438 -3.158203125 150.455078125 46.400390625 150.455078125 90.76953125 c 0
EndSplineSet
Validated: 1
EndChar

StartChar: v
Encoding: 118 118 19
GlifName: v
Width: 513
VWidth: 0
Flags: W
HStem: 430.487 81.1133<312.168 378.164> 458.3 53.25<21.3195 139.901>
VStem: 50.123 134.417<210.763 458.295> 378.902 85.5342<335.958 430.253>
LayerCount: 2
Fore
SplineSet
191.786132812 300.2578125 m 0x70
 203.06640625 189.934570312 214.852539062 194.33203125 223.879882812 165.342773438 c 1
 268.78515625 213.936523438 378.90234375 327.982421875 378.90234375 404.85546875 c 0
 378.90234375 419.798828125 370.705078125 430.487304688 360.765625 430.487304688 c 0
 353.171875 430.487304688 340.55078125 418.73828125 325.233398438 418.73828125 c 0
 300.881835938 418.73828125 284.990234375 443.43359375 284.990234375 462.875 c 0
 284.990234375 488.7421875 322.029296875 511.600585938 353.84375 511.600585938 c 0xb0
 385.141601562 511.600585938 420.04296875 497.352539062 435.759765625 477.926757812 c 0
 453.872070312 455.541015625 464.436523438 428.26953125 464.436523438 400.440429688 c 0
 464.436523438 364.563476562 451.947265625 336.998046875 434.14453125 305.540039062 c 0
 380.388671875 210.5546875 293.635742188 121.049804688 197.512695312 3.6826171875 c 0
 191.09765625 -4.3662109375 182.6640625 -11.5498046875 171.4921875 -11.5498046875 c 0
 161.3359375 -11.5498046875 152.658203125 -1.5986328125 149.310546875 4.86328125 c 0
 119.607421875 60.45703125 77.861328125 101.903320312 58.2265625 275.177734375 c 0
 51.748046875 332.358398438 50.123046875 371.061523438 50.123046875 396.931640625 c 0
 50.123046875 421.385742188 50.6875 441.232421875 50.6875 445.828125 c 0
 50.6875 452.129882812 38.7666015625 458.299804688 31.9375 458.299804688 c 0
 14.8359375 458.299804688 -1.2119140625 451.6953125 -20.98828125 433.29296875 c 1
 -30.9091796875 442.97265625 l 1
 -11.2529296875 477.78515625 42.1884765625 511.549804688 112.6875 511.549804688 c 0
 167.114257812 511.549804688 184.588867188 478.427734375 184.588867188 465 c 0
 184.588867188 456.459960938 184.540039062 447.815429688 184.540039062 438.733398438 c 0
 184.540039062 404.64453125 185.229492188 364.381835938 191.786132812 300.2578125 c 0x70
EndSplineSet
Validated: 1
EndChar

StartChar: u
Encoding: 117 117 20
GlifName: u
Width: 591
VWidth: 0
Flags: W
HStem: -9.59961 37.5996<186.394 279.537> -7.5 21G<355.124 396.834> 457.75 54.25<85.5188 153.318>
VStem: 38.1592 127.164<44.5656 208.6> 111.809 132.885<357.906 486.382>
LayerCount: 2
Fore
SplineSet
43.5322265625 142.458984375 m 1xb0
 97.2333984375 365.331054688 l 2
 102.436523438 388.559570312 111.573242188 426.71875 111.80859375 437.580078125 c 1
 111.80859375 449.328125 98.7119140625 457.75 90.052734375 457.75 c 0
 72.0771484375 457.75 53.9072265625 452.329101562 36.126953125 433.743164062 c 1
 26.2060546875 443.422851562 l 1
 46.03125 478.534179688 118.369140625 512 168.953125 512 c 0
 194.8359375 512 244.48828125 504.34375 244.693359375 468.419921875 c 1xa8
 244.693359375 441.681640625 230.084960938 393.461914062 222.029296875 353.694335938 c 1
 174.296875 156.0859375 l 1
 171.604492188 144.970703125 165.323242188 119.140625 165.323242188 105.954101562 c 0
 165.323242188 46.357421875 200.903320312 28 227.877929688 28 c 0xb0
 250.264648438 28 276.458984375 38.705078125 322.6328125 68.3056640625 c 1
 427.232421875 516.799804688 l 1
 550.659179688 516.799804688 l 1
 441 37 l 1
 476.297851562 46.31640625 l 1
 478.438476562 22.341796875 l 1
 446.944335938 7.6376953125 421.28515625 -7.5 372.383789062 -7.5 c 0x70
 337.864257812 -7.5 316.8515625 13.646484375 316.8515625 26.1689453125 c 0
 316.8515625 28.837890625 317.07421875 32.4892578125 317.1953125 33.8994140625 c 1
 281.020507812 5.80859375 251.677734375 -9.599609375 194.473632812 -9.599609375 c 0
 119.653320312 -9.599609375 38.1591796875 20.7529296875 38.1591796875 100.477539062 c 0
 38.1591796875 113.303710938 39.8623046875 127.17578125 43.5322265625 142.458984375 c 1xb0
EndSplineSet
Validated: 1
EndChar

StartChar: n
Encoding: 110 110 21
GlifName: n
Width: 638
VWidth: 0
Flags: W
HStem: -9.4502 48.3506<443.711 559.047> 0.200195 21G<31.4248 178.716> 456.75 55.7002<109.346 234.594> 465.5 46.9609<335.535 424.258>
VStem: 383.859 137.926<39.0049 154.062> 446.463 141.032<296.441 430.442>
LayerCount: 2
Fore
SplineSet
282.708007812 469.471679688 m 0x64
 282.708007812 463.899414062 282.439453125 457.325195312 281.045898438 449.360351562 c 1
 316.012695312 480.686523438 350.838867188 512.4609375 420.124023438 512.4609375 c 0
 502.14453125 512.4609375 587.495117188 446.782226562 587.495117188 359.705078125 c 0x14
 587.495117188 347.25390625 586.916992188 337.942382812 583.522460938 323.55859375 c 2
 538.35546875 133.19140625 l 1
 533.08984375 110.706054688 521.78515625 67.779296875 521.78515625 57.5732421875 c 0
 521.78515625 49.130859375 532.178710938 38.900390625 540.631835938 38.900390625 c 0
 555.545898438 38.900390625 575.353515625 46.00390625 594.08203125 64.5498046875 c 1
 607.784179688 54.0185546875 l 0
 587.086914062 19.2236328125 530.008789062 -9.4501953125 469.594726562 -9.4501953125 c 0
 417.827148438 -9.4501953125 383.859375 12.3251953125 383.859375 46.9853515625 c 0x98
 383.859375 72.5009765625 392.204101562 104.310546875 401.05859375 143.717773438 c 1
 440 310 l 2
 444.28125 328.041015625 446.462890625 346.462890625 446.462890625 364.022460938 c 0
 446.462890625 418.982421875 425.08984375 465.5 379.82421875 465.5 c 0x94
 330.77734375 465.5 309.5234375 432.876953125 265.775390625 389.739257812 c 1
 174.00390625 0.2001953125 l 1
 31.4248046875 0.2001953125 l 1
 118.686523438 375.208984375 l 0
 125.561523438 402.556640625 132.912109375 437.34765625 132.912109375 447.260742188 c 0
 132.912109375 452.657226562 124.516601562 456.75 118.112304688 456.75 c 0
 104.012695312 456.75 84.11328125 448.094726562 69.1875 424.060546875 c 1
 59.791015625 445.322265625 l 1
 79.7490234375 480.668945312 130.383789062 512.450195312 206.553710938 512.450195312 c 0
 262.633789062 512.450195312 282.708007812 493.318359375 282.708007812 469.471679688 c 0x64
EndSplineSet
Validated: 1
EndChar

StartChar: b
Encoding: 98 98 22
GlifName: b
Width: 619
VWidth: 0
Flags: W
HStem: -3.65039 33.2734<5.94727 40.4911 223.439 317.166> 471.4 40.5<297.239 396.93> 754 20G<329.792 334.164>
VStem: 194.562 149.336<682.523 765.301> 435.996 136.315<188.54 427.518>
LayerCount: 2
Fore
SplineSet
341.345703125 745.498046875 m 0
 277.874023438 480.833984375 l 1
 310.973632812 501.122070312 332.788085938 511.900390625 386.319335938 511.900390625 c 0
 483.860351562 511.900390625 572.311523438 480.563476562 572.311523438 329.053710938 c 0
 572.311523438 124.735351562 484.1015625 -9.9501953125 270.793945312 -9.9501953125 c 0
 233.442382812 -9.9501953125 193.903320312 -0.8251953125 163.66796875 22.7724609375 c 1
 137.561523438 3.890625 73.28515625 -3.650390625 6.4267578125 -3.650390625 c 0
 -2.2001953125 -3.650390625 l 1
 5.947265625 29.623046875 l 1
 11.626953125 29.623046875 l 0
 31.5478515625 29.623046875 44.044921875 46.0703125 46.6064453125 56.9453125 c 0
 190.89453125 677.578125 l 0
 191.9765625 682.010742188 194.561523438 693.323242188 194.561523438 697.165039062 c 0
 194.561523438 705.987304688 192.418945312 712.471679688 187.81640625 715.48828125 c 0
 184.9140625 717.390625 177.693359375 718.950195312 168.850585938 718.950195312 c 0
 159.565429688 718.950195312 l 1
 164.971679688 745.25390625 l 1
 319.3671875 770.701171875 l 0
 321.318359375 771.208007812 327.185546875 774 332.3984375 774 c 0
 335.928710938 774 343.897460938 770.192382812 343.897460938 760.41015625 c 0
 343.897460938 755.986328125 342.879882812 751.799804688 341.345703125 745.498046875 c 0
266 429 m 1
 188 104 l 2
 187.546142209 102.10892587 187.501953125 97.263671875 187.501953125 93.8681640625 c 0
 187.501953125 60.06640625 226.38671875 35.150390625 272.521484375 35.150390625 c 0
 383.276367188 35.150390625 435.99609375 204.23828125 435.99609375 328.88671875 c 0
 435.99609375 405.890625 405.327148438 471.400390625 357.051757812 471.400390625 c 0
 321.197265625 471.400390625 302.627929688 456.823242188 266 429 c 1
EndSplineSet
Validated: 1
EndChar

StartChar: h
Encoding: 104 104 23
GlifName: h
Width: 657
VWidth: 0
Flags: W
HStem: -9.97461 53.582<446.683 550.31> -0.325195 21G<17.5801 164.812> 472.375 39.5498<336.649 446.372> 753.949 20G<326.441 329.28>
VStem: 181.637 158.965<671.556 768.104> 392.131 134.054<26.7208 155.038> 463.409 126.244<275.211 437.616>
LayerCount: 2
Fore
SplineSet
392.130859375 44.2265625 m 1xbc
 392.130859375 70.5517578125 400.697265625 100.813476562 410.387695312 140.296875 c 2
 451 315 l 2
 456.768554688 339.813476562 463.409179688 370.607421875 463.409179688 398.357421875 c 0
 463.409179688 438.559570312 449.471679688 472.375 398.75390625 472.375 c 0
 368.284179688 472.375 317.327148438 451.02734375 252.731445312 388.499023438 c 1
 160.044921875 -0.3251953125 l 1
 17.580078125 -0.3251953125 l 1
 176.915039062 675.568359375 l 1
 178.030273438 680.30078125 181.63671875 695.86328125 181.63671875 699.423828125 c 0
 181.63671875 708.061523438 179.96484375 711.384765625 174.797851562 715.438476562 c 0
 172.168945312 717.501953125 159.498046875 718.899414062 154.591796875 718.899414062 c 0
 145.525390625 718.899414062 l 1
 151.146484375 745.28125 l 1
 314.926757812 770.649414062 l 0
 317.470703125 771.307617188 325.33203125 773.94921875 327.55078125 773.94921875 c 0
 331.008789062 773.94921875 340.6015625 772.836914062 340.6015625 763.370117188 c 0
 340.6015625 759.028320312 339.639648438 754.01171875 338.033203125 747.422851562 c 0
 266.415039062 446.698242188 l 1
 316.528320312 496.115234375 372.073242188 511.924804688 424.400390625 511.924804688 c 0
 511.215820312 511.924804688 589.653320312 455.934570312 589.653320312 358.564453125 c 0x7a
 589.653320312 345.8046875 588.028320312 332.15625 584.53515625 317.424804688 c 2
 538.754882812 129.737304688 l 2
 533.5078125 107.336914062 526.184570312 69.39453125 526.184570312 59.0751953125 c 0
 526.184570312 47.7861328125 534.286132812 43.607421875 543.005859375 43.607421875 c 0
 557.61328125 43.607421875 582.567382812 52.3388671875 595.482421875 65.0244140625 c 1
 589.981445312 52.1572265625 l 0
 569.377929688 19.888671875 506.61328125 -9.974609375 462.1875 -9.974609375 c 0
 431.178710938 -9.974609375 392.399414062 9.8310546875 392.130859375 44.2265625 c 1xbc
EndSplineSet
Validated: 1
EndChar

StartChar: t
Encoding: 116 116 24
GlifName: t
Width: 360
VWidth: 0
Flags: W
HStem: -9.875 52.9502<81.543 195.486> 455.86 38.3457<62.5062 111.986> 464.151 42.8486<257.847 311.702>
VStem: 21.6846 132.45<43.6596 161.873>
LayerCount: 2
Fore
SplineSet
21.6845703125 50.6923828125 m 0xb0
 21.6845703125 77.044921875 34.32421875 124.420898438 43.9599609375 164.037109375 c 0
 111.986328125 454.768554688 l 1
 99.24609375 455.146484375 77.19140625 454.635742188 70.017578125 455.860351562 c 0
 63.1181640625 457.038085938 62.361328125 467.041992188 62.361328125 470.23046875 c 3
 62.361328125 480.282226562 63.814453125 494.206054688 76.7998046875 494.206054688 c 0xd0
 81.46875 494.206054688 101.172851562 494.265625 120.778320312 495.001953125 c 1
 128.923828125 521.263671875 146.1953125 608.087890625 155.677734375 637.935546875 c 0
 160.188476562 652.1328125 195.059570312 655.162109375 224 655.162109375 c 0
 245.54296875 655.162109375 273.799804688 653.483398438 273.799804688 653.483398438 c 0
 281.366210938 653.483398438 287.185546875 647.461914062 287.185546875 633.654296875 c 0
 287.185546875 629.137695312 286.380859375 623.778320312 284.833007812 616.814453125 c 0
 279.025390625 593.669921875 264.783203125 534.560546875 257.846679688 505.974609375 c 1
 287.671875 506.147460938 286.438476562 507 296.549804688 507 c 0
 309.97265625 507 321.974609375 503.70703125 321.974609375 491.404296875 c 0
 321.974609375 483.935546875 319.779296875 478.813476562 316.46484375 472.53125 c 1
 311.702148438 464.151367188 l 1
 307.215820312 464.151367188 l 0
 302.900390625 464.151367188 276.41796875 465.071289062 248.3984375 465.192382812 c 1
 222.15625 358.36328125 194.8671875 243.146484375 169.704101562 136.407226562 c 0
 164.37109375 113.356445312 154.134765625 74 154.134765625 63.2548828125 c 0
 154.134765625 55.0810546875 159.828125 43.0751953125 172.982421875 43.0751953125 c 0
 194.130859375 43.0751953125 216.060546875 52.447265625 230.094726562 69.150390625 c 1
 240.431640625 58.7294921875 l 1
 218.124023438 18.6171875 176.99609375 -9.875 103.78515625 -9.875 c 0
 59.30078125 -9.875 21.6845703125 15.63671875 21.6845703125 50.6923828125 c 0xb0
EndSplineSet
Validated: 1
EndChar

StartChar: z
Encoding: 122 122 25
GlifName: z
Width: 560
VWidth: 0
Flags: W
HStem: -9.93945 55.4814<271.479 470.658> 11.2451 65.0537<208.781 317.05> 426.436 59.4795<232.425 406.941> 451.265 51.085<141.476 316.235>
VStem: 63.8262 82.6855<386.198 442.523> 466.185 80.0273<56.4954 114.28>
LayerCount: 2
Fore
SplineSet
63.826171875 422.905273438 m 0x1c
 63.826171875 459.565429688 120.17578125 502.349609375 219.158203125 502.349609375 c 0x1c
 295.129882812 502.349609375 304.241210938 485.915039062 380.450195312 485.915039062 c 0
 433.432617188 485.915039062 538.984375 502.540039062 558.89453125 502.540039062 c 0
 570.021484375 502.540039062 575.028320312 498.916015625 575.028320312 497 c 0
 575.028320312 485.89453125 562.36328125 475.7109375 555.512695312 467.6875 c 0
 534.013671875 442.509765625 442.419921875 334.583007812 364.279296875 244.919921875 c 0
 311.610351562 184.485351562 241.036132812 115.495117188 208.78125 76.298828125 c 1x6c
 275.020507812 75.6201171875 314.524414062 45.5419921875 380.09375 45.5419921875 c 0
 397.473632812 45.5419921875 449.013671875 50.7626953125 472.422851562 56.12890625 c 1
 467.83984375 63.994140625 466.184570312 68.8388671875 466.184570312 76.8544921875 c 0
 466.184570312 97.390625 482.254882812 119.57421875 505.529296875 119.57421875 c 0
 528.177734375 119.57421875 546.211914062 99.9677734375 546.211914062 75.501953125 c 0
 546.211914062 2.0361328125 447.21484375 -9.939453125 368.572265625 -9.939453125 c 0x8c
 289.640625 -9.939453125 214.916015625 11.2451171875 141.0546875 11.2451171875 c 0
 99.94140625 11.2451171875 40.060546875 -9.607421875 17.306640625 -9.607421875 c 0
 9.951171875 -9.607421875 2.7998046875 -3.9609375 2.7998046875 4.888671875 c 0
 2.7998046875 10.318359375 5.5703125 14.0966796875 7.1455078125 16.0771484375 c 0
 49.8720703125 69.7958984375 156.330078125 178.38671875 234.592773438 264.540039062 c 0
 292.681640625 328.485351562 350.255859375 388.987304688 380.62109375 428.336914062 c 1
 369.814453125 426.890625 361.720703125 426.435546875 352.4609375 426.435546875 c 0x6c
 291.556640625 426.435546875 264.771484375 451.264648438 188.233398438 451.264648438 c 0
 168.30078125 451.264648438 151.53515625 448.544921875 139.762695312 442.90625 c 1
 144.43359375 434.669921875 146.51171875 430.740234375 146.51171875 423.784179688 c 0
 146.51171875 403.830078125 130.65234375 380.481445312 103.478515625 380.481445312 c 0
 76.7373046875 380.481445312 63.826171875 405.260742188 63.826171875 422.905273438 c 0x1c
EndSplineSet
Validated: 1
EndChar

StartChar: l
Encoding: 108 108 26
GlifName: l
Width: 326
VWidth: 0
Flags: W
HStem: -10.0137 53.7861<101.512 207.154> 753.851 20G<331.36 335.696>
VStem: 37.3105 143.449<44.1926 154.144> 183.105 160.851<670.069 765.46>
LayerCount: 2
Fore
SplineSet
37.310546875 48.34375 m 0
 37.310546875 74.0615234375 46.111328125 106.390625 55.4453125 145.969726562 c 2
 179.18359375 677.592773438 l 1
 180.474609375 683.1875 183.10546875 696.09765625 183.10546875 700.06640625 c 0
 183.10546875 708.6875 179.469726562 713.013671875 175.46875 715.489257812 c 0
 171.250976562 718.098632812 158.877929688 718.900390625 154.5 718.900390625 c 0
 145.701171875 718.900390625 l 1
 154.782226562 745.254882812 l 1
 325.849609375 772.62890625 l 0
 327.994140625 773.181640625 329.969726562 773.850585938 332.75 773.850585938 c 0
 338.641601562 773.850585938 343.956054688 768.831054688 343.956054688 762.08984375 c 0
 343.956054688 758.016601562 343.03125 753.453125 341.619140625 747.419921875 c 1
 195.33984375 134.869140625 l 1
 190.141601562 112.010742188 180.759765625 70.9296875 180.759765625 60.51171875 c 0
 180.759765625 46.61328125 195.264648438 43.7724609375 206.767578125 43.7724609375 c 0
 223.176757812 43.7724609375 243.780273438 57.3916015625 258.484375 68.4208984375 c 1
 267.07421875 58.9345703125 l 1
 250.767578125 29.978515625 182.375976562 -10.013671875 120.729492188 -10.013671875 c 0
 82.2939453125 -10.013671875 37.310546875 6.1435546875 37.310546875 48.34375 c 0
EndSplineSet
Validated: 1
EndChar

StartChar: r
Encoding: 114 114 27
GlifName: r
Width: 527
VWidth: 0
Flags: W
HStem: -0.200195 21G<41.5 183.818> 412.138 89.8418<341.065 452.569> 452.95 59.25<118.537 225.376>
LayerCount: 2
Fore
SplineSet
41.5 -0.2001953125 m 1xc0
 129.7421875 371.736328125 l 2
 136.060546875 398.3671875 148.96484375 430.637695312 149.20703125 439.768554688 c 1
 149.20703125 446.544921875 141.109375 452.950195312 135.451171875 452.950195312 c 0
 118.557617188 452.950195312 105.142578125 448.78125 83.9443359375 431.388671875 c 9
 66.9580078125 449.791992188 l 1
 85.232421875 482.154296875 154.231445312 512.200195312 205.205078125 512.200195312 c 0xa0
 245.546875 512.200195312 288.232421875 501.033203125 288.232421875 472.702148438 c 4
 288.232421875 462.627929688 286.504882812 452.734375 285.908203125 445.923828125 c 5
 323.504882812 473.274414062 371.508789062 501.979492188 423.901367188 501.979492188 c 4
 431.583984375 501.979492188 494.856445312 491.069335938 494.856445312 454.724609375 c 4
 494.856445312 417.756835938 444.609375 390.895507812 421.901367188 390.895507812 c 4
 393.267578125 390.895507812 368.197265625 412.137695312 347.359375 412.137695312 c 4
 323.348632812 412.137695312 280.134765625 385.041992188 266.71484375 365.08984375 c 5
 179.016601562 -0.2001953125 l 5
 41.5 -0.2001953125 l 1xc0
EndSplineSet
Validated: 1
EndChar

StartChar: k
Encoding: 107 107 28
GlifName: k
Width: 579
VWidth: 0
Flags: W
HStem: -9.9248 49.3496<435.535 533.309> 0.724609 21G<0.429688 144.561> 450.626 71.3594<428.627 473.544> 753.85 20G<305.882 311.55>
VStem: 163.198 156.278<664.045 765.52>
LayerCount: 2
Fore
SplineSet
133.826171875 745.174804688 m 1x78
 289.814453125 769.4453125 l 2
 293.661132812 770.65234375 303.7890625 773.849609375 307.974609375 773.849609375 c 0
 315.125 773.849609375 319.4765625 768.454101562 319.4765625 762.584960938 c 0
 319.4765625 759.196289062 318.783203125 750.747070312 317.975585938 747.43359375 c 0
 227.833984375 361.905273438 l 1
 227.3515625 359.63671875 227.116210938 357.396484375 227.116210938 355.762695312 c 0
 227.116210938 347.03125 232.065429688 346.34375 239.201171875 346.224609375 c 1
 250.754882812 349.584960938 297.768554688 389.951171875 335.35546875 424.017578125 c 0
 357.02734375 443.661132812 369.8125 454.358398438 387.278320312 469.197265625 c 0
 422.952148438 500.57421875 459.866210938 521.985351562 480.831054688 521.985351562 c 0
 517.493164062 521.985351562 546.578125 495.091796875 546.578125 469.62890625 c 0
 546.578125 444.950195312 520.700195312 422.106445312 495.63671875 422.106445312 c 0
 481.424804688 422.106445312 469.364257812 429.71484375 461.517578125 440.296875 c 0
 456.44140625 447.14453125 453.741210938 450.533203125 453.545898438 450.625976562 c 1
 452.134765625 450.625976562 442.9453125 444.26953125 430.1328125 432.747070312 c 1
 392.383789062 399.89453125 l 1
 374.748046875 383.155273438 346.319335938 360.065429688 323 337 c 1
 327.401367188 318.619140625 374.705078125 244.208984375 399.479492188 197.758789062 c 0
 426.091796875 147.864257812 459.774414062 85.8876953125 467.836914062 70.72265625 c 0
 472.627929688 61.7109375 484.201171875 39.4248046875 502.243164062 39.4248046875 c 0
 520.323242188 39.4248046875 538.458984375 46.884765625 556.0703125 63.095703125 c 1
 571.66015625 51.609375 l 1
 551.991210938 18.6572265625 510.931640625 -9.9248046875 462.748046875 -9.9248046875 c 0xb8
 408.321289062 -9.9248046875 370.46484375 8.9736328125 350.873046875 40.892578125 c 0
 341.765625 55.728515625 319.328125 97.685546875 275.787109375 182.928710938 c 0
 234.997070312 262.7890625 231.478515625 288.775390625 217.794921875 288.775390625 c 0
 213.897460938 288.775390625 210.161132812 287.797851562 207.673828125 286.424804688 c 1
 139.810546875 0.724609375 l 1
 0.4296875 0.724609375 l 1
 157.935546875 675.534179688 l 1
 159.385742188 682.022460938 163.198242188 694.999023438 163.198242188 699.533203125 c 3
 163.198242188 707.684570312 160.651367188 711.4140625 156.1015625 714.518554688 c 0
 151 718 140.708984375 718.899414062 136.731445312 718.899414062 c 0
 127.384765625 718.899414062 l 1
 133.826171875 745.174804688 l 1x78
EndSplineSet
Validated: 1
EndChar

StartChar: e
Encoding: 101 101 29
GlifName: e
Width: 572
VWidth: 0
Flags: W
HStem: -10.4502 57.6504<236.679 394.361> 470.866 41.584<282.389 382.768>
VStem: 26.6162 153.767<105.903 219.446> 395.336 145.28<360.99 459.102>
LayerCount: 2
Fore
SplineSet
540.616210938 417.643554688 m 0
 540.616210938 247.020507812 268.217773438 240.301757812 183.850585938 221.783203125 c 1
 181.53515625 207.758789062 180.3828125 187.096679688 180.3828125 173.983398438 c 0
 180.3828125 115.862304688 231.287109375 47.2001953125 295.990234375 47.2001953125 c 0
 347.364257812 47.2001953125 407.451171875 64.8388671875 464.930664062 103.958007812 c 1
 467.66015625 96.853515625 480.844726562 83.2421875 480.844726562 74.4853515625 c 0
 480.844726562 72.1357421875 480.268554688 70.1923828125 478.813476562 68.958984375 c 0
 415.780273438 15.5322265625 382.147460938 -10.4501953125 258.815429688 -10.4501953125 c 0
 146.471679688 -10.4501953125 26.6162109375 48.7646484375 26.6162109375 165.73046875 c 0
 26.6162109375 396.784179688 174.237304688 512.450195312 360.999023438 512.450195312 c 0
 456.09375 512.450195312 540.616210938 486.993164062 540.616210938 417.643554688 c 0
331.798828125 470.866210938 m 0
 276.678710938 470.866210938 204.985351562 395.892578125 178.658203125 274.61328125 c 1
 266.739257812 292.836914062 395.3359375 338.1875 395.3359375 409.684570312 c 0
 395.3359375 449.35546875 372.000976562 470.866210938 331.798828125 470.866210938 c 0
EndSplineSet
Validated: 1
EndChar

StartChar: c
Encoding: 99 99 30
GlifName: c
Width: 542
VWidth: 0
Flags: W
HStem: -10.4248 58.0996<231.592 371.974> 474.325 37.0996<305.673 387.679>
VStem: 23.6279 152.743<111.133 297.8>
LayerCount: 2
Fore
SplineSet
363.125976562 511.424804688 m 0
 426.291992188 511.424804688 485.956054688 490.00390625 524.177734375 417.225585938 c 0
 525.798828125 414.137695312 527.709960938 410.9765625 527.709960938 406.657226562 c 0
 527.709960938 381.821289062 479.676757812 360.875 463.047851562 360.875 c 0
 394.81640625 360.875 419.072265625 474.325195312 353.639648438 474.325195312 c 0
 280.337890625 474.325195312 176.37109375 332.743164062 176.37109375 195.65625 c 0
 176.37109375 122.196289062 220.448242188 47.6748046875 289.961914062 47.6748046875 c 0
 331.373046875 47.6748046875 392.600585938 63.650390625 440.69140625 101.138671875 c 1
 457.208007812 72.3486328125 l 1
 390.063476562 11.693359375 349.00390625 -10.4248046875 248.379882812 -10.4248046875 c 0
 137.469726562 -10.4248046875 23.6279296875 38.0185546875 23.6279296875 174.26953125 c 0
 23.6279296875 381.377929688 183.362304688 511.424804688 363.125976562 511.424804688 c 0
EndSplineSet
Validated: 1
EndChar

StartChar: a
Encoding: 97 97 31
GlifName: a
Width: 625
VWidth: 0
Flags: W
HStem: -10.4248 58.5<218.288 315.728> -7.27539 21G<400.522 436.372> 471.375 40.0498<300.47 401.757> 483.09 20G<568.714 577.46>
VStem: 34.2217 145.355<90.4299 300.629>
LayerCount: 2
Fore
SplineSet
507.255859375 52.537109375 m 1x18
 507.255859375 21.8349609375 l 1
 482.203125 5.6533203125 450.296875 -7.275390625 422.446289062 -7.275390625 c 0x58
 378.598632812 -7.275390625 348.05078125 11.8076171875 345.30078125 28.58984375 c 1
 306.704101562 3.9091796875 275.325195312 -10.4248046875 225.9453125 -10.4248046875 c 0
 100.49609375 -10.4248046875 34.2216796875 52.966796875 34.2216796875 166.870117188 c 4
 34.2216796875 377.188476562 165.98046875 511.424804688 350.352539062 511.424804688 c 0xa8
 389.702148438 511.424804688 425.243164062 503.09765625 454.61328125 474.8515625 c 1
 456.954101562 485.383789062 l 1
 461.647460938 486.13671875 l 2
 489.358398438 490.581054688 555.346679688 496.211914062 582.081054688 503.08984375 c 1
 479.826171875 60.4814453125 l 0
 476.041992188 44.5205078125 l 1
 486.26171875 47.068359375 496.9296875 49.796875 507.255859375 52.537109375 c 1x18
352 83 m 1
 419 362 l 1
 419.373046875 368.484375 424.5390625 387.395507812 424.5390625 393.235351562 c 0
 424.5390625 439.094726562 395.390625 471.375 352.947265625 471.375 c 0
 266.62109375 471.375 179.577148438 319.806640625 179.577148438 169.764648438 c 0
 179.577148438 131.276367188 201.372070312 48.0751953125 263.381835938 48.0751953125 c 0xa8
 308.192382812 48.0751953125 345.254882812 69.7080078125 352 83 c 1
EndSplineSet
Validated: 1
EndChar

StartChar: i
Encoding: 105 105 32
GlifName: i
Width: 336
VWidth: 0
Flags: W
HStem: -9.22461 53.3496<99.0889 212.619> 462.825 50.25<102.583 211.651> 580 147.9<179.818 258.107>
VStem: 42 139.671<44.6319 158.852> 131.897 138.977<364.768 488.434> 147.5 143.531<613.335 695.718>
LayerCount: 2
Fore
SplineSet
234.599609375 727.900390625 m 0xe4
 268.326171875 727.900390625 291.03125 701.553710938 291.03125 668.692382812 c 0
 291.03125 618.291015625 245.05859375 580 204 580 c 0
 169.446289062 580 147.5 606.106445312 147.5 638.639648438 c 0
 147.5 689.166992188 191.953125 727.900390625 234.599609375 727.900390625 c 0xe4
270.874023438 474.575195312 m 1xe8
 270.874023438 447.422851562 255.903320312 394.032226562 246.709960938 354.940429688 c 2
 194.556640625 133.36328125 l 0
 188.412109375 108.681640625 181.670898438 75.16796875 181.670898438 61.537109375 c 0
 181.670898438 53.3896484375 186.98046875 44.125 195.846679688 44.125 c 0
 212.311523438 44.125 234.903320312 52.228515625 255.724609375 67.845703125 c 1
 266.3125 58.359375 l 1
 244.612304688 19.783203125 179.697265625 -9.224609375 121.001953125 -9.224609375 c 0
 77.17578125 -9.224609375 42 15.310546875 42 48.189453125 c 0xf0
 42 69.650390625 49.8779296875 104.639648438 60.16015625 143.9453125 c 0
 108.484375 350.796875 l 1
 113.776367188 375.711914062 131.663085938 442.875 131.897460938 452.654296875 c 1
 131.897460938 459.403320312 126.799804688 462.825195312 121.141601562 462.825195312 c 0
 102.993164062 462.825195312 89.4931640625 455.455078125 72.2158203125 438.817382812 c 1
 58.294921875 449.497070312 l 1
 81.7685546875 486.53515625 125.239257812 513.075195312 193.041015625 513.075195312 c 0
 230.26171875 513.075195312 270.678710938 502.29296875 270.874023438 474.575195312 c 1xe8
EndSplineSet
Validated: 1
EndChar

StartChar: period
Encoding: 46 46 33
GlifName: period
Width: 212
VWidth: 0
Flags: W
HStem: -18 116<53.4167 124.73>
VStem: 33 112.573<3.13898 77.5819>
LayerCount: 2
Fore
SplineSet
101.313476562 98 m 0
 127.765676349 98 145.573242188 77.3360224183 145.573242188 51.5625 c 0
 145.573242188 12.0323881482 109.517249705 -18 77.3134765625 -18 c 0
 50.2136563003 -18 33 2.47535386892 33 27.9921875 c 0
 33 67.6212828652 67.8646279766 98 101.313476562 98 c 0
EndSplineSet
Validated: 1
EndChar

StartChar: comma
Encoding: 44 44 34
GlifName: comma
Width: 170
VWidth: 0
Flags: W
HStem: -86 26<-7.25914 24.7019>
VStem: 45.2598 93.0498<-24.3086 71.7804>
LayerCount: 2
Fore
SplineSet
93 98 m 0
 121.061787138 98 138.309570312 76.0868374636 138.309570312 51.943359375 c 0
 138.309570312 -30.6464298108 71.2245974935 -86 17 -86 c 0
 3.15033771014 -86 -4.15397500831 -81.7987180503 -5.99438256119 -80.7948593851 c 1
 -7.27921785403 -80.0940401344 l 1
 -17.3262379212 -60 l 1
 -6 -60 l 0
 8.0722045076 -60 45.259765625 -41.2989521176 45.259765625 -23.900390625 c 0
 45.259765625 -21.2115142793 43.9464475704 -17.9750205247 42.1993719516 -14.935237114 c 1
 32.2250330412 -2.21059497005 20.41015625 4.8390132747 20.41015625 24.8505859375 c 0
 20.41015625 65.4930102274 58.77092395 98 93 98 c 0
EndSplineSet
Validated: 1
EndChar

StartChar: D
Encoding: 68 68 35
GlifName: D_
Width: 867
VWidth: 0
Flags: W
HStem: -3 47<273.079 452.248> 0 30<65.9004 112.619> 682 48<414.152 569.946> 700 30<227.9 246.209>
VStem: 668.703 156.287<316.724 577.218>
LayerCount: 2
Fore
SplineSet
215.291015625 700 m 1x58
 214.900390625 700 214.100585938 702.6875 214.100585938 706.434570312 c 0
 214.100585938 709.340820312 214.58203125 712.884765625 216.291992188 716.3046875 c 0
 220.291992188 724.3046875 227.900390625 730 227.900390625 730 c 1
 401.358398438 730 l 0
 451.666992188 730 482.0703125 731 531.546875 731 c 0
 698.759765625 731 824.990234375 641.958007812 824.990234375 467.926757812 c 0
 824.990234375 170.607421875 634.869140625 -3 367.412109375 -3 c 0
 359.182617188 -3 l 0x98
 347.892578125 -3 326.303710938 -2.0537109375 324.9921875 -1.99609375 c 1
 321.638671875 -1.9248046875 231.07421875 0 215.166015625 0 c 0
 52.900390625 0 l 1
 52.900390625 0 52.1005859375 2.6875 52.1005859375 6.4345703125 c 0
 52.1005859375 9.3408203125 52.58203125 12.884765625 54.2919921875 16.3046875 c 0
 58.2919921875 24.3046875 65.900390625 30 65.900390625 30 c 1
 69.9658203125 30 l 0
 78.0859375 30 85.072265625 30.9921875 92.39453125 32.78515625 c 1
 108.79296875 36.1669921875 115.696289062 46.6171875 118.15625 57.056640625 c 1
 147.180664062 172.741210938 167 268 198.897460938 402.796875 c 24
 224 509 236.39453125 574.759765625 257 666 c 1
 257.466796875 667.926757812 258.669921875 675.614257812 258.669921875 677.3125 c 0
 258.669921875 687.58203125 255.868164062 695.674804688 246.49609375 698.223632812 c 0
 240.384765625 699.885742188 234 700 225.513671875 700 c 2
 215.291015625 700 l 1x58
414.125976562 675.872070312 m 1
 411.055664062 660.779296875 l 1
 361.592773438 454.930664062 273.873046875 55.30859375 273.873046875 55.30859375 c 1
 273.16015625 51.693359375 272.751953125 48.42578125 272.751953125 46.5869140625 c 0
 272.751953125 44.8671875 273.071289062 44.12890625 273.071289062 44.126953125 c 1
 273.208007812 44.037109375 275.409179688 43.30859375 278.356445312 43.0029296875 c 1
 324.361328125 44 l 1
 342.923828125 44 l 0
 565.946289062 44 668.703125 260.383789062 668.703125 480.3828125 c 0
 668.703125 626.278320312 581.013671875 682 463.255859375 682 c 0
 421.444335938 682 l 0xa8
 418.2578125 682 414.63671875 678.787109375 414.125976562 675.872070312 c 1
EndSplineSet
Validated: 1
EndChar

StartChar: N
Encoding: 78 78 36
GlifName: N_
Width: 844
VWidth: 0
Flags: W
HStem: -9 21G<632.969 642.823> 0 30<7.5 33.0339 180.051 196.9> 700 30<176.5 193.778 709.5 726.788 856.891 883.9>
LayerCount: 2
Fore
SplineSet
696.900390625 700 m 1x60
 696.900390625 700 696.100585938 702.6875 696.100585938 706.434570312 c 0
 696.100585938 709.340820312 696.58203125 712.884765625 698.291992188 716.3046875 c 0
 702.291992188 724.3046875 709.5 730 709.5 730 c 1
 897.400390625 730 l 1
 897.400390625 730 899.239257812 726.947265625 899.239257812 724.005859375 c 0
 899.239257812 720.961914062 898.85546875 717.963867188 897.291992188 714.3046875 c 0
 893.935546875 706.447265625 883.900390625 700 883.900390625 700 c 1
 879.965820312 700 l 0
 872.034179688 700 863.431640625 699.266601562 856.568359375 697.221679688 c 0
 841.708984375 692.794921875 831.9921875 676.876953125 828.723632812 665.663085938 c 1
 804.809570312 573.8515625 782.383789062 490.869140625 758.78515625 398.501953125 c 0
 725.478515625 268.13671875 690.53125 136.99609375 657.563476562 5.68359375 c 0
 655.178710938 -3.814453125 646.52734375 -9 639.118164062 -9 c 0xa0
 626.8203125 -9 622.53515625 3.46484375 622.53515625 3.46484375 c 1
 497.467773438 207.393554688 408.029296875 343.072265625 284.81640625 545.537109375 c 1
 272.966796875 494.833007812 249.516601562 400.055664062 237.782226562 350.41015625 c 1
 196.79296875 170.456054688 l 1
 188.817382812 134.564453125 178.688476562 98.8876953125 170.879882812 63.845703125 c 1
 170.787109375 63.001953125 169.547851562 56.357421875 169.547851562 53.662109375 c 0
 169.547851562 46.646484375 170.521484375 35.326171875 179.776367188 32.7626953125 c 0
 185.595703125 31.150390625 193.90625 30 201.965820312 30 c 0
 210.930664062 30 l 1
 210.930664062 30 212.239257812 26.947265625 212.239257812 24.005859375 c 0
 212.239257812 20.9619140625 211.85546875 17.9638671875 210.291992188 14.3046875 c 0
 206.935546875 6.447265625 196.900390625 0 196.900390625 0 c 1
 -5 0 l 1
 -5 0 -5.8994140625 2.6875 -5.8994140625 6.4345703125 c 0
 -5.8994140625 9.3408203125 -5.41796875 12.884765625 -3.7080078125 16.3046875 c 0
 0.2919921875 24.3046875 7.5 30 7.5 30 c 1
 10.9658203125 30 l 0
 19.0859375 30 25.6845703125 30.703125 33.39453125 32.78515625 c 0
 49 37 60.63671875 58.3037109375 64.1513671875 69.974609375 c 1
 64.1513671875 69.974609375 113.826171875 267.271484375 144.140625 399.83203125 c 0
 168.715820312 507.296875 202.08984375 663.870117188 202.08984375 663.870117188 c 1
 202.08984375 663.870117188 204.877929688 675.6328125 204.877929688 677.350585938 c 0
 204.877929688 686.392578125 202.625 689.377929688 194.041992188 695.3046875 c 0
 188.459960938 699.159179688 179.984375 700 171.965820312 700 c 0
 163.900390625 700 l 1
 163.900390625 700 163.100585938 702.6875 163.100585938 706.434570312 c 0
 163.100585938 709.340820312 163.58203125 712.884765625 165.291992188 716.3046875 c 0
 169.291992188 724.3046875 176.5 730 176.5 730 c 1
 316.932617188 730 l 1
 619.345703125 247.48046875 l 1
 737.090820312 666.33984375 l 1
 737.090820312 666.33984375 738.78515625 673.807617188 738.78515625 675.30859375 c 0
 738.78515625 682.943359375 737.638671875 691.533203125 727.041992188 696.26953125 c 0
 721.6640625 698.672851562 713.984375 700 705.965820312 700 c 0
 696.900390625 700 l 1x60
EndSplineSet
Validated: 1
EndChar

StartChar: L
Encoding: 76 76 37
GlifName: L_
Width: 613
VWidth: 0
Flags: W
HStem: 0 35<11.5 36.1149 212.615 453.934> 700 30<177.5 195.981 379.471 408.9>
LayerCount: 2
Fore
SplineSet
-1 0 m 1
 -1 0 -1.8994140625 2.6875 -1.8994140625 6.4345703125 c 0
 -1.8994140625 9.3408203125 -1.41796875 12.884765625 0.2919921875 16.3046875 c 0
 4.2919921875 24.3046875 11.5 30 11.5 30 c 1
 21.9765625 30.966796875 27.0439453125 30.3662109375 36.5576171875 32.232421875 c 0
 52.6494140625 35.5537109375 61.701171875 56.0654296875 64.15625 66.4921875 c 1
 93.171875 182.241210938 119.682617188 287.834960938 146.829101562 403.47265625 c 0
 168.506835938 495.814453125 186.1171875 575.736328125 206.1328125 666.982421875 c 1
 206.586914062 668.912109375 207.78515625 675.602539062 207.78515625 677.299804688 c 0
 207.78515625 684.688476562 206.202148438 691.775390625 196.245117188 696.25 c 0
 190.623046875 698.776367188 184.850585938 700 176.965820312 700 c 0
 164.900390625 700 l 1
 164.900390625 700 164.100585938 702.6875 164.100585938 706.434570312 c 0
 164.100585938 709.340820312 164.58203125 712.884765625 166.291992188 716.3046875 c 0
 170.291992188 724.3046875 177.5 730 177.5 730 c 1
 422.930664062 730 l 1
 422.930664062 730 424.239257812 726.947265625 424.239257812 724.005859375 c 0
 424.239257812 720.961914062 423.85546875 717.963867188 422.291992188 714.3046875 c 0
 418.935546875 706.447265625 408.900390625 700 408.900390625 700 c 1
 405.965820312 700 l 2
 394 700 386.677734375 699.326171875 379.116210938 696.395507812 c 0
 366.098632812 691.350585938 356.126953125 673.909179688 353.775390625 663.931640625 c 1
 328.749023438 571.76171875 312.869140625 490.75 291.783203125 398.756835938 c 0
 265.680664062 284.87890625 241.844726562 184.672851562 216.235351562 70.9912109375 c 1
 215.79296875 69.294921875 212.602539062 54.7763671875 212.602539062 53.2099609375 c 0
 212.602539062 45.517578125 216.955078125 39.1142578125 228.645507812 37.8935546875 c 0
 248.518554688 35.9345703125 257.861328125 35 278.538085938 35 c 0
 341.3671875 35 387.498046875 36.0634765625 432.635742188 45.80078125 c 1
 493.107421875 60.2509765625 523.080078125 100.024414062 548.54296875 158.783203125 c 0
 550.248046875 162.71875 l 1
 577.057617188 164.64453125 l 1
 520.931640625 0 l 1
 -1 0 l 1
EndSplineSet
Validated: 1
EndChar

StartChar: M
Encoding: 77 77 38
GlifName: M_
Width: 890
VWidth: 0
Flags: W
HStem: 0 30<3.5 32.3445 165.455 182.9 542.5 568.411 753.38 768.821> 700 30<172.5 201.176 906.18 934.9>
LayerCount: 2
Fore
SplineSet
948.791015625 730 m 1
 948.791015625 730 950.239257812 726.947265625 950.239257812 724.005859375 c 0
 950.239257812 720.961914062 949.85546875 717.963867188 948.291992188 714.3046875 c 0
 944.935546875 706.447265625 934.900390625 700 934.900390625 700 c 1
 930.356445312 700 l 0
 922.379882812 700 914.267578125 698.004882812 905.782226562 696.1796875 c 0
 891 693 882.576171875 678.1015625 879.169921875 664.920898438 c 0
 863.501953125 604.291992188 859 564 842.1796875 492.768554688 c 24
 803 321 779.169921875 214.875976562 743.23828125 69.24609375 c 1
 743.23828125 69.24609375 741.611328125 57.33203125 741.611328125 55.3115234375 c 0
 741.611328125 48.341796875 742.73046875 37.7734375 753.053710938 33.75390625 c 0
 759.981445312 31.056640625 769.336914062 30 777.356445312 30 c 0
 782.930664062 30 l 1
 782.930664062 30 784.239257812 26.947265625 784.239257812 24.005859375 c 0
 784.239257812 20.9619140625 783.85546875 17.9638671875 782.291992188 14.3046875 c 0
 778.935546875 6.447265625 768.821289062 0 768.821289062 0 c 1
 530.390625 0 l 1
 530.390625 0 529.100585938 2.6875 529.100585938 6.4345703125 c 0
 529.100585938 9.3408203125 529.58203125 12.884765625 531.291992188 16.3046875 c 0
 535.291992188 24.3046875 542.5 30 542.5 30 c 1
 545.356445312 30 l 0
 553.4765625 30 560.797851562 30.4765625 568.78515625 32.8232421875 c 0
 583 37 596.083984375 56.9521484375 598.549804688 67.6357421875 c 1
 614.552734375 131.6484375 627.755859375 185.66796875 643.541015625 249.598632812 c 0
 663.547851562 330.627929688 673.026367188 364.9140625 692.665039062 446.93359375 c 1
 700.06640625 477.017578125 705.453125 508.813476562 711.828125 536.376953125 c 1
 430.172851562 149.015625 l 1
 427.021484375 144.463867188 413.374023438 127 400.541015625 127 c 0
 389.709960938 127 374.608398438 141.337890625 373.038085938 149.571289062 c 0
 373.038085938 149.571289062 294.087890625 449.831054688 270 555 c 1
 156.216796875 69.564453125 l 1
 155.733398438 66.5595703125 154.002929688 56.375 153.978515625 56.0947265625 c 1
 154.245117188 46.9267578125 154.715820312 39.51171875 165.166992188 33.7626953125 c 0
 171.266601562 30.4072265625 180.2421875 30 188.356445312 30 c 0
 196.610351562 30 l 1
 196.610351562 30 198.239257812 26.947265625 198.239257812 24.005859375 c 0
 198.239257812 20.9619140625 197.85546875 17.9638671875 196.291992188 14.3046875 c 0
 192.935546875 6.447265625 182.900390625 0 182.900390625 0 c 1
 -8.609375 0 l 1
 -8.609375 0 -9.8994140625 2.6875 -9.8994140625 6.4345703125 c 0
 -9.8994140625 9.3408203125 -9.41796875 12.884765625 -7.7080078125 16.3046875 c 0
 -3.7080078125 24.3046875 3.5 30 3.5 30 c 1
 7.3564453125 30 l 0
 15.4765625 30 23.3603515625 30.4921875 32.78515625 32.78515625 c 0
 46 36 57.1181640625 58.12890625 59.62890625 70.306640625 c 1
 114.54296875 273.736328125 149.583984375 456.649414062 199.573242188 663.288085938 c 1
 200.404296875 666.434570312 202.181640625 676.478515625 202.181640625 677.596679688 c 0
 202.181640625 696.055664062 188 700 168.356445312 700 c 2
 159.900390625 700 l 1
 159.900390625 700 159.100585938 702.6875 159.100585938 706.434570312 c 0
 159.100585938 709.340820312 159.58203125 712.884765625 161.291992188 716.3046875 c 0
 165.291992188 724.3046875 172.5 730 172.5 730 c 1
 353.95703125 730 l 1
 456.466796875 332.084960938 l 1
 747.692382812 730 l 1
 948.791015625 730 l 1
EndSplineSet
Validated: 1
EndChar

StartChar: slash
Encoding: 47 47 39
GlifName: slash
Width: 612
VWidth: 0
Flags: W
LayerCount: 2
Fore
SplineSet
31.16796875 -112.333984375 m 2
 198.046875 180.491210938 327.111328125 428.126953125 459.365234375 697.880859375 c 0
 460.159179688 699.5 l 1
 461.635742188 700.534179688 l 0
 483.220703125 715.643554688 521.046875 722.799804688 535 722.799804688 c 0
 548.04296875 722.799804688 578.552734375 714.983398438 578.552734375 701.264648438 c 0
 578.552734375 698.67578125 578.2109375 696.000976562 577.5703125 693.225585938 c 0
 577.344726562 692.247070312 l 1
 576.852539062 691.37109375 l 0
 430.549804688 430.930664062 171.600585938 -69.10546875 166.6484375 -78.6708984375 c 1
 146.598632812 -133.38671875 73.0029296875 -110.087890625 39.669921875 -122.368164062 c 0
 21.6708984375 -129 l 1
 31.16796875 -112.333984375 l 2
EndSplineSet
Validated: 1
EndChar

StartChar: S
Encoding: 83 83 40
GlifName: S_
Width: 598
VWidth: 0
Flags: W
HStem: -10 50<177.3 309.671> 696 46<351.448 466.875>
VStem: 11.0117 97.8496<88.4114 171.022> 131.27 154.569<507.014 613.765> 383.903 152.317<147.491 264.878>
LayerCount: 2
Fore
SplineSet
108.861328125 181.626953125 m 0
 108.861328125 139.073242188 156.295898438 40 233.638671875 40 c 0
 332.51953125 40 383.903320312 127.685546875 383.903320312 200.548828125 c 0
 383.903320312 252.198242188 331.8984375 317.314453125 271.63671875 365.1640625 c 0
 208.815429688 415.045898438 131.26953125 453.823242188 131.26953125 535.592773438 c 0
 131.26953125 655.251953125 261.555664062 742 426.1875 742 c 0
 514.705078125 742 591.034179688 715.724609375 591.034179688 688.426757812 c 0
 591.034179688 687.435546875 591.170898438 686.548828125 590.71875 684.508789062 c 1
 587.732421875 670.576171875 557.025390625 593 538.87890625 593 c 0
 510.227539062 593 487.413085938 696 413.212890625 696 c 0
 345.538085938 696 285.838867188 624.690429688 285.838867188 558.649414062 c 0
 285.838867188 507.936523438 338.014648438 479.572265625 392.76953125 435.62890625 c 0
 466.069335938 376.801757812 536.220703125 320.463867188 536.220703125 243.133789062 c 0
 536.220703125 140.840820312 472.83984375 75.7861328125 416.64453125 37.41015625 c 0
 371.69921875 6.53125 299.526367188 -10 212.106445312 -10 c 0
 62.0791015625 -10 11.01171875 61.662109375 11.01171875 109.758789062 c 0
 11.01171875 113.158203125 11.333984375 116.357421875 12.0595703125 119.579101562 c 1
 17.6240234375 142.94921875 75.1435546875 211 97.87890625 211 c 0
 98.1416015625 211 110.075195312 210.844726562 110.075195312 201.40234375 c 0
 110.075195312 199.831054688 110.015625 200.181640625 109.65234375 197.564453125 c 1
 109.28125 194.149414062 108.861328125 187.104492188 108.861328125 181.626953125 c 0
EndSplineSet
Validated: 1
EndChar

StartChar: T
Encoding: 84 84 41
GlifName: T_
Width: 693
VWidth: 0
Flags: W
HStem: 0 30<125.5 172.321 340.212 357.9> 695 35<173.789 316.478 478.097 655.771>
VStem: 81 27.7549<590 609.579> 660.271 52.9092<642.877 732.093>
LayerCount: 2
Fore
SplineSet
371.930664062 30 m 1
 371.930664062 30 373.239257812 26.947265625 373.239257812 24.005859375 c 0
 373.239257812 20.9619140625 372.85546875 17.9638671875 371.291992188 14.3046875 c 0
 367.935546875 6.447265625 357.900390625 0 357.900390625 0 c 1
 112.900390625 0 l 1
 112.900390625 0 112.100585938 2.6875 112.100585938 6.4345703125 c 0
 112.100585938 9.3408203125 112.58203125 12.884765625 114.291992188 16.3046875 c 0
 118.291992188 24.3046875 125.5 30 125.5 30 c 1
 130.051757812 30 l 2
 138 30 148.681640625 31.466796875 156.900390625 35.6044921875 c 0
 169.672851562 42.0341796875 176.888671875 46.083984375 179.243164062 56.076171875 c 1
 202.25 147.188476562 224.24609375 239.232421875 246.2265625 330.233398438 c 1
 322.3984375 663.880859375 l 1
 323.181640625 667.580078125 326.021484375 679 326.021484375 682.33203125 c 3
 326.021484375 690.067382812 320.772460938 693.365234375 316.708984375 694.131835938 c 1
 311.84765625 694.896484375 302.359375 695 288.965820312 695 c 0
 261.211914062 695 225.614257812 691.993164062 196.30078125 687.112304688 c 0
 155.763671875 679.390625 116 618 108.754882812 590 c 1
 81 590 l 1
 130.619140625 728.787109375 l 2
 132.998046875 733.571289062 137.548828125 736 142.051757812 736 c 0
 149.1875 736 161.857421875 734 168.154296875 734 c 1
 202.384765625 732.993164062 318.600585938 730 435.728515625 730 c 1
 539.462890625 731 579.227539062 731.993164062 663.926757812 735 c 1
 666.973632812 735 689.978515625 737 697.051757812 737 c 0
 699.971679688 737 713.1796875 735.201171875 713.1796875 727.971679688 c 0
 713.1796875 724.999023438 712.224609375 721.821289062 711.829101562 720.25 c 1
 678 590 l 1
 652.752929688 589.504882812 l 1
 654.28515625 597.915039062 660.270507812 622.366210938 660.270507812 645.0078125 c 0
 660.270507812 673.51953125 656.463867188 685.9453125 640.338867188 689.211914062 c 0
 617.165039062 693.90625 608.83203125 695 556.865234375 695 c 0
 540.561523438 695 517.904296875 694 499.984375 694 c 0
 481.446289062 694 474.620117188 671.23046875 471.8515625 659.90625 c 1
 442.767578125 545.204101562 422.922851562 461.9609375 393.3125 327.142578125 c 0
 370 221 359 176 332.883789062 68.9921875 c 0
 332.3671875 66.875 331.232421875 59.376953125 331.232421875 57.6806640625 c 0
 331.232421875 50.162109375 331.874023438 39.80078125 339.974609375 34.6953125 c 0
 344.951171875 31.55859375 355.032226562 30 363.051757812 30 c 0
 371.930664062 30 l 1
EndSplineSet
Validated: 1
EndChar

StartChar: Q
Encoding: 81 81 42
GlifName: Q_
Width: 830
VWidth: 0
Flags: W
HStem: -147 45<397.25 524.244> 684 49<408.856 571.502>
VStem: 40.1045 163.056<133.075 374.411> 242.638 127.079<-76.1877 -13.7071> 640.553 154.017<317.799 578.328>
LayerCount: 2
Fore
SplineSet
493.475585938 684 m 0
 286.571289062 684 203.16015625 375.0078125 203.16015625 220.567382812 c 0
 203.16015625 72.1767578125 288.154296875 30 345.188476562 30 c 0
 456.256835938 30 640.552734375 178.624023438 640.552734375 487.700195312 c 0
 640.552734375 591.044921875 604.65234375 684 493.475585938 684 c 0
40.1044921875 236.560546875 m 0
 40.1044921875 543.561523438 277.501953125 733 510.052734375 733 c 0
 662.0625 733 794.569335938 641.9453125 794.569335938 470.434570312 c 0
 794.569335938 172.004882812 581.537109375 4.3466796875 374.575195312 -14.455078125 c 1
 371.068359375 -22.8681640625 369.716796875 -29.6416015625 369.716796875 -36.5087890625 c 0
 369.716796875 -72.5732421875 405.999023438 -102 494.596679688 -102 c 0
 501.146484375 -102 509.471679688 -101 518.295898438 -101 c 0
 525.771484375 -101 l 1
 524.244140625 -142.5 l 1
 517.819335938 -142.979492188 l 0
 491.07421875 -144.975585938 467.216796875 -147 444.107421875 -147 c 0
 328.478515625 -147 242.637695312 -114.555664062 242.637695312 -36.1181640625 c 0
 242.637695312 -27.720703125 243.893554688 -17.8798828125 245.7734375 -9.2919921875 c 1
 161.657226562 9.8544921875 40.1044921875 76.3291015625 40.1044921875 236.560546875 c 0
EndSplineSet
Validated: 1
EndChar

StartChar: P
Encoding: 80 80 43
GlifName: P_
Width: 662
VWidth: 0
Flags: W
HStem: 0 30<24.5 49.5261 240.414 255.9> 267 61<315.534 431.767> 690 42<369.772 484.185> 700 30<193.5 212.019>
VStem: 537.987 141.574<457.097 636.545>
LayerCount: 2
Fore
SplineSet
180.900390625 700 m 1xd8
 180.900390625 700 180.100585938 702.6875 180.100585938 706.434570312 c 0
 180.100585938 709.340820312 180.58203125 712.884765625 182.291992188 716.3046875 c 0
 186.291992188 724.3046875 193.5 730 193.5 730 c 1
 219.56640625 730 l 0xd8
 281.74609375 730 383.235351562 732 444.69140625 732 c 0
 568.51171875 732 679.561523438 687.30859375 679.561523438 567.904296875 c 0
 679.561523438 369.966796875 504.546875 267 367.331054688 267 c 0
 355.46484375 267 343.801757812 267.030273438 333.361328125 269.03515625 c 0
 323.362304688 270.955078125 313.825195312 285.434570312 313.825195312 296.67578125 c 0
 313.825195312 310.155273438 324.768554688 328 339.279296875 328 c 0
 443.993164062 328 537.987304688 391.884765625 537.987304688 565.352539062 c 0
 537.987304688 639.185546875 486.009765625 690 411.172851562 690 c 0
 374.376953125 690 l 1xe8
 349.514648438 590.432617188 329.639648438 493.705078125 307.661132812 394.677734375 c 0
 282.41015625 280.905273438 258.634765625 176.669921875 230.640625 62.0146484375 c 1
 230.213867188 60.267578125 229.040039062 54.796875 229.040039062 53.3056640625 c 0
 229.040039062 47.8525390625 229.856445312 37.16015625 240.124023438 32.7255859375 c 0
 246.26953125 30.0712890625 254.737304688 30 263.137695312 30 c 0
 269.930664062 30 l 1
 269.930664062 30 271.239257812 26.947265625 271.239257812 24.005859375 c 0
 271.239257812 20.9619140625 270.85546875 17.9638671875 269.291992188 14.3046875 c 0
 265.935546875 6.447265625 255.900390625 0 255.900390625 0 c 1
 11.900390625 0 l 1
 11.900390625 0 11.1005859375 2.6875 11.1005859375 6.4345703125 c 0
 11.1005859375 9.3408203125 11.58203125 12.884765625 13.2919921875 16.3046875 c 0
 17.2919921875 24.3046875 24.5 30 24.5 30 c 1
 27.4345703125 30 l 0
 35.53125 30 42.6484375 30.0185546875 49.8642578125 31.78515625 c 1
 66.087890625 35.130859375 79.095703125 56.3203125 81.625 67.056640625 c 1
 110.631835938 182.669921875 130.752929688 267.2890625 161.567382812 401.788085938 c 0
 185.086914062 504.4453125 218.845703125 654.220703125 218.845703125 654.220703125 c 1
 219.650390625 657.82421875 223.196289062 673.216796875 223.196289062 677.049804688 c 0
 223.196289062 687.232421875 220.211914062 692.322265625 212.221679688 697.345703125 c 0
 208 700 197.784179688 700 189.514648438 700 c 0
 180.900390625 700 l 1xd8
EndSplineSet
Validated: 1
EndChar

StartChar: R
Encoding: 82 82 44
GlifName: R_
Width: 719
VWidth: 0
Flags: W
HStem: 0 30<5.5 36.1204 223.045 230.9 534.159 651.859> 352.555 42.4453<290.084 388.392> 700 30<175.5 204.774 356.445 450.884>
VStem: 435.584 148.901<34.8952 234.04> 447.715 150.51<94.0253 293.967> 505.969 139.635<489.441 661.17>
LayerCount: 2
Fore
SplineSet
162.900390625 700 m 1xe8
 162.900390625 700 162.100585938 702.6875 162.100585938 706.434570312 c 0
 162.100585938 709.340820312 162.58203125 712.884765625 164.291992188 716.3046875 c 0
 168.291992188 724.3046875 175.5 730 175.5 730 c 1
 203.158203125 730 l 0
 265.181640625 730 366.668945312 734 428.286132812 734 c 0
 550.603515625 734 645.603515625 691.567382812 645.603515625 588.39453125 c 0xe4
 645.603515625 459.518554688 563.1484375 392.076171875 449.185546875 366.200195312 c 1
 526.819335938 350.635742188 598.224609375 301.362304688 598.224609375 234.170898438 c 0xe8
 598.224609375 231.372070312 598.133789062 228.547851562 597.952148438 225.698242188 c 0
 594.349609375 169.302734375 587.627929688 148.368164062 584.951171875 107.251953125 c 0
 584.63671875 102.4140625 584.485351562 97.94921875 584.485351562 93.83203125 c 0
 584.485351562 58.8544921875 594.41015625 31.9287109375 617.6875 31.9287109375 c 0
 629.098632812 31.9287109375 645.489257812 35.5888671875 650.834960938 38.2607421875 c 1
 654.264648438 9.388671875 l 0
 630.817382812 1.232421875 575.786132812 -4.916015625 536.97265625 -5 c 1
 473.21875 -5 435.583984375 35.599609375 435.583984375 78.4169921875 c 0xf0
 435.583984375 80.044921875 435.616210938 82.564453125 435.694335938 84.3046875 c 0
 437.78515625 130.469726562 442.6875 198.96484375 446.188476562 233.676757812 c 0
 446.54296875 237.182617188 447.71484375 248.548828125 447.71484375 251.783203125 c 0
 447.71484375 317.846679688 390.625 343.592773438 281.491210938 352.5546875 c 1
 212.188476562 62.4609375 l 0
 211.83203125 60.9384765625 209.661132812 52.5126953125 209.661132812 51.1982421875 c 0
 209.661132812 44.1015625 211.135742188 36.55859375 222.75390625 32.7626953125 c 0
 228.936523438 30.7431640625 236.299804688 30 244.930664062 30 c 1
 244.930664062 30 246.239257812 26.947265625 246.239257812 24.005859375 c 0
 246.239257812 20.9619140625 245.85546875 17.9638671875 244.291992188 14.3046875 c 0
 240.935546875 6.447265625 230.900390625 0 230.900390625 0 c 1
 -7.099609375 0 l 1
 -7.099609375 0 -7.8994140625 2.6875 -7.8994140625 6.4345703125 c 0
 -7.8994140625 9.3408203125 -7.41796875 12.884765625 -5.7080078125 16.3046875 c 0
 -1.7080078125 24.3046875 5.5 30 5.5 30 c 1
 10.9658203125 30 l 0
 19.0859375 30 30.6357421875 31.8037109375 36.39453125 33.78515625 c 0
 49.5556640625 38.3125 60.697265625 56.6220703125 63.154296875 67.05078125 c 1
 93.1806640625 183.720703125 118.393554688 288.891601562 145.196289062 405.701171875 c 0
 164.98046875 491.922851562 181.739257812 566.056640625 200.426757812 652.19140625 c 1
 201.24609375 655.864257812 205.6484375 673.500976562 205.6484375 678.032226562 c 0
 205.6484375 689.7265625 199.973632812 693.561523438 193.305664062 696.212890625 c 0
 187.032226562 698.708007812 180.166015625 700 172.067382812 700 c 0
 162.900390625 700 l 1xe8
296.413085938 422.788085938 m 0
 294.234375 413.102539062 292.110351562 403.942382812 290.083984375 395.081054688 c 1
 299.124023438 395.049804688 306.818359375 395 315.30078125 395 c 0
 419.565429688 395 505.96875 454.325195312 505.96875 591.836914062 c 0
 505.96875 666.391601562 459.223632812 700 379.766601562 700 c 0
 360.017578125 700 l 1
 334.137695312 600.743164062 318.579101562 521.3203125 296.413085938 422.788085938 c 0
EndSplineSet
Validated: 1
EndChar

StartChar: U
Encoding: 85 85 45
GlifName: U_
Width: 804
VWidth: 0
Flags: W
HStem: -9.65527 55<264.178 432.873> 700 30<123.5 152.228 333.991 361.9 641.5 670.528 796.912 821.9>
VStem: 52.5527 156.081<106.952 324.523>
LayerCount: 2
Fore
SplineSet
834.931640625 730 m 1
 835.930664062 730 837.239257812 726.947265625 837.239257812 724.005859375 c 0
 837.239257812 720.961914062 836.85546875 717.963867188 835.291992188 714.3046875 c 0
 831.935546875 706.447265625 821.900390625 700 821.900390625 700 c 1
 816.965820312 700 l 2
 809 700 803.810546875 699.99609375 796.57421875 698.221679688 c 0
 779.768554688 694.557617188 768.982421875 678.58984375 765.728515625 665.663085938 c 0
 759.376953125 640.426757812 737.1328125 541.393554688 716.78515625 454.206054688 c 0
 697.784179688 372.787109375 685.814453125 313.470703125 677 279 c 0
 615.87890625 39.9677734375 510.748046875 -9.6552734375 330.362304688 -9.6552734375 c 0
 192.599609375 -9.6552734375 52.552734375 37.7685546875 52.552734375 206.389648438 c 0
 52.552734375 232.952148438 60.0185546875 262.327148438 67.5400390625 294.982421875 c 2
 151.162109375 665.131835938 l 2
 151.748046875 667.705078125 153.08203125 676.897460938 153.08203125 679.020507812 c 0
 153.08203125 687.96484375 148.311523438 693.619140625 141.364257812 696.220703125 c 0
 136.280273438 698.125 128 700 120.965820312 700 c 2
 110.900390625 700 l 1
 110.900390625 700 110.100585938 702.6875 110.100585938 706.434570312 c 0
 110.100585938 709.340820312 110.58203125 712.884765625 112.291992188 716.3046875 c 0
 116.291992188 724.3046875 123.5 730 123.5 730 c 1
 374.931640625 730 l 1
 374.931640625 730 377.239257812 726.947265625 377.239257812 724.005859375 c 0
 377.239257812 720.961914062 376.85546875 717.963867188 375.291992188 714.3046875 c 0
 371.935546875 706.447265625 361.900390625 700 361.900390625 700 c 1
 357.965820312 700 l 2
 350 700 342.58984375 699.069335938 333.569335938 696.223632812 c 0
 317.166992188 691.048828125 308.540039062 676.0859375 304.965820312 662.73046875 c 0
 302.374023438 654.49609375 302.102539062 652.130859375 299.782226562 642.41015625 c 0
 281.774414062 566.967773438 226.216796875 319.125 226.158203125 318.899414062 c 0
 214.131835938 267.598632812 208.633789062 228.087890625 208.633789062 192.962890625 c 0
 208.633789062 97.0966796875 258.290039062 45.3447265625 338.63671875 45.3447265625 c 0
 456.4609375 45.3447265625 540.278320312 119.833984375 587.494140625 308.358398438 c 0
 595.096679688 338.712890625 662.913085938 635.788085938 670.166992188 666.092773438 c 0
 670.772460938 668.622070312 672.0625 677.266601562 672.0625 678.861328125 c 0
 672.0625 685.078125 667.563476562 691.1015625 660.04296875 695.3046875 c 0
 653.079101562 699.197265625 654 700 645.965820312 700 c 2
 628.900390625 700 l 1
 628.900390625 700 628.100585938 702.6875 628.100585938 706.434570312 c 0
 628.100585938 709.340820312 628.58203125 712.884765625 630.291992188 716.3046875 c 0
 634.291992188 724.3046875 641.5 730 641.5 730 c 1
 834.931640625 730 l 1
EndSplineSet
Validated: 1
EndChar

StartChar: J
Encoding: 74 74 46
GlifName: J_
Width: 356
VWidth: 0
Flags: W
HStem: 699.891 30<155.396 172.699 359.435 380.797>
LayerCount: 2
Fore
SplineSet
332.66796875 664.779296875 m 1
 317.668945312 604.736328125 298.735351562 520.0546875 276.689453125 422.846679688 c 0
 236.581054688 245.994140625 191.247070312 60.6416015625 185.889648438 37.9873046875 c 1
 150.765625 -99.2529296875 38.7998046875 -175 -172.91015625 -179.99609375 c 0
 -182 -180.288085938 l 1
 -171.029296875 -138.413085938 l 1
 -167.0703125 -137.2734375 l 0
 -34.9912109375 -100.340820312 8.0341796875 -66.12890625 47.2802734375 84.91015625 c 1
 54.7470703125 112.346679688 105.340820312 318.154296875 138.686523438 467.431640625 c 0
 156.9609375 549.239257812 170.032226562 606.821289062 182.032226562 661.905273438 c 0
 182.439453125 663.81640625 183.681640625 670.516601562 183.681640625 672.206054688 c 0
 183.681640625 683.333984375 182.896484375 688.890625 172.938476562 695.1953125 c 0
 167.862304688 698.409179688 160.909179688 699.890625 152.862304688 699.890625 c 0
 142.796875 699.890625 l 1
 142.796875 699.890625 141.997070312 702.578125 141.997070312 706.325195312 c 0
 141.997070312 709.231445312 142.478515625 712.775390625 144.188476562 716.1953125 c 0
 148.188476562 724.1953125 155.396484375 729.890625 155.396484375 729.890625 c 1
 394.827148438 729.890625 l 1
 394.827148438 729.890625 396.135742188 726.837890625 396.135742188 723.896484375 c 0
 396.135742188 720.852539062 395.751953125 717.854492188 394.188476562 714.1953125 c 0
 390.83203125 706.337890625 380.796875 699.890625 380.796875 699.890625 c 1
 374.862304688 699.890625 l 0
 371.192382812 699.890625 366.74609375 699.360351562 359.078125 697.036132812 c 0
 345.329101562 692.869140625 335.236328125 674.840820312 332.66796875 664.779296875 c 1
EndSplineSet
Validated: 1
EndChar

StartChar: plus
Encoding: 43 43 47
GlifName: plus
Width: 415
VWidth: 0
Flags: W
HStem: 261.275 75.1992<64.3578 160.649 255.991 352.551>
VStem: 57.2402 301.893<261.447 335.742>
LayerCount: 2
Fore
SplineSet
209.856445312 143.6015625 m 2
 207.39453125 131.288085938 180.787109375 129.674804688 170.962890625 129.674804688 c 0
 163.908203125 129.674804688 132.896484375 131.776367188 132.896484375 143.415039062 c 0
 132.896484375 146.7890625 134.9375 153.666992188 135.158203125 154.484375 c 0
 145.615234375 193.173828125 151.610351562 222.026367188 160.649414062 261.275390625 c 1
 67.814453125 261.275390625 l 1
 58.8642578125 264.856445312 57.240234375 274.2578125 57.240234375 281.978515625 c 0
 57.240234375 294.599609375 66.642578125 336.474609375 82.662109375 336.474609375 c 0
 174.512695312 336.474609375 l 0
 176.58984375 336.474609375 177.243164062 337.815429688 178.268554688 340.826171875 c 1
 202.284179688 444.477539062 l 1
 205.999023438 445.715820312 l 0
 215.724609375 448.95703125 234.7421875 451.325195312 243.412109375 451.325195312 c 0
 252.122070312 451.325195312 269.720703125 448.79296875 275.913085938 445.078125 c 0
 280.287109375 442.454101562 l 1
 255.9296875 337.287109375 l 0
 255.9296875 337.287109375 340.01953125 336.474609375 349.362304688 336.474609375 c 0
 358.091796875 336.474609375 359.1328125 324.150390625 359.1328125 321.103515625 c 0
 359.1328125 312.881835938 353.255859375 261.275390625 335.862304688 261.275390625 c 0
 239.762695312 261.275390625 l 2
 238.359375 261.275390625 237.419921875 260.338867188 237.206054688 259.451171875 c 2
 209.856445312 143.6015625 l 2
EndSplineSet
Validated: 1
EndChar

StartChar: B
Encoding: 66 66 48
GlifName: B_
Width: 636
VWidth: 0
Flags: W
HStem: -2 41<189.378 322.312> 0 30<-7.09961 18.0515> 351 61<271.638 365.373> 692.055 41.9453<331.657 375.459> 700 30<151.9 172.864 335.087 405.827>
VStem: 416.461 134.332<137.935 302.236> 458.036 126.642<504.972 662.169>
LayerCount: 2
Fore
SplineSet
138.970703125 700 m 1x6c
 138.970703125 700 138.100585938 702.6875 138.100585938 706.434570312 c 0
 138.100585938 709.340820312 138.58203125 712.884765625 140.291992188 716.3046875 c 0
 144.291992188 724.3046875 151.900390625 730 151.900390625 730 c 1
 183.555664062 730 l 0x6c
 245.834960938 730 326.017578125 734 387.95703125 734 c 0
 518.001953125 734 584.677734375 673.322265625 584.677734375 585.2265625 c 0x32
 584.677734375 483.217773438 492.583007812 418.801757812 405.15234375 390.651367188 c 1
 469.881835938 375.8984375 550.79296875 323.447265625 550.79296875 235.920898438 c 0
 550.79296875 68.1953125 422.671875 -2 283.577148438 -2 c 0xb4
 215.524414062 -2 156.282226562 0 60.9658203125 0 c 0
 -20.099609375 0 l 1
 -20.099609375 0 -20.8994140625 2.6875 -20.8994140625 6.4345703125 c 0
 -20.8994140625 9.3408203125 -20.41796875 12.884765625 -18.7080078125 16.3046875 c 0
 -14.7080078125 24.3046875 -7.099609375 30 -7.099609375 30 c 1
 -4.0341796875 30 l 0
 4.0859375 30 11.072265625 30.9921875 18.39453125 32.78515625 c 5
 34.79296875 36.1669921875 44.6962890625 56.6171875 47.15625 67.056640625 c 1
 77.1728515625 182.709960938 99.1455078125 288.18359375 126.284179688 403.7421875 c 0
 146.559570312 490.078125 180.849609375 653.2421875 180.849609375 653.2421875 c 1
 181.6484375 656.80078125 185 673.499023438 185 677 c 0
 185 689.966796875 180.611328125 696.005859375 173.1328125 698.345703125 c 1
 167.436523438 699.873046875 159.63671875 700 151.329101562 700 c 0
 138.970703125 700 l 1x6c
260.002929688 349.33984375 m 1
 193.171875 66.21875 l 2
 192.654296875 63.5478515625 189.375 49.7490234375 189.375 47.8388671875 c 0
 189.375 40.8115234375 193.380859375 40 199.671875 40 c 0
 215.653320312 40 223.310546875 39 238.642578125 39 c 0xa4
 364.526367188 39 416.4609375 143.081054688 416.4609375 233.940429688 c 0
 416.4609375 306.993164062 356.46875 351 302.533203125 351 c 0
 286.231445312 351 270.219726562 349.848632812 260.002929688 349.33984375 c 1
347.560546875 692.0546875 m 1x32
 338.288085938 691.03125 335.852539062 689 333.416992188 680.647460938 c 2
 295.873046875 517.655273438 l 1
 271.637695312 412 l 1
 297.314453125 412 l 0
 390.536132812 412 458.036132812 482.696289062 458.036132812 591.899414062 c 0
 458.036132812 653.010742188 421.466796875 694 376.16796875 694 c 0
 360.986328125 694 348.73828125 692.09765625 347.560546875 692.0546875 c 1x32
EndSplineSet
Validated: 1
EndChar

StartChar: C
Encoding: 67 67 49
GlifName: C_
Width: 791
VWidth: 0
Flags: W
HStem: -10 56<311.563 503.891> 691 51<432.221 616.53>
VStem: 57.3896 166.309<135.501 396.7>
LayerCount: 2
Fore
SplineSet
546.452148438 742 m 0
 688.432617188 742 738.955078125 657 760.391601562 657 c 0
 777.96875 657 782.809570312 684 799.391601562 684 c 0
 805.2109375 684 810.2265625 679.325195312 810.2265625 670.500976562 c 0
 810.2265625 668.63671875 810.078125 665.924804688 809.631835938 663.588867188 c 1
 766.3125 462.138671875 l 1
 764.764648438 455.264648438 758.134765625 450.732421875 750.786132812 450.732421875 c 0
 745.865234375 450.732421875 738.391601562 456.616210938 738.391601562 466 c 0
 738.391601562 565.634765625 662.8359375 691 523.783203125 691 c 0
 324.002929688 691 223.698242188 432.790039062 223.698242188 237.337890625 c 0
 223.698242188 77.2353515625 335.991210938 46 392.1640625 46 c 0
 560.129882812 46 663.373046875 184.74609375 676 203 c 1
 712.4609375 182.655273438 l 1
 708.634765625 175.823242188 634.5859375 -10 374.951171875 -10 c 0
 250.068359375 -10 57.3896484375 37.263671875 57.3896484375 241.982421875 c 0
 57.3896484375 524.516601562 230.938476562 742 546.452148438 742 c 0
EndSplineSet
Validated: 1
EndChar

StartChar: E
Encoding: 69 69 50
GlifName: E_
Width: 668
VWidth: 0
Flags: W
HStem: 0 35<32.9004 82.9185 235.391 446.467> 368 43<318.979 471.158> 699.564 30.4355<196.9 215.322 384.969 545.754>
VStem: 489.291 18.3457<308 330.267> 526.61 21.3408<441.871 470> 610.941 22.3652<567.498 618.457>
LayerCount: 2
Fore
SplineSet
184.173828125 699.564453125 m 1
 184.173828125 699.564453125 183.100585938 702.6875 183.100585938 706.434570312 c 0
 183.100585938 709.340820312 183.58203125 712.884765625 185.291992188 716.3046875 c 0
 189.291992188 724.3046875 196.900390625 730 196.900390625 730 c 1
 655.0625 730 l 1
 633.306640625 565.54296875 l 1
 610.94140625 567.498046875 l 1
 611.165039062 574.232421875 l 0
 611.248046875 576.751953125 611.291015625 579.20703125 611.291015625 581.59765625 c 0
 611.291015625 633.844726562 592.4921875 667.013671875 545.76171875 684.423828125 c 1
 518.770507812 693.819335938 504.069335938 695 458.440429688 695 c 0
 439.017578125 695 421.102539062 694.060546875 401.448242188 692.1171875 c 1
 387.681640625 690.501953125 380.751953125 681.43359375 378.475585938 672.87890625 c 1
 318.979492188 415.26171875 l 1
 347.564453125 413.263671875 376.654296875 411 404.578125 411 c 0
 440.163085938 411 456.928710938 411.374023438 486.782226562 416.909179688 c 0
 502.053710938 419.741210938 510.51171875 426.150390625 516.693359375 438.901367188 c 0
 521.446289062 449.1953125 524 459 526.610351562 470 c 1
 547.951171875 470 l 1
 507.63671875 308 l 1
 489.291015625 308 l 1
 490.896484375 315.703125 491.909179688 323.626953125 491.909179688 330.594726562 c 0
 491.909179688 335.385742188 491.4296875 339.724609375 490.3359375 343.229492188 c 0
 486.84765625 354.404296875 480.875 361.765625 472.43359375 363.090820312 c 0
 445.075195312 367.38671875 427.259765625 368 395.306640625 368 c 0
 365.6796875 368 331.265625 365.240234375 305.482421875 362.690429688 c 1
 235.881835938 59.9423828125 l 1
 235.4296875 58.0908203125 235.209960938 56.2734375 235.209960938 54.40625 c 0
 235.209960938 45.8056640625 245.33984375 39.0048828125 255.375 37.8916015625 c 0
 273.075195312 35.927734375 275.833007812 35 293.194335938 35 c 0
 353.364257812 35 382.7265625 36.0712890625 425.172851562 45.80078125 c 1
 485.216796875 60.2509765625 518.352539062 100.024414062 544.73828125 158.783203125 c 0
 546.443359375 162.71875 l 1
 572.252929688 164.64453125 l 1
 514.353515625 0 l 1
 20.1953125 0 l 1
 20.1953125 0 19.1005859375 2.6875 19.1005859375 6.4345703125 c 0
 19.1005859375 9.3408203125 19.58203125 12.884765625 21.2919921875 16.3046875 c 0
 25.2919921875 24.3046875 32.900390625 30 32.900390625 30 c 1
 36.1611328125 29.435546875 l 0
 46.166015625 29.435546875 47.6455078125 29.470703125 56.7529296875 31.2578125 c 1
 72.837890625 34.580078125 81.90625 46.1435546875 84.33984375 56.490234375 c 0
 84.4150390625 56.80859375 l 1
 84.51953125 57.1181640625 l 0
 90.1357421875 73.6494140625 134.260742188 250.381835938 170.66015625 411.663085938 c 0
 198.756835938 536.155273438 220.858398438 636.321289062 225.890625 661.079101562 c 0
 229.657226562 679.850585938 l 0
 229.657226562 687.1328125 227.28125 695.857421875 215.67578125 697.78515625 c 0
 208.064453125 699.049804688 204.875 699.564453125 196.487304688 699.564453125 c 2
 184.173828125 699.564453125 l 1
EndSplineSet
Validated: 1
EndChar

StartChar: F
Encoding: 70 70 51
GlifName: F_
Width: 663
VWidth: 0
Flags: W
HStem: 0 30<30.9004 60.0501 243.568 260.9> 350 42.9258<314.98 476.827> 700.588 29.4121<194.9 231.809 390.776 563.514>
VStem: 475.029 18.3086<290 317.261> 513.293 21.6436<424.739 452> 633.743 23.4189<567.466 618.739>
LayerCount: 2
Fore
SplineSet
275.880859375 30 m 1
 275.880859375 30 276.239257812 27.947265625 276.239257812 25.005859375 c 0
 276.239257812 21.9619140625 275.85546875 17.9638671875 274.291992188 14.3046875 c 0
 270.935546875 6.447265625 260.900390625 0 260.900390625 0 c 1
 18 0 l 1
 18 0 17.1005859375 2.6875 17.1005859375 6.4345703125 c 0
 17.1005859375 9.3408203125 17.58203125 12.884765625 19.2919921875 16.3046875 c 0
 23.2919921875 24.3046875 30.900390625 30 30.900390625 30 c 1
 35.9658203125 30 l 0
 44.0859375 30 53.072265625 30.9921875 60.39453125 32.787109375 c 1
 77.0478515625 37.224609375 85.751953125 55.88671875 88.2900390625 66.576171875 c 0
 94.0029296875 84.310546875 131.196289062 241.565429688 168.08203125 397.241210938 c 0
 199.252929688 528.798828125 227.33984375 661.5546875 227.3671875 661.67578125 c 1
 227.748046875 663.237304688 232.083984375 682.142578125 232.083984375 682.888671875 c 0
 232.083984375 690.162109375 228.553710938 696.267578125 217.168945312 698.799804688 c 1
 208.952148438 700.526367188 208.118164062 700.587890625 197.748046875 700.587890625 c 0
 182.44921875 700.587890625 l 1
 182.44921875 700.587890625 181.100585938 702.6875 181.100585938 706.434570312 c 0
 181.100585938 709.340820312 181.58203125 712.884765625 183.291992188 716.3046875 c 0
 187.291992188 724.3046875 194.900390625 730 194.900390625 730 c 1
 678.810546875 730 l 1
 657.162109375 565.571289062 l 1
 633.743164062 567.465820312 l 1
 633.969726562 574.234375 l 0
 634.065429688 577.10546875 634.114257812 579.907226562 634.114257812 582.635742188 c 0
 634.114257812 635.009765625 617.532226562 670.828125 570.075195312 684.259765625 c 1
 534.479492188 693.895507812 509.416992188 695 452.438476562 695 c 0
 432.998046875 695 423.16015625 694.064453125 403.415039062 692.106445312 c 0
 387.538085938 690.532226562 377.1015625 668.66796875 374.498046875 658.037109375 c 1
 314.98046875 396.326171875 l 1
 350.663085938 394.096679688 370.8046875 392.92578125 407.926757812 392.92578125 c 0
 453.961914062 392.92578125 483.470703125 394.19921875 499.39453125 418.90234375 c 0
 505.534179688 428.427734375 509 437 513.29296875 452 c 1
 534.936523438 452 l 1
 493.337890625 290 l 1
 475.029296875 290 l 1
 475.96875 300.352539062 477.076171875 312.377929688 477.076171875 327.229492188 c 0
 477.076171875 339.2421875 467.775390625 342.608398438 458.215820312 344.088867188 c 0
 431.212890625 348.26953125 408.091796875 350 376.209960938 350 c 0
 346.471679688 350 326.63671875 347.284179688 300.319335938 344.670898438 c 1
 278.178710938 248.196289062 259.650390625 164.109375 235.165039062 66.9794921875 c 0
 234.658203125 64.9697265625 233.471679688 58.2744140625 233.471679688 56.6201171875 c 0
 233.471679688 49.8525390625 233.892578125 37.5322265625 243.243164062 33.4921875 c 0
 250.184570312 30.4931640625 256 30 266.788085938 30 c 2
 275.880859375 30 l 1
EndSplineSet
Validated: 1
EndChar

StartChar: G
Encoding: 71 71 52
GlifName: G_
Width: 805
VWidth: 0
Flags: W
HStem: -10 56<279.022 436.467> 284 25<531.146 564.576 709.114 751.276> 691 51<413.587 589.54>
VStem: 38.0381 163.656<136.398 393.751>
LayerCount: 2
Fore
SplineSet
745.810546875 284 m 2
 716.604492188 284 697.137695312 266.150390625 692.615234375 247.008789062 c 2
 673.607421875 167.037109375 l 1
 667.301757812 141.384765625 658.44921875 134.321289062 639.401367188 113.421875 c 1
 588.631835938 58.298828125 465.814453125 -10 333.389648438 -10 c 0
 212.360351562 -10 38.0380859375 36.73828125 38.0380859375 243.392578125 c 0
 38.0380859375 525.3203125 224.057617188 742 518.856445312 742 c 0
 660.833984375 742 701.374023438 657 722.810546875 657 c 0
 741.369140625 657 742.352539062 684 762.810546875 684 c 0
 771.383789062 684 776.481445312 676.6484375 776.481445312 669.293945312 c 0
 776.481445312 668.157226562 776.421875 667.37109375 776.201171875 665.998046875 c 1
 735 470 l 2
 733.54296875 462.967773438 729.291992188 453 719 453 c 0
 712.397460938 453 702.810546875 459.884765625 702.810546875 468 c 0
 702.810546875 567.634765625 639.254882812 691 500.188476562 691 c 0
 321.603515625 691 201.694335938 435.551757812 201.694335938 241.036132812 c 0
 201.694335938 97.5341796875 289.09765625 46 345.75390625 46 c 0
 440.435546875 46 540 125 550.698242188 172.711914062 c 1
 566.244140625 247.225585938 l 1
 566.716796875 249.159179688 567.91796875 258.815429688 567.91796875 260.501953125 c 0
 567.91796875 276.165039062 552.7421875 284 534.041015625 284 c 2
 525.350585938 284 l 1
 531.146484375 309 l 1
 758.776367188 309 l 1
 751.276367188 284 l 1
 745.810546875 284 l 2
EndSplineSet
Validated: 1
EndChar

StartChar: K
Encoding: 75 75 53
GlifName: K_
Width: 689
VWidth: 0
Flags: W
HStem: 0 30<39.5 64.4975 253.602 270.9 427.5 453.486 627.626 653.431> 700 30<207.5 224.781 411.935 439.9 562.5 581.641 715.825 744.9>
LayerCount: 2
Fore
SplineSet
653.430664062 0 m 1
 415.53125 0 l 1
 415.53125 0 414.100585938 2.6875 414.100585938 6.4345703125 c 0
 414.100585938 9.3408203125 414.58203125 12.884765625 416.291992188 16.3046875 c 0
 420.291992188 24.3046875 427.5 30 427.5 30 c 1
 430.965820312 30 l 2
 437 30 446.247070312 30.8076171875 453.84375 32.9111328125 c 0
 465 36 473.90234375 47.125 473.90234375 60.119140625 c 0
 473.90234375 65.220703125 472.208007812 74.1923828125 467.538085938 84.220703125 c 0
 423.5625 178.658203125 389.455078125 243.344726562 342.063476562 336.708007812 c 1
 328.970703125 326.669921875 323.3203125 321.33984375 312 318 c 1
 247 74 l 2
 245.666992188 68.4306640625 243.09765625 59.4677734375 243.09765625 53.203125 c 0
 243.09765625 45.3056640625 244.9140625 35.87890625 253.227539062 32.890625 c 0
 261.205078125 30.0224609375 269.471679688 30 275.965820312 30 c 0
 284.930664062 30 l 1
 284.930664062 30 286.239257812 26.947265625 286.239257812 24.005859375 c 0
 286.239257812 20.9619140625 285.85546875 17.9638671875 284.291992188 14.3046875 c 0
 280.935546875 6.447265625 270.900390625 0 270.900390625 0 c 1
 26.900390625 0 l 1
 26.900390625 0 26.1005859375 2.6875 26.1005859375 6.4345703125 c 0
 26.1005859375 9.3408203125 26.58203125 12.884765625 28.2919921875 16.3046875 c 0
 32.2919921875 24.3046875 39.5 30 39.5 30 c 1
 42.9658203125 30 l 0
 49.15234375 30 57.4306640625 30.96875 64.845703125 31.875 c 1
 81.7802734375 35.7294921875 91.689453125 55.7900390625 95.142578125 67.0048828125 c 1
 125.1796875 182.73828125 149.131835938 288.125976562 176.137695312 403.732421875 c 0
 197.150390625 494.884765625 216.102539062 574.767578125 235.125 665.96875 c 1
 235.596679688 667.969726562 236.784179688 675.598632812 236.784179688 677.31640625 c 0
 236.784179688 683.102539062 235.2890625 689.874023438 225.041992188 695.3046875 c 0
 219.525390625 698.228515625 210.966796875 700 203.965820312 700 c 0
 194.900390625 700 l 1
 194.900390625 700 194.100585938 702.6875 194.100585938 706.434570312 c 0
 194.100585938 709.340820312 194.58203125 712.884765625 196.291992188 716.3046875 c 0
 200.291992188 724.3046875 207.5 730 207.5 730 c 1
 453.400390625 730 l 1
 453.400390625 730 455.239257812 726.947265625 455.239257812 724.005859375 c 0
 455.239257812 720.961914062 454.85546875 717.963867188 453.291992188 714.3046875 c 0
 449.935546875 706.447265625 439.900390625 700 439.900390625 700 c 1
 436.965820312 700 l 0
 429.885742188 700 420.02734375 698.796875 411.536132812 696.176757812 c 0
 398 692 387.131835938 674.590820312 384.786132812 664.427734375 c 0
 329.784179688 430.430664062 l 1
 346.078125 438.227539062 359.849609375 449.415039062 386.828125 474.754882812 c 1
 562.8671875 643.796875 l 1
 581.883789062 663.869140625 589.508789062 671.014648438 589.508789062 678.725585938 c 0
 589.508789062 683.627929688 588.512695312 688.962890625 581.814453125 694.095703125 c 0
 578.174804688 696.884765625 569.96875 700 561.965820312 700 c 0
 550.166992188 700 l 1
 550.166992188 700 549.100585938 702.6875 549.100585938 706.434570312 c 0
 549.100585938 709.340820312 549.58203125 712.884765625 551.291992188 716.3046875 c 0
 555.291992188 724.3046875 562.5 730 562.5 730 c 1
 758.930664062 730 l 1
 758.930664062 730 760.239257812 726.947265625 760.239257812 724.005859375 c 0
 760.239257812 720.961914062 759.85546875 717.963867188 758.291992188 714.3046875 c 0
 754.935546875 706.447265625 744.900390625 700 744.900390625 700 c 1
 741.965820312 700 l 0
 735.584960938 700 724.202148438 699.122070312 715.411132812 696.208984375 c 1
 703.533203125 692.881835938 689.314453125 672.829101562 674.095703125 656.928710938 c 1
 437.26171875 415.624023438 l 1
 459.298828125 374.77734375 l 1
 539.26953125 241.620117188 593.342773438 119.25390625 619.405273438 59.361328125 c 0
 626.848632812 42.2509765625 638 30 657.965820312 30 c 2
 666.930664062 30 l 1
 666.930664062 30 668.239257812 26.947265625 668.239257812 24.005859375 c 0
 668.239257812 20.9619140625 667.85546875 17.9638671875 666.291992188 14.3046875 c 0
 662.935546875 6.447265625 653.430664062 0 653.430664062 0 c 1
EndSplineSet
Validated: 1
EndChar

StartChar: Y
Encoding: 89 89 55
GlifName: Y_
Width: 693
VWidth: 0
Flags: W
HStem: 0 30<136.866 167.003 360.659 399> 700 30<104.707 145.284 311.191 349.9 579.866 608.167 715.321 762.9>
LayerCount: 2
Fore
SplineSet
775.930664062 730 m 1
 776 730 778.239257812 726.947265625 778.239257812 724.005859375 c 0
 778.239257812 720.961914062 777.85546875 717.963867188 776.291992188 714.3046875 c 0
 772.935546875 706.447265625 762.900390625 700 762.900390625 700 c 1
 755.965820312 700 l 0
 724.868164062 700 709.798828125 680.883789062 700.229492188 669.806640625 c 1
 437.284179688 391.950195312 l 1
 424.563476562 346.952148438 416.243164062 302.263671875 405.67578125 256.681640625 c 0
 389.993164062 189.036132812 379.763671875 146.348632812 362.840820312 79.0654296875 c 1
 362.840820312 79.0654296875 358.146484375 62.572265625 358.146484375 56.6005859375 c 0
 358.146484375 41.677734375 368.697265625 30 390.186523438 30 c 0
 399 30 l 1
 399 30 401.239257812 26.947265625 401.239257812 24.005859375 c 0
 401.239257812 20.9619140625 400.85546875 17.9638671875 399.291992188 14.3046875 c 0
 395.935546875 6.447265625 386.7421875 0 386.7421875 0 c 5
 125 0 l 1
 124.900390625 0 124.100585938 2.6875 124.100585938 6.4345703125 c 0
 124.100585938 9.3408203125 124.58203125 12.884765625 126.291992188 16.3046875 c 0
 130.291992188 24.3046875 136.866210938 30 136.866210938 30 c 1
 142.965820312 30 l 0
 151.0859375 30 159.040039062 30.9931640625 167.39453125 33.78515625 c 0
 183 39 192.712890625 56.6875 195.153320312 67.0478515625 c 0
 212.1953125 135.78125 227.16796875 193.262695312 243.147460938 260.763671875 c 0
 252.905273438 301.862304688 263.184570312 345.392578125 271.723632812 384.930664062 c 1
 223.596679688 508.671875 172.438476562 626.96875 147.546875 680.610351562 c 1
 140.5 697.176757812 135.604492188 700 111.965820312 700 c 0
 103.900390625 700 l 1
 103.900390625 700 103.100585938 702.6875 103.100585938 706.434570312 c 0
 103.100585938 709.340820312 103.58203125 712.884765625 105.291992188 716.3046875 c 0
 109.291992188 724.3046875 115.866210938 730 115.5 730 c 1
 362.400390625 730 l 1
 363 730 365.239257812 726.947265625 365.239257812 724.005859375 c 0
 365.239257812 720.961914062 364.85546875 717.963867188 363.291992188 714.3046875 c 0
 359.935546875 706.447265625 349.900390625 700 349.900390625 700 c 1
 343.965820312 700 l 0
 320.171875 700 305.19921875 685.211914062 305.19921875 667.791015625 c 0
 305.19921875 662.625976562 306.97265625 655.391601562 310.521484375 645.455078125 c 1
 399.61328125 459.012695312 l 1
 578.80078125 641.724609375 l 0
 596.682617188 661.271484375 608.553710938 673.87890625 608.553710938 682.006835938 c 0
 608.553710938 692.407226562 597.7421875 700 576.965820312 700 c 0
 567.900390625 700 l 1
 567.900390625 700 567.100585938 702.6875 567.100585938 706.434570312 c 0
 567.100585938 709.340820312 567.58203125 712.884765625 569.291992188 716.3046875 c 0
 573.291992188 724.3046875 579.866210938 730 579.866210938 730 c 1
 775.930664062 730 l 1
EndSplineSet
Validated: 1
EndChar

StartChar: Z
Encoding: 90 90 56
GlifName: Z_
Width: 773
VWidth: 0
Flags: W
HStem: 0 43<236.567 554.018> 690 40<317.876 592.928>
LayerCount: 2
Fore
SplineSet
758.697265625 671.640625 m 2
 235.072265625 49.01953125 l 1
 266.75 45.060546875 312.000976562 43 348.862304688 43 c 0
 391.10546875 43 461.6328125 43.0595703125 510.251953125 49.9296875 c 0
 574.7421875 58.716796875 613.318359375 108.241210938 642.4296875 176.744140625 c 1
 666.758789062 178.592773438 l 1
 595.969726562 0 l 1
 64.3701171875 0 l 0
 56.720703125 0 37.3701171875 3.435546875 37.3701171875 23.525390625 c 0
 37.3701171875 33.232421875 44.9111328125 44.5439453125 48.9541015625 49.498046875 c 1
 592.927734375 686.734375 l 1
 565.469726562 687.907226562 512.186523438 690 471.749023438 690 c 0
 415.041992188 690 391.211914062 688.956054688 350.907226562 680.168945312 c 0
 281.615234375 665.137695312 244.03125 627.669921875 216.004882812 567.294921875 c 1
 194.350585938 565.25 l 1
 265.659179688 726.8828125 l 0
 269.296875 732.171875 276.62109375 734 282.990234375 734 c 0
 294.359375 734 312.356445312 730 317 730 c 0
 774.392578125 730 l 1
 774.392578125 730 775.202148438 720.745117188 775.370117188 716.1171875 c 0
 775.370117188 700.814453125 769.326171875 683.546875 758.697265625 671.640625 c 2
EndSplineSet
Validated: 1
EndChar

StartChar: zero
Encoding: 48 48 57
GlifName: zero
Width: 593
VWidth: 0
Flags: W
HStem: -8 46<192.702 269.288> 594 46<328.438 396.718>
VStem: 35.2607 135.137<90.931 335.282> 417.47 133.177<286.959 543.546>
LayerCount: 2
Fore
SplineSet
417.469726562 427.135742188 m 0
 417.469726562 517.336914062 407.477539062 594 372.77734375 594 c 0
 305.146484375 594 170.397460938 386.135742188 170.397460938 206.288085938 c 0
 170.397460938 125.169921875 179.098632812 38 223.091796875 38 c 0
 298.176757812 38 417.469726562 237.083984375 417.469726562 427.135742188 c 0
209.30078125 -8 m 0
 89.296875 -8 35.2607421875 86.4091796875 35.2607421875 206.385742188 c 0
 35.2607421875 422.041015625 195.901367188 640 378.568359375 640 c 0
 497.938476562 640 550.646484375 546.379882812 550.646484375 427.46484375 c 0
 550.646484375 211.991210938 397.587890625 -8 209.30078125 -8 c 0
EndSplineSet
Validated: 1
EndChar

StartChar: one
Encoding: 49 49 58
GlifName: one
Width: 365
VWidth: 0
Flags: W
HStem: 0 32<38.7998 74.5484 208.193 231.658>
VStem: 30 317.03
LayerCount: 2
Fore
SplineSet
208.185546875 43.8515625 m 1
 208.325195312 38.8740234375 209.780273438 32 221.838867188 32 c 2
 237.458007812 32 l 1
 231.658203125 0 l 1
 30 0 l 1
 38.7998046875 32 l 1
 48.8388671875 32 l 0
 63.8759765625 32 73.9033203125 42.392578125 76.16796875 52.162109375 c 1
 190.182617188 517.70703125 l 0
 191.775390625 524.27734375 194.497070312 536.205078125 194.497070312 537.403320312 c 0
 194.497070312 539.375 193.935546875 543.137695312 193.440429688 544.633789062 c 1
 182.90234375 544.310546875 163.478515625 541.862304688 163.069335938 541.811523438 c 1
 144.888671875 540.305664062 l 1
 154.79296875 572.990234375 l 1
 160.998046875 575.401367188 l 0
 197.110351562 589.435546875 277.548828125 618.26171875 313.317382812 638.24609375 c 1
 315.595703125 639.57421875 322.765625 645 329.838867188 645 c 0
 334.11328125 645 347.030273438 644.565429688 347.030273438 633.958007812 c 0
 347.030273438 633.892578125 l 1
 209.732421875 50.3466796875 l 1
 209.41796875 48.8837890625 208.39453125 44.822265625 208.185546875 43.8515625 c 1
EndSplineSet
Validated: 1
EndChar

StartChar: two
Encoding: 50 50 59
GlifName: two
Width: 639
VWidth: 0
Flags: W
HStem: 0 70<185.043 457.465> 508.594 21G<226.182 260.772> 585 57<341.043 455.107>
VStem: 472.78 132.763<456.498 567.274>
LayerCount: 2
Fore
SplineSet
404.447265625 585 m 0
 353.983398438 585 302.62109375 556.9375 260.772460938 517.81640625 c 2
 250.907226562 508.59375 l 1
 222.245117188 531.778320312 l 1
 229.639648438 540.854492188 l 1
 230.564453125 542.001953125 310.724609375 642 447.3828125 642 c 0
 531.145507812 642 605.54296875 614.682617188 605.54296875 538.043945312 c 0
 605.54296875 441.580078125 537.291015625 386.088867188 421.572265625 276.431640625 c 1
 339.045898438 200.610351562 231.775390625 113.014648438 185.04296875 70 c 1
 398.779296875 70 l 0
 445.137695312 70 470.885742188 86.349609375 486.213867188 114.099609375 c 0
 490.7265625 122.590820312 l 1
 520.821289062 115.38671875 l 1
 457.46484375 0 l 1
 26 0 l 1
 30.091796875 15.662109375 l 0
 33.0322265625 26.919921875 38.025390625 47.9384765625 38.025390625 47.9384765625 c 0
 38.876953125 51.5234375 l 1
 41.60546875 54.1123046875 l 0
 167.041992188 171.584960938 272.3203125 273.873046875 349.129882812 347.528320312 c 0
 410.751953125 407.087890625 472.780273438 457.24609375 472.780273438 520.322265625 c 0
 472.780273438 549.537109375 448.1640625 585 404.447265625 585 c 0
EndSplineSet
Validated: 1
EndChar

StartChar: hyphen
Encoding: 45 45 60
GlifName: hyphen
Width: 408
VWidth: 0
Flags: W
HStem: 267.9 60.1992<75.29 340.952>
VStem: 65.7158 277.942<268.53 328.1>
LayerCount: 2
Fore
SplineSet
74.0380859375 268.401367188 m 2
 67.462890625 271.030273438 65.7158203125 280.995117188 65.7158203125 287.604492188 c 0
 65.7158203125 300.227539062 70.1181640625 328.099609375 87.1376953125 328.099609375 c 0
 333.887695312 328.099609375 l 0
 343.418945312 328.099609375 343.658203125 316.159179688 343.658203125 313.729492188 c 0
 343.658203125 305.634765625 341.891601562 267.900390625 323.387695312 267.900390625 c 0
 75.2900390625 267.900390625 l 1
 74.0380859375 268.401367188 l 2
EndSplineSet
Validated: 1
EndChar

StartChar: backslash
Encoding: 92 92 61
GlifName: backslash
Width: 418
VWidth: 0
Flags: W
LayerCount: 2
Fore
SplineSet
389.390625 -102.213867188 m 2
 379.543945312 -107.319335938 348.219726562 -110.052734375 337 -110.052734375 c 0
 312.095703125 -110.052734375 273.190429688 -86.74609375 264.39453125 -52.7919921875 c 1
 264.39453125 -52.7919921875 120.431640625 404.579101562 31.40234375 655.66015625 c 0
 31 656.795898438 l 1
 31 658 l 0
 31 675.1640625 58.115234375 703.255859375 74 703.255859375 c 0
 88.6064453125 703.255859375 128.180664062 691.747070312 146.465820312 677.525390625 c 0
 148.286132812 676.109375 l 1
 148.908203125 673.888671875 l 0
 220.877929688 416.998046875 291.8125 185.209960938 392.75 -93.6171875 c 0
 394.838867188 -99.388671875 l 1
 389.390625 -102.213867188 l 2
EndSplineSet
Validated: 1
EndChar

StartChar: parenleft
Encoding: 40 40 62
GlifName: parenleft
Width: 436
VWidth: 0
Flags: W
VStem: 43.3711 101.877<35.6966 276.497>
LayerCount: 2
Fore
SplineSet
391.310546875 752.134765625 m 2
 355.825195312 711.274414062 251.946289062 647.186523438 175.495117188 315.198242188 c 0
 153.197265625 218.79296875 145.248046875 145.943359375 145.248046875 90.240234375 c 0
 145.248046875 -32.0224609375 182.4609375 -70.427734375 194.108398438 -100.711914062 c 0
 194.90234375 -102.776367188 l 1
 180.181640625 -161.66015625 l 1
 171.370117188 -149.280273438 l 1
 170.396484375 -147.913085938 43.37109375 -25.2578125 43.37109375 168.14453125 c 0
 43.37109375 214.720703125 48.431640625 265.405273438 60.9541015625 319.397460938 c 0
 133.000976562 631.95703125 387.791992188 792.78515625 389.94140625 794.400390625 c 1
 404.56640625 805.384765625 l 1
 392.448242188 753.444335938 l 1
 391.310546875 752.134765625 l 2
EndSplineSet
Validated: 1
EndChar

StartChar: parenright
Encoding: 41 41 63
GlifName: parenright
Width: 432
VWidth: 0
Flags: W
VStem: 291.858 102.242<375.334 621.486>
LayerCount: 2
Fore
SplineSet
243.861328125 756.1875 m 1
 254.827148438 803.1796875 l 1
 263.817382812 792.806640625 l 1
 265.056640625 791.376953125 394.100585938 687.899414062 394.100585938 488.375 c 0
 394.100585938 437.23046875 388.250976562 379.829101562 373.594726562 316.243164062 c 0
 308.928710938 37.4423828125 47.1396484375 -150.234375 46.75390625 -150.5625 c 0
 30.1533203125 -164.647460938 l 1
 46.3291015625 -99.9462890625 l 1
 47.380859375 -98.703125 l 0
 82.921875 -56.7021484375 186.833984375 10.6435546875 258.00390625 318.346679688 c 0
 283.083007812 427.251953125 291.858398438 507.395507812 291.858398438 567.157226562 c 0
 291.858398438 689.751953125 256.088867188 725.2109375 244.6640625 754.154296875 c 0
 243.861328125 756.1875 l 1
EndSplineSet
Validated: 1
EndChar

StartChar: three
Encoding: 51 51 64
GlifName: three
Width: 577
VWidth: 0
Flags: W
HStem: -7 36<165.411 284.744> 579 61<301.45 440.42>
VStem: 386.884 124.818<141.891 260.956> 393.496 147.701<490.776 570.757>
LayerCount: 2
Fore
SplineSet
199.674804688 505.29296875 m 0xd0
 195.24609375 501.18359375 l 1
 170.254882812 524.404296875 l 1
 174.49609375 528.685546875 l 0
 177.154296875 531.369140625 277.623046875 640 397.041015625 640 c 0
 483.799804688 640 541.197265625 609.540039062 541.197265625 555.837890625 c 0xd0
 541.197265625 467.756835938 440.736328125 425.39453125 372.999023438 381.131835938 c 1
 439.736328125 365.216796875 511.702148438 310.454101562 511.702148438 236.157226562 c 0
 511.702148438 73.306640625 348.315429688 -7 183.668945312 -7 c 0
 130.926757812 -7 50 13.3408203125 50 57.91796875 c 0
 50 66.5625 53.185546875 72.908203125 54.044921875 74.9423828125 c 0
 60.44921875 90.1279296875 79.3876953125 97.638671875 94.88671875 97.638671875 c 0
 110.651367188 97.638671875 123.99609375 84.80078125 135.2421875 71.484375 c 0
 149.727539062 54.3291015625 185.4375 29 213.586914062 29 c 0
 314.178710938 29 386.883789062 118.452148438 386.883789062 208.98828125 c 0xe0
 386.883789062 239.25 361.094726562 274.00390625 336.96875 286.78125 c 0
 315.508789062 298.146484375 296.220703125 305.010742188 270.611328125 305.010742188 c 0
 235.598632812 305.010742188 204.508789062 282.499023438 185.668945312 282.499023438 c 0
 174.022460938 282.499023438 164.256835938 289.196289062 164.256835938 300.1171875 c 0
 164.256835938 309.517578125 171.096679688 315.70703125 175.6875 318.33984375 c 1
 184.254882812 323.185546875 393.49609375 449.662109375 393.49609375 531.06640625 c 0
 393.49609375 558.967773438 374.754882812 579 341.28515625 579 c 0
 304.528320312 579 251.047851562 547.243164062 199.674804688 505.29296875 c 0xd0
EndSplineSet
Validated: 1
EndChar

StartChar: four
Encoding: 52 52 65
GlifName: four
Width: 549
VWidth: 0
Flags: W
HStem: 0 21G<255.883 343.603> 265 59.7324<182.226 293.558> 273.007 58.2666<425.675 484.644>
LayerCount: 2
Fore
SplineSet
182.225585938 324.732421875 m 1xc0
 230.745117188 324.096679688 278.229492188 322.548828125 306.388671875 322.110351562 c 1
 320.625976562 374.5625 342.947265625 447.111328125 345.345703125 461.953125 c 1
 311.619140625 429.46875 295.46484375 422.985351562 259.682617188 390.44140625 c 0
 232.424804688 365.651367188 203.65234375 343.837890625 182.225585938 324.732421875 c 1xc0
56 283.901367188 m 0
 56 294.369140625 62.8779296875 300.997070312 66.04296875 304.055664062 c 0
 177.486328125 411.6328125 322.817382812 511.66015625 428.442382812 618.177734375 c 1
 428.442382812 618.177734375 453.125976562 642 460.196289062 642 c 0
 463.666992188 642 475.814453125 641.599609375 478.645507812 640.79296875 c 0
 486.887695312 638.486328125 496.364257812 632.303710938 496.364257812 624.77734375 c 0
 496.364257812 623.428710938 496.194335938 622.088867188 495.876953125 620.78125 c 0
 425.674804688 331.2734375 l 1
 436.287109375 331.59375 447.150390625 332.021484375 457.643554688 332.634765625 c 0
 472.872070312 333.524414062 477.201171875 334.811523438 487.96875 336.650390625 c 0
 499.5703125 338.6328125 l 1
 494.383789062 328.25390625 l 0
 489.909179688 319.30078125 484.711914062 312.627929688 484.711914062 302.606445312 c 0
 484.711914062 294.025390625 486.034179688 285.853515625 488.067382812 281.231445312 c 0
 491.6875 273.006835938 l 1
 413.584960938 273.006835938 l 1xa0
 353.466796875 12.078125 l 1
 352.19921875 6.1552734375 348.349609375 0 338.856445312 0 c 0
 256.297851562 0 l 0
 255.46875 0 254.635742188 0.009765625 253.801757812 0.0283203125 c 0
 251.63671875 0.0771484375 239.322265625 0.0791015625 237.18359375 0.1669921875 c 0
 233.633789062 0.3125 232.65234375 2.1279296875 232.65234375 4.8408203125 c 0
 232.65234375 6.59765625 233.064453125 8.73046875 233.45703125 11.0302734375 c 0
 234.036132812 14.419921875 235.778320312 19.9384765625 235.974609375 20.7890625 c 0
 254.860351562 101.696289062 274.844726562 184.709960938 293.557617188 265 c 1
 74.1962890625 265 l 0
 61.763671875 265 56 275.991210938 56 283.901367188 c 0
EndSplineSet
Validated: 5
EndChar

StartChar: semicolon
Encoding: 59 59 66
GlifName: semicolon
Width: 325
VWidth: 0
Flags: W
HStem: -84 24<51.2608 84.0775> 348 116<184.057 255.842>
VStem: 103 93.31<-34.4425 71.7805> 163.357 112.902<368.754 443.374>
LayerCount: 2
Fore
SplineSet
232 464 m 0xd0
 258.45262697 464 276.2595368 443.335738631 276.2595368 417.562313213 c 0
 276.2595368 377.035879002 239.296284539 348 208 348 c 0
 181.557398896 348 163.357148836 366.981152867 163.357148836 392.778146554 c 0
 163.357148836 432.737504104 197.847544051 464 232 464 c 0xd0
151 98 m 0
 179.061731857 98 196.310045232 76.086941014 196.310045232 51.9434992596 c 0
 196.310045232 -33.2114577607 128.205724544 -84 71 -84 c 0
 51.26076927 -84 l 1
 41.66076927 -60 l 1
 52 -60 l 0
 66.8309484746 -60 103 -41.8850713833 103 -27 c 0xe0
 103 -7.5564099659 78.41015625 -0.889410776439 78.41015625 26.8505859375 c 0
 78.41015625 67.6981908342 117.064751261 98 151 98 c 0
EndSplineSet
Validated: 1
EndChar

StartChar: colon
Encoding: 58 58 67
GlifName: colon
Width: 294
VWidth: 0
Flags: W
HStem: -18 116<68.417 139.73> 348 116<152.147 223.887>
VStem: 48.0002 112.573<3.13905 77.5817> 131.736 112.837<368.336 443.544>
LayerCount: 2
Fore
SplineSet
116.313476562 98 m 0xe0
 142.766103532 98 160.573013362 77.335738631 160.573013362 51.5623132131 c 0
 160.573013362 12.0326207265 124.516862115 -18 92.3134765625 -18 c 0
 65.2132744959 -18 48.0002388658 2.47524991649 48.0002388658 27.9925000352 c 0
 48.0002388658 67.6210722289 82.8650884989 98 116.313476562 98 c 0xe0
200.313476562 464 m 0
 226.766103532 464 244.573013362 443.335738631 244.573013362 417.562313213 c 0
 244.573013362 377.299486404 208.635056448 348 177.313476562 348 c 0
 150.783948147 348 131.735773397 367.064744235 131.735773397 393.263915839 c 0xd0
 131.735773397 433.030163333 166.474631925 464 200.313476562 464 c 0
EndSplineSet
Validated: 1
EndChar

StartChar: five
Encoding: 53 53 68
GlifName: five
Width: 628
VWidth: 0
Flags: W
HStem: -11.9697 66.5<127.384 291.031> 334 97<242.978 418.171> 554.653 56.4443<312.308 539.694>
VStem: 393.816 117.733<164.788 307.936>
LayerCount: 2
Fore
SplineSet
233.686523438 611.09765625 m 1
 485.392578125 611.09765625 l 2
 502.422851562 611.09765625 521.241210938 611.975585938 533.540039062 614.682617188 c 0
 536.547851562 615.359375 548.155273438 617 553.392578125 617 c 0
 560.520507812 617 569.545898438 614.552734375 569.545898438 604.151367188 c 0
 569.545898438 592.391601562 551.912109375 573.78515625 543.494140625 560.6015625 c 0
 539.694335938 554.653320312 l 1
 312.307617188 554.653320312 l 1
 241 409 l 1
 285.243164062 425.19140625 329.518554688 431 377.607421875 431 c 0
 458.735351562 431 511.549804688 362.09375 511.549804688 269.247070312 c 0
 511.549804688 112.903320312 382.715820312 -11.9697265625 204.591796875 -11.9697265625 c 0
 153.990234375 -11.9697265625 94.60546875 17.78125 50.13671875 71.3134765625 c 0
 45.3701171875 77.048828125 43.3603515625 84.6220703125 43.3603515625 91.248046875 c 0
 43.3603515625 106.404296875 54.26171875 121.030273438 66.0361328125 121.030273438 c 0
 74.2021484375 121.030273438 78.240234375 115.408203125 80.47265625 112.611328125 c 1
 106.771484375 79.919921875 165.889648438 54.5302734375 203.420898438 54.5302734375 c 0
 309.251953125 54.5302734375 393.81640625 142.521484375 393.81640625 217.348632812 c 0
 393.81640625 292.006835938 375.858398438 334 307.69140625 334 c 0
 224.115234375 334 124.873046875 295.797851562 61.755859375 260.974609375 c 1
 233.686523438 611.09765625 l 1
EndSplineSet
Validated: 1
EndChar

StartChar: equal
Encoding: 61 61 69
GlifName: equal
Width: 423
VWidth: 0
Flags: W
HStem: 186.4 80.1992<73.7148 333.339> 324.4 80.1992<90.2319 356.247>
VStem: 60.1406 278.942<187.068 265.936> 84.291 278.941<325.068 403.936>
LayerCount: 2
Fore
SplineSet
93.61328125 324.901367188 m 2xd0
 85.3134765625 328.219726562 84.291015625 347.495117188 84.291015625 354.10546875 c 0
 84.291015625 366.727539062 92.693359375 404.599609375 109.712890625 404.599609375 c 0
 350.462890625 404.599609375 l 0
 360.995117188 404.599609375 363.232421875 392.657226562 363.232421875 390.228515625 c 0
 363.232421875 382.133789062 358.466796875 324.400390625 339.962890625 324.400390625 c 0
 97.865234375 324.400390625 l 1
 93.61328125 324.901367188 l 2xd0
72.462890625 186.901367188 m 2
 64.1630859375 190.219726562 60.140625 209.495117188 60.140625 216.104492188 c 0
 60.140625 228.727539062 68.54296875 266.599609375 85.5625 266.599609375 c 0
 326.3125 266.599609375 l 0
 336.84375 266.599609375 339.083007812 244.658203125 339.083007812 242.228515625 c 0xe0
 339.083007812 234.134765625 334.31640625 186.400390625 315.8125 186.400390625 c 0
 73.71484375 186.400390625 l 1
 72.462890625 186.901367188 l 2
EndSplineSet
Validated: 1
EndChar

StartChar: asterisk
Encoding: 42 42 70
GlifName: asterisk
Width: 418
VWidth: 0
Flags: W
LayerCount: 2
Fore
SplineSet
229.556640625 671.056640625 m 2
 231.598632812 681.268554688 241.53125 689.478515625 252.046875 689.478515625 c 2
 255.6953125 689.478515625 l 0
 265.229492188 689.478515625 273.717773438 682.022460938 273.717773438 671.4140625 c 0
 273.717773438 670.173828125 273.640625 669.204101562 273.400390625 667.762695312 c 1
 249.759765625 547.411132812 l 1
 360.455078125 601.147460938 l 1
 363.759765625 602.799804688 366.841796875 604.356445312 371.21875 604.356445312 c 0
 379.8984375 604.356445312 391.181640625 598.3515625 391.181640625 585.760742188 c 0
 391.181640625 574.770507812 386.161132812 567.26171875 376.889648438 561.9765625 c 1
 265.85546875 494.245117188 l 1
 344.842773438 427.326171875 l 0
 347.2109375 425.319335938 351.8125 421.001953125 351.8125 414.12890625 c 0
 351.8125 405.96484375 347.904296875 399.828125 344.184570312 396.01953125 c 0
 340.109375 391.84765625 333.762695312 386.28125 325.008789062 386.28125 c 0
 323.293945312 386.28125 319.608398438 386.331054688 315.786132812 388.768554688 c 0
 227.80859375 444.853515625 l 1
 194.20703125 320.52734375 l 1
 194.20703125 320.52734375 178.325195312 302.375 170.573242188 302.375 c 0
 166.924804688 302.375 l 0
 157.390625 302.375 148.90234375 309.831054688 148.90234375 320.439453125 c 0
 148.90234375 321.663085938 148.985351562 322.684570312 149.21484375 324.0625 c 1
 171.770507812 443.284179688 l 1
 58.5927734375 388.311523438 l 0
 55.392578125 386.7578125 51.912109375 386.28125 48.970703125 386.28125 c 0
 37.810546875 386.28125 31.4384765625 397.08984375 31.4384765625 405.940429688 c 0
 31.4384765625 408.315429688 31.6708984375 412.041992188 32.6044921875 415.68359375 c 0
 34.6787109375 423.778320312 41.671875 426.9375 43.5634765625 428.080078125 c 0
 156.642578125 496.375 l 1
 77.763671875 562.1171875 l 0
 74.201171875 565.092773438 70.537109375 569.873046875 70.537109375 576.435546875 c 0
 70.537109375 592.447265625 84.14453125 604.356445312 96.3955078125 604.356445312 c 0
 98.6669921875 604.356445312 102.551757812 604.05859375 106.099609375 602.28515625 c 0
 106.45703125 602.106445312 l 1
 195.98828125 545.735351562 l 1
 229.556640625 671.056640625 l 2
EndSplineSet
Validated: 1
EndChar

StartChar: numbersign
Encoding: 35 35 71
GlifName: numbersign
Width: 741
VWidth: 0
Flags: W
HStem: 227 59<61.8251 156.271 274.038 347.271 464.038 581.517> 486 59<172.103 275.318 392.04 466.271 581.04 690.633>
LayerCount: 2
Fore
SplineSet
398.154296875 737 m 2
 457.154296875 737 l 0
 460.796875 737 472.345703125 736.147460938 472.345703125 725.083007812 c 0
 472.345703125 722.484375 471.762695312 719.8125 470.5234375 717.095703125 c 0
 392.040039062 545 l 1
 487.653320312 545 l 1
 568.46484375 722.201171875 l 1
 572.548828125 732.427734375 579.162109375 737 588.154296875 737 c 0
 646.154296875 737 l 0
 650.30078125 737 661.30859375 735.646484375 661.30859375 724.719726562 c 0
 661.30859375 722.62890625 660.905273438 720.125 659.5234375 717.095703125 c 0
 581.040039062 545 l 1
 684.154296875 545 l 0
 686.62890625 545 698.30859375 544.618164062 698.30859375 534.46875 c 0
 698.30859375 529.1171875 697.620117188 525.20703125 696.375 522.7890625 c 0
 688.395507812 501.829101562 l 1
 684.915039062 494.868164062 677.612304688 486 667.154296875 486 c 0
 560.65625 486 l 1
 464.038085938 286 l 1
 577.154296875 286 l 0
 582.483398438 286 591.30859375 283.40625 591.30859375 274.46875 c 0
 591.30859375 270.162109375 589.497070312 267.970703125 588.37890625 265.798828125 c 0
 578.397460938 240.833984375 l 1
 574.379882812 232.799804688 566.23046875 227 557.154296875 227 c 0
 440.65625 227 l 1
 341.5234375 17.0966796875 l 0
 339.059570312 11.6904296875 334.731445312 3 324.154296875 3 c 0
 264.154296875 3 l 0
 258.34375 3 248.909179688 5.7041015625 248.909179688 15.2451171875 c 0
 248.909179688 17.8857421875 249.525390625 20.140625 250.78515625 22.9033203125 c 0
 347.270507812 227 l 1
 250.676757812 227 l 1
 152.53515625 17.1220703125 l 0
 149.69140625 10.8154296875 144.31640625 3 134.154296875 3 c 0
 73.154296875 3 l 0
 67.0341796875 3 58 6.216796875 58 16 c 0
 58 19.150390625 58.8828125 20.92578125 59.78515625 22.9033203125 c 0
 156.270507812 227 l 1
 68.154296875 227 l 0
 63.2119140625 227 53 229.186523438 53 239.500976562 c 0
 53 244.055664062 54.9287109375 247.259765625 55.931640625 249.206054688 c 0
 64.912109375 272.16796875 l 1
 68.927734375 280.198242188 77.078125 286 86.154296875 286 c 0
 179.631835938 286 l 1
 275.318359375 486 l 1
 177.154296875 486 l 0
 172.770507812 486 161.962890625 487.611328125 161.962890625 498.165039062 c 0
 161.962890625 502.923828125 163.978515625 506.35546875 164.931640625 508.206054688 c 0
 171.912109375 531.16796875 l 1
 175.927734375 539.198242188 184.078125 545 193.154296875 545 c 0
 296.653320312 545 l 1
 377.362304688 721.9765625 l 1
 381.985351562 733.185546875 389.4296875 737 398.154296875 737 c 2
370.65625 486 m 1
 274.038085938 286 l 1
 369.65234375 286 l 1
 466.270507812 486 l 1
 370.65625 486 l 1
EndSplineSet
Validated: 1
EndChar

StartChar: six
Encoding: 54 54 72
GlifName: six
Width: 586
VWidth: 0
Flags: W
HStem: -8 41<209.321 309.964> 344.66 67.6484<285.353 426.405>
VStem: 37.2529 133.494<92.906 305.543> 402.649 132.66<164.596 316.062>
LayerCount: 2
Fore
SplineSet
513.955078125 597.1328125 m 4
 320.974609375 543.071289062 170.747070312 396.028320312 170.747070312 171.435546875 c 4
 170.747070312 97.0380859375 204.208007812 33 244.63671875 33 c 4
 323.967773438 33 402.649414062 116.79296875 402.649414062 250.352539062 c 4
 402.649414062 311.661132812 361.765625 344.66015625 330.401367188 344.66015625 c 4
 303.231445312 344.66015625 280.140625 333.766601562 255.408203125 314.190429688 c 4
 254.954101562 313.831054688 l 5
 254.479492188 313.517578125 l 4
 249.780273438 310.418945312 243.41015625 307.079101562 238.399414062 307.079101562 c 4
 230.120117188 307.079101562 220.053710938 313.227539062 220.053710938 325.606445312 c 4
 220.053710938 333.52734375 227.997070312 341.141601562 231.879882812 346.442382812 c 5
 254.502929688 374.473632812 298.676757812 412.30859375 375.493164062 412.30859375 c 4
 477.219726562 412.30859375 535.309570312 373.396484375 535.309570312 271.430664062 c 4
 535.309570312 120.53125 416.286132812 -8 226.749023438 -8 c 4
 109.930664062 -8 37.2529296875 79.3828125 37.2529296875 185.563476562 c 4
 37.2529296875 457.48828125 317.104492188 598.63671875 517.948242188 636.732421875 c 5
 529.436523438 639.125976562 l 5
 531.067382812 633.947265625 l 6
 532.177734375 630.420898438 532.76953125 626.701171875 532.76953125 623.022460938 c 4
 532.76953125 611.735351562 527.198242188 600.842773438 513.955078125 597.1328125 c 4
EndSplineSet
Validated: 1
EndChar

StartChar: nine
Encoding: 57 57 73
GlifName: nine
Width: 611
VWidth: 0
Flags: W
HStem: 239.96 70.04<191.678 308.073> 600 41<297.566 400.795>
VStem: 80.7148 123.86<325.317 480.304> 429.191 125.819<341.588 561.967>
LayerCount: 2
Fore
SplineSet
74.4462890625 -6.58984375 m 1
 73.916015625 -5.1884765625 72 -0.0068359375 72 6.95703125 c 0
 72 19.19921875 78.7353515625 30.759765625 92.90625 34.642578125 c 1
 276.912109375 90.265625 429.19140625 256.771484375 429.19140625 480.65625 c 0
 429.19140625 550.860351562 404.798828125 600 354.870117188 600 c 0
 299.772460938 600 204.575195312 529.17578125 204.575195312 399.665039062 c 0
 204.575195312 332.391601562 230 310 266.965820312 310 c 0
 311.991210938 310 323.991210938 328.10546875 346.557617188 347.045898438 c 0
 352.48828125 352.021484375 358.4765625 353.759765625 364.337890625 353.759765625 c 0
 373.080078125 353.759765625 381.895507812 346.846679688 381.895507812 337.3515625 c 0
 381.895507812 328.823242188 377.220703125 322.119140625 374.051757812 318.485351562 c 0
 373.729492188 318.116210938 l 1
 373.327148438 317.729492188 l 0
 344.091796875 289.690429688 308.702148438 239.959960938 222.041992188 239.959960938 c 0
 162.463867188 239.959960938 80.71484375 279.288085938 80.71484375 379.70703125 c 0
 80.71484375 549.379882812 230.678710938 641 361.69140625 641 c 0
 470.586914062 641 555.010742188 593.250976562 555.010742188 472.290039062 c 0
 555.010742188 165.118164062 281.2734375 30.8544921875 89.93359375 -14.587890625 c 1
 78.3720703125 -17.6044921875 l 1
 74.4462890625 -6.58984375 l 1
EndSplineSet
Validated: 1
EndChar

StartChar: exclam
Encoding: 33 33 74
GlifName: exclam
Width: 344
VWidth: 0
Flags: W
HStem: -18 116<65.4169 136.73>
VStem: 45 112.573<3.13892 77.5818>
LayerCount: 2
Fore
SplineSet
113.313476562 98 m 0
 139.765625 98 157.573242188 77.3359375 157.573242188 51.5625 c 0
 157.573242188 12.0322265625 121.516601562 -18 89.3134765625 -18 c 0
 62.212890625 -18 45 2.4755859375 45 27.9921875 c 0
 45 67.62109375 79.865234375 98 113.313476562 98 c 0
265.013671875 765.375 m 2
 267.11328125 765.375 l 0
 298.286132812 765.375 317.622070312 748.780273438 317.622070312 728.961914062 c 0
 317.622070312 723.006835938 316.759765625 716.900390625 315.140625 710.420898438 c 1
 173.876953125 220.021484375 l 0
 169.370117188 203.122070312 156.172851562 189.625 137.963867188 189.625 c 0
 120.806640625 189.625 110.370117188 199.965820312 110.370117188 213.560546875 c 0
 110.370117188 216.608398438 110.732421875 219.860351562 111.39453125 223.173828125 c 1
 195.919921875 713.654296875 l 1
 195.95703125 713.80859375 l 0
 202.672851562 741.790039062 230.325195312 765.375 265.013671875 765.375 c 2
EndSplineSet
Validated: 1
EndChar

StartChar: percent
Encoding: 37 37 75
GlifName: percent
Width: 828
VWidth: 0
Flags: W
HStem: 3.60547 30.2314<542.532 593.916> 264.167 30.207<167.722 218.956> 351.478 30.335<613.096 665.883> 568.94 31.7471<383.133 565.38> 601.554 34.2939<227.05 293.202>
VStem: 57.9766 95.6182<308.926 483.452> 306.862 83.3779<421.69 579.911> 429.086 97.9756<49.5868 227.077> 679.575 82.6191<160.972 341.6>
LayerCount: 2
Fore
SplineSet
429.0859375 122.696289062 m 0
 429.0859375 272.090820312 552.25390625 381.8125 652.83203125 381.8125 c 0
 717.147460938 381.8125 762.194335938 340.40625 762.194335938 270.212890625 c 0
 762.194335938 121.831054688 651.678710938 3.60546875 549.206054688 3.60546875 c 0
 480.670898438 3.60546875 429.0859375 47.677734375 429.0859375 122.696289062 c 0
643.956054688 351.477539062 m 0
 593.315429688 351.477539062 527.061523438 217.782226562 527.061523438 124.478515625 c 0
 527.061523438 79.7548828125 538.373046875 33.8369140625 562.965820312 33.8369140625 c 0
 614.139648438 33.8369140625 679.575195312 166.53125 679.575195312 261.79296875 c 0
 679.575195312 304.778320312 674.169921875 351.477539062 643.956054688 351.477539062 c 0
277.94921875 635.84765625 m 0
 303.724609375 635.84765625 326.078125 628.948242188 341.421875 618.037109375 c 1
 403.36328125 609.768554688 438.350585938 600.6875 468.6953125 600.6875 c 0
 611.629882812 600.6875 591.947265625 662.998046875 663.545898438 662.998046875 c 0
 669.80078125 662.998046875 676.947265625 662.90625 681.946289062 657.891601562 c 0
 702.6875 647.354492188 l 0
 704.561523438 645.513671875 708.572265625 642.305664062 708.572265625 636.563476562 c 0
 708.572265625 631.077148438 705.575195312 627.306640625 703.782226562 625.147460938 c 0
 165.329101562 -8.607421875 l 0
 162.228515625 -12.4287109375 157.791992188 -13.904296875 154.124023438 -13.904296875 c 0
 147.872070312 -13.904296875 129.739257812 -4.580078125 127.005859375 -2.76171875 c 1
 122.749023438 0.9013671875 l 1
 122.435546875 1.1171875 l 0
 118.55859375 3.7783203125 116.453125 8.001953125 116.453125 12.0380859375 c 0
 116.453125 17.1279296875 118.963867188 21.0849609375 121.358398438 23.966796875 c 0
 608.455078125 604.985351562 l 1
 577.37109375 587.381835938 538.78125 568.940429688 463.793945312 568.940429688 c 0
 431.03125 568.940429688 410.98828125 575.032226562 381.728515625 580.71484375 c 1
 387.220703125 564.478515625 390.240234375 549.689453125 390.240234375 530.774414062 c 0
 390.240234375 382.391601562 276.397460938 264.166992188 173.751953125 264.166992188 c 0
 107.618164062 264.166992188 57.9765625 307.208007812 57.9765625 380.4296875 c 0
 57.9765625 526.157226562 174.751953125 635.84765625 277.94921875 635.84765625 c 0
226.1875 596.514648438 m 1
 186.243164062 567.5546875 153.594726562 460.422851562 153.594726562 384.203125 c 0
 153.594726562 340.038085938 163.76953125 294.374023438 188.020507812 294.374023438 c 0
 239.193359375 294.374023438 306.862304688 417.064453125 306.862304688 522.329101562 c 0
 306.862304688 551.372070312 296.66796875 589.408203125 282.426757812 600.8671875 c 1
 274.06640625 601.374023438 267.754882812 601.553710938 260.376953125 601.553710938 c 0
 243.18359375 601.553710938 244.908203125 599.935546875 226.1875 596.514648438 c 1
EndSplineSet
Validated: 1
EndChar

StartChar: seven
Encoding: 55 55 76
GlifName: seven
Width: 545
VWidth: 0
Flags: W
HStem: 0 21G<41 173.222> 546 76<150.451 437.607>
LayerCount: 2
Fore
SplineSet
44.0810546875 7.9521484375 m 0
 105.434570312 166.287109375 292.8671875 399.01171875 437.607421875 546 c 1
 171.708984375 546 l 0
 155.581054688 546 148.497070312 527.549804688 147.474609375 526.380859375 c 1
 143.580078125 522 l 1
 137.7421875 522 l 0
 126.880859375 522 123.924804688 534.344726562 123.924804688 534.344726562 c 0
 123.396484375 536.185546875 l 1
 125.30078125 541.598632812 l 1
 152.127929688 604.908203125 l 1
 152.595703125 605.688476562 l 0
 156.720703125 612.565429688 163.401367188 622 174.885742188 622 c 0
 566.7421875 622 l 0
 578.861328125 622 586.98828125 612.625976562 586.98828125 602.450195312 c 0
 586.98828125 588.892578125 575.830078125 578.947265625 573.899414062 576.594726562 c 1
 420.25 395.072265625 235.516601562 163.466796875 173.221679688 3.9013671875 c 0
 171.765625 0 l 1
 41 0 l 1
 44.0810546875 7.9521484375 l 0
EndSplineSet
Validated: 1
EndChar

StartChar: eight
Encoding: 56 56 77
GlifName: eight
Width: 596
VWidth: 0
Flags: W
HStem: -8 40<213.039 313.276> 607 36<342.293 432.852>
VStem: 52 131.038<61.6638 204.652> 162.442 133.238<433.546 539.763> 379.769 128.518<121.329 251.69> 445.978 115.352<481.237 587.428>
LayerCount: 2
Fore
SplineSet
311.05078125 298.533203125 m 1xe8
 218.956054688 236.258789062 183.038085938 204.81640625 183.038085938 131.481445312 c 0
 183.038085938 69.7236328125 222.330078125 32 254.481445312 32 c 0
 319.48828125 32 379.768554688 102.189453125 379.768554688 178.485351562 c 0
 379.768554688 231.1875 360.482421875 260.499023438 311.05078125 298.533203125 c 1xe8
394.469726562 607 m 0
 337.7890625 607 295.680664062 555.618164062 295.680664062 497.454101562 c 0
 295.680664062 456.80859375 308.568359375 436.240234375 345.348632812 407.955078125 c 1
 400.612304688 447.74609375 445.977539062 491.139648438 445.977539062 536.71484375 c 0xd4
 445.977539062 585.466796875 427.333007812 607 394.469726562 607 c 0
408.57421875 643 m 0
 480.38671875 643 561.329101562 597.553710938 561.329101562 532.452148438 c 0xd4
 561.329101562 448.642578125 466.998046875 399.16796875 412.185546875 363.708007812 c 1
 464.8359375 316.57421875 508.286132812 267.015625 508.286132812 194.616210938 c 0
 508.286132812 87.9462890625 378.294921875 -8 236.444335938 -8 c 0
 153.017578125 -8 52 39.6728515625 52 123.051757812 c 0xe8
 52 227.341796875 141.649414062 282.419921875 235.37890625 341.364257812 c 1
 197.1875 372.05078125 162.442382812 405.290039062 162.442382812 464.971679688 c 0
 162.442382812 550.5703125 244.754882812 643 408.57421875 643 c 0
EndSplineSet
Validated: 1
EndChar

StartChar: question
Encoding: 63 63 78
GlifName: question
Width: 598
VWidth: 0
Flags: W
HStem: -17 116<159.417 230.73> 743.575 32.7998<310.972 385.218>
VStem: 127.209 135.865<636.371 699.871> 139 112.573<4.13892 78.5818> 172.062 90.5781<200.167 299.475> 423.215 124.921<560.893 697.003>
LayerCount: 2
Fore
SplineSet
185.915039062 332.84765625 m 1xcc
 185.931640625 333.521484375 l 1
 186.076171875 334.178710938 l 0
 198.599609375 391.098632812 261.34375 441.690429688 302.837890625 475.088867188 c 1
 378.245117188 535.196289062 423.21484375 554.012695312 423.21484375 633.541992188 c 0
 423.21484375 697.13671875 386.056640625 743.575195312 351.213867188 743.575195312 c 0
 305.4609375 743.575195312 272.770507812 685.044921875 263.07421875 663.712890625 c 1
 250.612304688 634.256835938 202.612304688 606.575195312 182.313476562 606.575195312 c 0
 161.526367188 606.575195312 127.208984375 634.979492188 127.208984375 656.310546875 c 0xe4
 127.208984375 728.30859375 253.416992188 776.375 347.763671875 776.375 c 0
 444.241210938 776.375 548.135742188 725.971679688 548.135742188 626.958984375 c 0
 548.135742188 516.524414062 461.575195312 491.083984375 395.478515625 444.490234375 c 0
 353.259765625 414.938476562 313.575195312 386.833984375 298.696289062 345.694335938 c 0
 275.470703125 281.478515625 264.697265625 204.399414062 262.640625 196.163085938 c 1
 172.0625 200.166992188 l 1
 176.884765625 244.80859375 185.915039062 332.84765625 185.915039062 332.84765625 c 1xcc
207.313476562 99 m 0
 233.765625 99 251.573242188 78.3359375 251.573242188 52.5625 c 0
 251.573242188 13.0322265625 215.516601562 -17 183.313476562 -17 c 0
 156.212890625 -17 139 3.4755859375 139 28.9921875 c 0xd4
 139 68.62109375 173.865234375 99 207.313476562 99 c 0
EndSplineSet
Validated: 1
EndChar

StartChar: quotesingle
Encoding: 39 39 79
GlifName: quotesingle
Width: 170
VWidth: 0
Flags: W
HStem: 489.85 209.155<65.6397 92.6996>
VStem: 54.6543 92.0869<601.398 687.382>
LayerCount: 2
Fore
SplineSet
106.249023438 699.004882812 m 2
 111.252929688 699.004882812 l 0
 132.047851562 699.004882812 146.741210938 685.459960938 146.741210938 667.125 c 0
 146.741210938 659.618164062 143.405273438 650.893554688 141.20703125 644.52734375 c 0
 91.9296875 507.655273438 l 1
 88.771484375 495.401367188 79.5498046875 489.849609375 68.7197265625 489.849609375 c 0
 52.4580078125 489.849609375 l 0
 41.7822265625 489.849609375 35.0537109375 497.536132812 35.0537109375 506.076171875 c 0
 35.0537109375 507.518554688 35.2314453125 509.205078125 35.4541015625 510.45703125 c 1
 54.654296875 653.577148438 l 1
 58.802734375 679.17578125 84.947265625 699.004882812 106.249023438 699.004882812 c 2
EndSplineSet
Validated: 1
EndChar

StartChar: quotedbl
Encoding: 34 34 80
GlifName: quotedbl
Width: 307
VWidth: 0
Flags: W
HStem: 489.85 209.155<65.6397 92.6996 188.64 215.7>
VStem: 54.6543 92.0869<601.398 687.382> 177.654 92.0869<601.398 687.382>
LayerCount: 2
Fore
SplineSet
229.249023438 699.004882812 m 2
 234.252929688 699.004882812 l 0
 255.047851562 699.004882812 269.741210938 685.459960938 269.741210938 667.125 c 0
 269.741210938 659.618164062 266.405273438 650.893554688 264.20703125 644.52734375 c 0
 214.9296875 507.655273438 l 1
 211.771484375 495.401367188 202.549804688 489.849609375 191.719726562 489.849609375 c 0
 175.458007812 489.849609375 l 0
 164.782226562 489.849609375 158.053710938 497.536132812 158.053710938 506.076171875 c 0
 158.053710938 507.518554688 158.231445312 509.205078125 158.454101562 510.45703125 c 1
 177.654296875 653.577148438 l 1
 181.802734375 679.17578125 207.947265625 699.004882812 229.249023438 699.004882812 c 2
106.249023438 699.004882812 m 2
 111.252929688 699.004882812 l 0
 132.047851562 699.004882812 146.741210938 685.459960938 146.741210938 667.125 c 0
 146.741210938 659.618164062 143.405273438 650.893554688 141.20703125 644.52734375 c 0
 91.9296875 507.655273438 l 1
 88.771484375 495.401367188 79.5498046875 489.849609375 68.7197265625 489.849609375 c 0
 52.4580078125 489.849609375 l 0
 41.7822265625 489.849609375 35.0537109375 497.536132812 35.0537109375 506.076171875 c 0
 35.0537109375 507.518554688 35.2314453125 509.205078125 35.4541015625 510.45703125 c 1
 54.654296875 653.577148438 l 1
 58.802734375 679.17578125 84.947265625 699.004882812 106.249023438 699.004882812 c 2
EndSplineSet
Validated: 1
EndChar

StartChar: underscore
Encoding: 95 95 81
GlifName: underscore
Width: 449
VWidth: 0
Flags: W
HStem: -11 76<67.8753 373.501>
VStem: 62.8154 315.52<-10.7649 64.7499>
LayerCount: 2
Fore
SplineSet
77.271484375 -11 m 2
 66.2060546875 -11 62.8154296875 10.6796875 62.8154296875 15.9853515625 c 0
 62.8154296875 27.927734375 69.271484375 65 86.7216796875 65 c 0
 364.12109375 65 l 0
 375.232421875 65 378.334960938 42.8515625 378.334960938 37.4404296875 c 0
 378.334960938 25.62890625 371.55078125 -11 354.670898438 -11 c 0
 77.271484375 -11 l 2
EndSplineSet
Validated: 1
EndChar

StartChar: bracketleft
Encoding: 91 91 82
GlifName: bracketleft
Width: 478
VWidth: 0
Flags: W
HStem: -110.15 50.2002<138.671 257.217> 706.95 43.2002<313.704 443.966>
LayerCount: 2
Fore
SplineSet
313.704101562 706.950195312 m 1
 138.670898438 -59.9501953125 l 1
 245.879882812 -59.9501953125 l 0
 257.458984375 -59.9501953125 258.09375 -73.076171875 258.09375 -78.6455078125 c 0
 258.09375 -92.146484375 253.254882812 -110.150390625 237.379882812 -110.150390625 c 0
 56.73046875 -110.150390625 l 0
 44.3798828125 -110.150390625 35.0771484375 -103.2109375 35.0771484375 -90.3564453125 c 0
 35.0771484375 -87.2900390625 35.482421875 -84.1982421875 36.2470703125 -80.62890625 c 1
 222.096679688 723.671875 l 1
 225.859375 741.227539062 238.010742188 750.150390625 256.23046875 750.150390625 c 0
 432.6796875 750.150390625 l 0
 443.641601562 750.150390625 444.141601562 738.051757812 444.141601562 733.501953125 c 0
 444.141601562 721.158203125 441.78515625 706.950195312 425.1796875 706.950195312 c 0
 313.704101562 706.950195312 l 1
EndSplineSet
Validated: 1
EndChar

StartChar: bracketright
Encoding: 93 93 83
GlifName: bracketright
Width: 481
VWidth: 0
Flags: W
HStem: -110.15 50.2002<33.7942 164.921> 705.95 44.2002<221.88 341.984>
LayerCount: 2
Fore
SplineSet
341.984375 705.950195312 m 1
 233.737304688 705.950195312 l 0
 222.232421875 705.950195312 221.815429688 719.202148438 221.815429688 724.381835938 c 0
 221.815429688 736.760742188 223.08203125 750.150390625 240.237304688 750.150390625 c 0
 417.737304688 750.150390625 l 0
 432.114257812 750.150390625 443.459960938 743.776367188 443.459960938 729.399414062 c 0
 443.459960938 726.584960938 443.099609375 723.799804688 442.420898438 720.62890625 c 1
 256.5703125 -83.671875 l 1
 252.880859375 -100.891601562 241.2421875 -110.150390625 225.587890625 -110.150390625 c 0
 44.9375 -110.150390625 l 0
 33.431640625 -110.150390625 33.015625 -96.8974609375 33.015625 -91.716796875 c 0
 33.015625 -79.3369140625 36.283203125 -59.9501953125 53.4375 -59.9501953125 c 0
 164.920898438 -59.9501953125 l 1
 341.984375 705.950195312 l 1
EndSplineSet
Validated: 1
EndChar

StartChar: bar
Encoding: 124 124 84
GlifName: bar
Width: 354
VWidth: 0
Flags: W
VStem: 99.2139 155.786
LayerCount: 2
Fore
SplineSet
205.674804688 -65.47265625 m 2
 201.631835938 -79.62890625 160.368164062 -84.0498046875 148.544921875 -84.0498046875 c 0
 139.026367188 -84.0498046875 99.2138671875 -80.4111328125 99.2138671875 -65.1162109375 c 0
 148.58984375 752.75 l 1
 151.014648438 767.299804688 192.927734375 772.049804688 204.89453125 772.049804688 c 0
 214.850585938 772.049804688 254.920898438 767.763671875 255 753 c 2
 205.884765625 -64.7373046875 l 1
 205.674804688 -65.47265625 l 2
EndSplineSet
Validated: 1
EndChar

StartChar: asciitilde
Encoding: 126 126 85
Width: 560
VWidth: 0
Flags: W
HStem: 222.7 83.2998<304.573 405.339> 294.1 81.2002<144.932 241.765>
LayerCount: 2
Fore
SplineSet
208.1015625 375.299804688 m 0x40
 289.848632812 375.299804688 290.532226562 306 364.551757812 306 c 0
 419.174804688 306 473.920898438 358.5 489.500976562 358.5 c 0
 495.838867188 358.5 505.063476562 354.875 505.063476562 345.427734375 c 0
 505.063476562 344.422851562 504.93359375 343.418945312 504.692382812 342.453125 c 0
 497.357421875 313.11328125 406.7578125 222.700195312 338.301757812 222.700195312 c 0x80
 255.415039062 222.700195312 257.403320312 294.099609375 188.151367188 294.099609375 c 0
 146.077148438 294.099609375 95.345703125 251.049804688 69.5009765625 251.049804688 c 0
 61.9306640625 251.049804688 54.599609375 256.836914062 54.599609375 265.939453125 c 0
 54.599609375 267.782226562 54.8857421875 269.650390625 55.4208984375 271.522460938 c 0
 58.7412109375 283.147460938 143.518554688 375.299804688 208.1015625 375.299804688 c 0x40
EndSplineSet
Validated: 1
EndChar

StartChar: dieresis
Encoding: 168 168 86
Width: 433
VWidth: 0
Flags: W
HStem: 614.7 110.6<147.115 217.257 365.514 435.657>
VStem: 128.581 107.21<633.356 706.643> 346.981 107.21<633.357 706.644>
LayerCount: 2
Fore
SplineSet
412.135742188 725.299804688 m 0
 437.292178731 725.299804688 454.190744594 706.7532163 454.190744594 682.268358678 c 0
 454.190744594 643.488978006 420.540840309 614.700195312 389.036132812 614.700195312 c 0
 363.879107575 614.700195312 346.980543483 633.247561005 346.980543483 657.732987012 c 0
 346.980543483 696.512234684 380.630905613 725.299804688 412.135742188 725.299804688 c 0
193.735351562 725.299804688 m 0
 218.892376799 725.299804688 235.790940892 706.752438995 235.790940892 682.267012989 c 0
 235.790940892 643.487765316 202.140578761 614.700195312 170.635742188 614.700195312 c 0
 145.479305644 614.700195312 128.58073978 633.246783701 128.58073978 657.731641323 c 0
 128.58073978 696.511021994 162.230644066 725.299804688 193.735351562 725.299804688 c 0
EndSplineSet
Validated: 1
EndChar

StartChar: grave
Encoding: 96 96 93
Width: 303
VWidth: 0
Flags: W
HStem: 524.891 226.109
VStem: 66 92.2021<692.065 734.748>
LayerCount: 2
Fore
SplineSet
213.833007812 528.67578125 m 2
 172.236328125 564.185546875 84.9453125 647.029296875 73.5537109375 664.1171875 c 0
 68.669921875 671.442382812 66 680.024414062 66 689.171875 c 0
 66 722.774414062 96.6923828125 751 125.377929688 751 c 0
 138.010742188 751 150.6171875 746.259765625 158.202148438 734.8828125 c 0
 169.401367188 718.083984375 218.66015625 602.116210938 240.82421875 549.727539062 c 0
 242.874023438 544.883789062 l 1
 218.267578125 524.890625 l 1
 213.833007812 528.67578125 l 2
EndSplineSet
Validated: 1
EndChar

StartChar: acute
Encoding: 180 180 94
Width: 315
VWidth: 0
Flags: W
HStem: 524.976 225.928
VStem: 30.3779 225.993
LayerCount: 2
Fore
SplineSet
51.8427734375 524.975585938 m 1
 30.3779296875 546.440429688 l 1
 33.720703125 551.247070312 l 0
 69.9345703125 603.314453125 152.252929688 719.54296875 168.491210938 735.780273438 c 0
 178.549804688 745.838867188 191.725585938 750.903320312 204.870117188 750.903320312 c 0
 218.013671875 750.903320312 231.188476562 745.838867188 241.247070312 735.780273438 c 0
 251.306640625 725.721679688 256.37109375 712.546875 256.37109375 699.40234375 c 0
 256.37109375 686.2578125 251.306640625 673.083007812 241.247070312 663.022460938 c 0
 225.046875 646.823242188 109.536132812 563.78125 56.625 528.19140625 c 0
 51.8427734375 524.975585938 l 1
EndSplineSet
Validated: 1
EndChar

StartChar: less
Encoding: 60 60 114
Width: 533
VWidth: 0
Flags: W
LayerCount: 2
Fore
SplineSet
194.0859375 313.146484375 m 1
 398.823242188 174.96875 l 1
 373.560546875 72.1796875 l 1
 31.2939453125 300.884765625 l 1
 35.7392578125 324.591796875 l 1
 484.34375 553.458984375 l 1
 451.099609375 441.348632812 l 1
 194.0859375 313.146484375 l 1
EndSplineSet
Validated: 1
EndChar

StartChar: greater
Encoding: 62 62 115
Width: 529
VWidth: 0
Flags: W
LayerCount: 2
Fore
SplineSet
325.9140625 314.853515625 m 1
 128.18359375 453.026367188 l 1
 155.422851562 551.83203125 l 1
 477.706054688 323.115234375 l 1
 473.260742188 299.408203125 l 1
 44.6396484375 70.5322265625 l 1
 84.9033203125 186.653320312 l 1
 325.9140625 314.853515625 l 1
EndSplineSet
Validated: 1
EndChar

StartChar: asciicircum
Encoding: 94 94 116
Width: 498
VWidth: 0
Flags: W
HStem: 547.435 233.851
LayerCount: 2
Fore
SplineSet
461.370117188 581.723632812 m 2
 454.125976562 568.443359375 433.018554688 551.02734375 422.239257812 547.434570312 c 0
 418.311523438 546.125 l 1
 293.26953125 641.7890625 l 1
 115.458984375 546.368164062 l 1
 112.260742188 547.434570312 l 0
 100.072265625 551.497070312 82.775390625 571.926757812 82.775390625 585.075195312 c 0
 82.775390625 588.279296875 l 1
 316.313476562 781.28515625 l 1
 463.44921875 585.53515625 l 1
 461.370117188 581.723632812 l 2
EndSplineSet
Validated: 1
EndChar

StartChar: divide
Encoding: 247 247 137
Width: 388
VWidth: 0
Flags: W
HStem: 121.551 100.946<134.527 201.551> 257.95 80.2002<65.29 328.622> 373.35 99.7637<184.214 252.014>
VStem: 54.7158 278.942<258.618 338.123> 118.903 97.8047<137.198 207.41> 169.503 97.8037<388.996 458.704>
LayerCount: 2
Fore
SplineSet
169.502929688 412.700195312 m 4xe4
 169.502929688 447.719726562 199.752929688 473.11328125 228.497070312 473.11328125 c 4
 250.620117188 473.11328125 267.306640625 456.758789062 267.306640625 434.342773438 c 4
 267.306640625 399.674804688 235.763671875 373.349609375 208.387695312 373.349609375 c 4
 185.224609375 373.349609375 169.502929688 390.595703125 169.502929688 412.700195312 c 4xe4
118.903320312 160.901367188 m 4xe8
 118.903320312 195.651367188 148.989257812 222.497070312 177.899414062 222.497070312 c 4
 200.338867188 222.497070312 216.708007812 205.046875 216.708007812 182.620117188 c 4
 216.708007812 147.915039062 185.220703125 121.55078125 157.788085938 121.55078125 c 4
 134.625976562 121.55078125 118.903320312 138.796875 118.903320312 160.901367188 c 4xe8
65.2900390625 257.950195312 m 5
 64.0380859375 258.451171875 l 6
 55.73828125 261.770507812 54.7158203125 281.044921875 54.7158203125 287.655273438 c 4
 54.7158203125 300.276367188 60.1181640625 338.150390625 77.1376953125 338.150390625 c 4
 323.887695312 338.150390625 l 4
 333.418945312 338.150390625 333.658203125 326.406799055 333.658203125 323.780273438 c 4xf0
 333.658203125 316 331.890625 257.950195312 313.387695312 257.950195312 c 4
 65.2900390625 257.950195312 l 5
EndSplineSet
Validated: 1
EndChar

StartChar: dollar
Encoding: 36 36 142
Width: 556
VWidth: 0
Flags: W
VStem: 50.6455 75.2988<89.185 169.278> 136.646 110.113<434.637 533.321> 356.489 108.156<124.293 231.423> 377.56 55.1807<613.764 671> 441.196 67.4688<497.148 564.059>
LayerCount: 2
Fore
SplineSet
299 263 m 1xe0
 271.491210938 184.969726562 249.421875 121.497070312 230.486328125 67.431640625 c 1
 307.916992188 73.080078125 356.489257812 118.680664062 356.489257812 175 c 0
 356.489257812 207.486328125 340.8359375 234.060546875 299 263 c 1xe0
431.361328125 645.594726562 m 0
 427.142578125 631.526367188 421.376953125 612.69921875 416.794921875 598.26953125 c 1
 468.967773438 590.54296875 508.665039062 574.578125 508.665039062 530.0859375 c 0
 508.665039062 499.333984375 473.815429688 490.481445312 465.645507812 490.481445312 c 0
 454.717773438 490.481445312 441.196289062 503.5078125 441.196289062 516.647460938 c 0xd8
 441.196289062 525.34375 440.904296875 533.76171875 440.904296875 538.170898438 c 0
 440.904296875 549.079101562 430.155273438 564.013671875 407.833007812 568.508789062 c 1
 386.16015625 505.681640625 363.66796875 445.759765625 339 378.099609375 c 1
 412.774414062 333.984375 464.645507812 274.463867188 464.645507812 202.073242188 c 0xe0
 464.645507812 69.0380859375 322.0625 38.8798828125 216.494140625 37.4013671875 c 1
 203.431640625 0.646484375 193.815429688 -25.7060546875 193.487304688 -26.6083984375 c 0
 193.194335938 -27.4111328125 l 1
 192.698242188 -28.1240234375 l 0
 183.78515625 -40.9404296875 169.9453125 -47 157.645507812 -47 c 0
 148.581054688 -47 139.942382812 -44.5771484375 134.1796875 -37.3740234375 c 0
 131.694335938 -34.2685546875 l 1
 133.090820312 -30.544921875 l 0
 140.9609375 -9.5625 149.484375 22.9453125 156.491210938 44.673828125 c 1
 92.5654296875 58.8134765625 50.6455078125 98.9375 50.6455078125 128.973632812 c 0
 50.6455078125 149.5703125 66.3916015625 188.96484375 101.645507812 188.96484375 c 0
 117.672851562 188.96484375 136.12890625 173.350585938 136.12890625 161.760742188 c 0
 136.12890625 149.67578125 125.944335938 135.685546875 125.944335938 122.743164062 c 0
 125.944335938 104.208984375 136.810546875 86.7587890625 172.208007812 81.4892578125 c 1
 202.1875 162.217773438 227.3671875 229.075195312 253.05859375 301.7265625 c 1
 196.321289062 341.913085938 136.645507812 384.426757812 136.645507812 466.922851562 c 0
 136.645507812 563.612304688 249.572265625 610.55078125 356.704101562 612.844726562 c 1
 363.530273438 632.4375 371.645507812 653.534179688 377.559570312 671 c 0
 377.671875 671 l 1
 377.818359375 671 l 0
 382.868164062 673.549804688 397.482421875 675 408.645507812 675 c 0
 422.2890625 675 432.740234375 665.356445312 432.740234375 653.125 c 0xd0
 432.740234375 650.177734375 431.8984375 647.390625 431.361328125 645.594726562 c 0
293.192382812 412.6484375 m 1
 312.706054688 469.958007812 329.796875 519.549804688 348.709960938 576.67578125 c 1
 299.337890625 571.87890625 246.758789062 539.442382812 246.758789062 491 c 0
 246.758789062 457.400390625 269 427 293.192382812 412.6484375 c 1
EndSplineSet
Validated: 1
EndChar

StartChar: cent
Encoding: 162 162 143
Width: 525
VWidth: 0
Flags: W
HStem: 63.6807 55.9697<239.535 329.322> 468.95 120.035<391.258 438.668> 561.96 36.3164<257.705 308.062>
VStem: 39.4102 91.7334<175.561 389.995>
LayerCount: 2
Fore
SplineSet
403.819335938 177.96484375 m 1xd0
 417.325195312 144.196289062 l 1
 413.520507812 140.935546875 l 0
 347.994140625 84.76953125 295.25 64.7333984375 223.072265625 63.6806640625 c 1
 178.961914062 -82.2998046875 l 1
 113.907226562 -82.2998046875 l 1
 160.743164062 70.9814453125 l 1
 88.140625 91.84375 39.41015625 154.125 39.41015625 253.749023438 c 0
 39.41015625 464.059570312 171.228515625 591.619140625 318.649414062 598.276367188 c 1xb0
 349.15234375 700.299804688 l 1
 414.155273438 700.299804688 l 1
 380.975585938 588.985351562 l 1
 425.123046875 576.608398438 488.23828125 552.668945312 488.23828125 509.034179688 c 0
 488.23828125 480.61328125 455.413085938 468.950195312 433.115234375 468.950195312 c 0
 385.99609375 468.950195312 381.5625 516.223632812 365.791992188 539.440429688 c 1
 239.53515625 120.584960938 l 1
 244.953125 119.943359375 248.52734375 119.650390625 253.565429688 119.650390625 c 0
 291.62890625 119.650390625 340.75 134.750976562 396.608398438 173.024414062 c 0
 403.819335938 177.96484375 l 1xd0
308.061523438 561.959960938 m 1
 215.903320312 553.193359375 131.143554688 421.66796875 131.143554688 274.276367188 c 0
 131.143554688 216.552734375 147.14453125 167.88671875 181.372070312 141.671875 c 1
 308.061523438 561.959960938 l 1
EndSplineSet
Validated: 1
EndChar

StartChar: cedilla
Encoding: 184 184 145
Width: 292
VWidth: 0
Flags: W
HStem: -163.4 40.25<83.02 155.483>
VStem: 160.345 83.6375<-118.819 -60.7832>
LayerCount: 2
Fore
SplineSet
174.422937826 35.400390625 m 1
 253.874023438 35.400390625 l 1
 207.639648438 -25.88671875 l 1
 232.80859375 -32.232421875 243.982421875 -52.8974609375 243.982421875 -73.2744140625 c 0
 243.982421875 -138.048828125 182.46484375 -163.400390625 134.275390625 -163.400390625 c 4
 92.564453125 -163.400390625 63.683293471 -147.469258096 52.9138143506 -125.930299857 c 0
 50.8663876796 -121.835446515 l 1
 75.9151004729 -91.7779230338 l 1
 80.9583102502 -100.351192036 l 0
 89.9670127611 -115.665651159 107.577017779 -123.150390625 121.125 -123.150390625 c 0
 141.303818988 -123.150390625 160.344970845 -106.916369102 160.344970845 -86.2086455881 c 0
 160.344970845 -71.0731619344 149.924968774 -60.5 135.825195312 -60.5 c 0
 129.028375943 -60.5 118.644323975 -61.7299254114 112.235569308 -65.7356764974 c 0
 97 -63 l 1
 174.422937826 35.400390625 l 1
EndSplineSet
Validated: 1
EndChar

StartChar: braceleft
Encoding: 123 123 147
Width: 429
VWidth: 0
Flags: W
HStem: -124.175 29.75<156.456 188.653> 749.425 29.75<348.51 390.255>
VStem: 38.7217 107.377<-89.1089 53.1982> 119.682 105.322<170.203 294.863>
LayerCount: 2
Fore
SplineSet
384.515625 749.424804688 m 2xd0
 360.176757812 749.424804688 320.447265625 727.267578125 306.293945312 664.583007812 c 0
 291.728515625 600.080078125 277.080078125 474.321289062 266.390625 426.220703125 c 1
 253.772460938 372.141601562 230.427734375 340.694335938 199.553710938 327.151367188 c 1
 217.112304688 315.665039062 225.00390625 296.924804688 225.00390625 270.249023438 c 0xd0
 225.00390625 257.357421875 223.068359375 242.500976562 219.140625 225.669921875 c 1
 208.458984375 177.600585938 164.385742188 51.73046875 149.84375 -12.6669921875 c 0
 147.235351562 -24.216796875 146.098632812 -34.333984375 146.098632812 -43.0986328125 c 0
 146.098632812 -81.44921875 166.89453125 -94.4248046875 186.065429688 -94.4248046875 c 0
 194.604492188 -94.4248046875 l 1
 188.653320312 -124.174804688 l 1
 182.915039062 -124.174804688 l 0
 140.086914062 -124.174804688 38.7216796875 -118.4296875 38.7216796875 -40.13671875 c 0xe0
 38.7216796875 -30.5966796875 39.9736328125 -20.03515625 42.6396484375 -8.5234375 c 0
 63.8701171875 84.888671875 98.529296875 151.090820312 117.19140625 234.034179688 c 0
 118.9375 241.672851562 119.681640625 248.3671875 119.681640625 254.25 c 0
 119.681640625 300.870117188 69.5791015625 298.330078125 69.5791015625 326.27734375 c 0
 69.5791015625 327.393554688 69.673828125 328.318359375 69.9326171875 329.548828125 c 1
 76.7529296875 358.530273438 144.099609375 354.471679688 160.241210938 424.083984375 c 1
 178.922851562 507.11328125 177.890625 573.352539062 199.095703125 666.654296875 c 0
 223.373046875 771.48828125 340.840820312 779.174804688 387.665039062 779.174804688 c 0
 396.203125 779.174804688 l 1
 390.254882812 749.424804688 l 1
 384.515625 749.424804688 l 2xd0
EndSplineSet
Validated: 1
EndChar

StartChar: braceright
Encoding: 125 125 148
Width: 412
VWidth: 0
Flags: W
HStem: -124.175 29.75<39.3105 81.0551> 749.425 29.75<240.912 273.109>
VStem: 204.562 105.356<360.952 484.797> 283.467 107.377<601.842 743.422>
LayerCount: 2
Fore
SplineSet
234.9609375 749.424804688 m 1xd0
 240.912109375 779.174804688 l 1
 246.650390625 779.174804688 l 0
 289.478515625 779.174804688 390.84375 773.4296875 390.84375 695.13671875 c 0xd0
 390.84375 685.596679688 389.591796875 675.03515625 386.92578125 663.5234375 c 0
 365.6953125 570.111328125 331.036132812 503.908203125 312.374023438 420.966796875 c 1
 310.645507812 413.510742188 309.91796875 407.030273438 309.91796875 401.254882812 c 0
 309.91796875 354.627929688 361.033203125 356.25 361.033203125 329.572265625 c 0
 361.033203125 328.560546875 360.881835938 327.350585938 360.682617188 326.502929688 c 1
 354.228515625 295.840820312 285.373046875 301.130859375 269.329101562 230.938476562 c 0
 250.635742188 147.856445312 251.678710938 81.662109375 230.469726562 -11.654296875 c 0
 206.192382812 -116.48828125 88.724609375 -124.174804688 41.900390625 -124.174804688 c 0
 33.3623046875 -124.174804688 l 1
 39.310546875 -94.4248046875 l 1
 45.0498046875 -94.4248046875 l 0
 69.388671875 -94.4248046875 109.118164062 -72.267578125 123.271484375 -9.5830078125 c 0
 137.836914062 54.919921875 152.485351562 180.678710938 163.174804688 228.779296875 c 1
 175.798828125 282.879882812 199.225585938 315.112304688 229.9921875 328.813476562 c 1
 212.568359375 339.985351562 204.561523438 358.466796875 204.561523438 384.9296875 c 0xe0
 204.561523438 397.720703125 206.498046875 412.50390625 210.424804688 429.330078125 c 1
 221.106445312 477.399414062 265.1796875 603.26953125 279.721679688 667.666992188 c 0
 282.330078125 679.216796875 283.466796875 689.333984375 283.466796875 698.098632812 c 0
 283.466796875 736.44921875 262.670898438 749.424804688 243.5 749.424804688 c 0
 234.9609375 749.424804688 l 1xd0
EndSplineSet
Validated: 1
EndChar

StartChar: ampersand
Encoding: 38 38 149
Width: 1023
VWidth: 0
Flags: W
HStem: -17.4961 96.0225<332.113 554.543> 323.402 74.8779<783.838 880.006> 351.909 124.576<573.668 669.048> 461.088 57.6025<246.703 339.209>
VStem: 113.594 91.3584<229.267 375.592> 450.812 83.4219<535.479 699.893> 717.502 66.3682<239.654 344.788>
LayerCount: 2
Fore
SplineSet
204.952148438 302.627929688 m 0xde
 204.952148438 282.150390625 213.048828125 238.349609375 219.34375 227.13671875 c 1
 254.776367188 251.033203125 450.811523438 447.439727619 450.811523438 615.608398438 c 0
 450.811523438 666.235736482 465.586747274 710.734375 494.919921875 710.734375 c 0
 521.684885393 710.734375 534.233398438 674.08984375 534.233398438 653.694335938 c 0
 534.233398438 420.688476562 256.067382812 198.828125 251.9453125 173.299804688 c 1
 252.314453125 153.803710938 313.6484375 78.5263671875 440.098632812 78.5263671875 c 0
 589.615234375 78.5263671875 717.501953125 177.98046875 717.501953125 346.213867188 c 0
 717.501953125 376.291992188 702.667760146 399.107457569 645.958884407 425.921375315 c 1
 643.476808132 415.575646242 639.4831643 398.746600309 629.010793916 383.816822638 c 0
 617.981913702 368.095482687 593.023526072 351.909179688 573.66796875 351.909179688 c 0
 566.813587234 351.909179688 555.205078125 354.83652033 555.205078125 367.392578125 c 0
 555.205078125 414.433428144 627.409613489 476.485351562 669.047851562 476.485351562 c 0xae
 743.098091194 476.485351562 769.785801062 398.280273438 853.887695312 398.280273438 c 0
 869.598591796 398.280273438 883.902061548 404.802015807 898.271139727 411.665121992 c 0
 904.182887905 414.488751663 l 1
 915.774813462 393.850772255 l 1
 911.845442973 390.097976056 l 0
 902.433184467 381.108676614 876.8197403 323.40234375 844.833984375 323.40234375 c 0
 814.864795433 323.40234375 795.516601562 340.291992188 783.870117188 344.788085938 c 1
 781.555664062 183.225585938 677.624864777 -17.49609375 449.811523438 -17.49609375 c 4
 215.067375648 -17.49609375 113.59375 115.713867188 113.59375 265.622070312 c 4
 113.59375 390.41796875 194.497759532 518.690429688 325.182617188 518.690429688 c 4
 353.236290344 518.690429688 387.900390625 496.950597291 387.900390625 467.079101562 c 0
 387.900390625 443.140262733 372.669676826 415.047851562 340.662109375 415.047851562 c 0
 320.864899575 415.047851562 313.042669211 430.459463269 307.164861646 444.491660181 c 0
 301.898728593 457.073458015 297.897628868 461.087890625 286.11328125 461.087890625 c 0
 235.269463428 461.087890625 204.952148438 372.461914062 204.952148438 302.627929688 c 0xde
EndSplineSet
Validated: 1
EndChar

StartChar: ae
Encoding: 230 230 150
Width: 951
VWidth: 0
Flags: W
HStem: -11.0029 42.25<184.573 310.784 593.787 719.81> 467.247 44.6504<280.711 394.546 646.402 759.096>
VStem: 27 141.219<47.422 153.544> 768.392 144.219<365.227 457.483>
LayerCount: 2
Fore
SplineSet
134.3046875 425.331054688 m 0
 213.05859375 509.393554688 273.596679688 511.897460938 339.250976562 511.897460938 c 0
 414.5390625 511.897460938 479.733398438 474.581054688 511.518554688 425.928710938 c 1
 563.044921875 477.346679688 623.551757812 512.450195312 741.887695312 512.450195312 c 0
 832.15234375 512.450195312 912.610351562 486.767578125 912.610351562 417.643554688 c 0
 912.610351562 240.065429688 631.461914062 240.323242188 548.6953125 221.775390625 c 1
 544.477539062 199.130859375 540.341796875 176.196289062 540.341796875 156.791015625 c 0
 540.341796875 74.74609375 592.215820312 38.2001953125 649.67578125 38.2001953125 c 0
 700.178710938 38.2001953125 766.852539062 67.1162109375 823.924804688 105.958007812 c 1
 836.520507812 73.1748046875 l 1
 772.858398438 18.03515625 710.840820312 -10.4501953125 624.029296875 -10.4501953125 c 3
 542.869140625 -10.4501953125 452.03515625 25.583984375 429.576171875 73.525390625 c 1
 366.298828125 16.88671875 286.501953125 -11.0029296875 212.697265625 -11.0029296875 c 0
 128.522460938 -11.0029296875 27 7.4541015625 27 80.8037109375 c 0
 27 261.540039062 336.497070312 258.188476562 419.11328125 276.657226562 c 1
 422.377929688 298.140625 423.393554688 321.323242188 423.393554688 341.65625 c 0
 423.393554688 422.787109375 400.537109375 467.247070312 337.685546875 467.247070312 c 0
 244.78125 467.247070312 270.15625 365.36328125 172.491210938 365.36328125 c 0
 155.5234375 365.36328125 125.096679688 386.549804688 125.096679688 404.640625 c 0
 125.096679688 411.228515625 127.954101562 418.411132812 134.3046875 425.331054688 c 0
709.973632812 470.200195312 m 0
 655.75 470.200195312 580.147460938 413.302734375 551.546875 274.61328125 c 1
 652.395507812 297.112304688 768.391601562 337.73046875 768.391601562 418.133789062 c 0
 768.391601562 450.702148438 736.987304688 470.200195312 709.973632812 470.200195312 c 0
393.159179688 139.446289062 m 1
 394.51953125 150.203125 401.846679688 200.890625 407.25390625 235.870117188 c 1
 304.0546875 216.3046875 168.21875 194.727539062 168.21875 97.3134765625 c 0
 168.21875 54.46484375 196.104492188 31.2470703125 242.63671875 31.2470703125 c 0
 294.223632812 31.2470703125 340.103515625 61.349609375 393.159179688 139.446289062 c 1
EndSplineSet
Validated: 1
EndChar

StartChar: germandbls
Encoding: 223 223 151
Width: 557
VWidth: 0
Flags: W
HStem: -190.4 62.2998<-222.376 -92.2974> -9 50<220.584 342.193> 692 43<277.406 371.035>
VStem: 137.829 81.9834<47.4555 125.909> 213.258 127.47<371.977 456.445> 382.637 151.996<95.1457 213.545> 385.647 133.547<573.713 678.798>
LayerCount: 2
Fore
SplineSet
-115.90234375 -120.439453125 m 0xea
 -60.060546875 -93.943359375 -45.6318359375 -58.2890625 -28.1416015625 8.1025390625 c 1
 17.6005859375 226.653320312 l 1
 81.5263671875 504.533203125 l 1
 109.397460938 621.7109375 194.26171875 735 342.642578125 735 c 0
 426.119140625 735 519.194335938 711.041992188 519.194335938 640.889648438 c 0
 519.194335938 505.07421875 340.727539062 515.54296875 340.727539062 441.110351562 c 0xea
 340.727539062 407.404296875 382.72265625 380.607421875 433.059570312 328.7265625 c 1
 474.362304688 286.719726562 534.6328125 234.375976562 534.6328125 180.043945312 c 0
 534.6328125 50.4482421875 421.704101562 -9 263.40234375 -9 c 0
 193.422851562 -9 168.077148438 24.4462890625 156.88671875 38.552734375 c 0
 150.97265625 46.0107421875 137.829101562 65.2236328125 137.829101562 88.1279296875 c 0
 137.829101562 106.94921875 148.463867188 137 175.978515625 137 c 0
 208.859375 137 218.034179688 82.2646484375 219.8125 58.1142578125 c 1
 223.693359375 53.9228515625 243.377929688 41 288.323242188 41 c 0
 333.725585938 41 382.63671875 84.5419921875 382.63671875 153.465820312 c 0xf4
 382.63671875 201.987304688 340.420898438 241.505859375 301.203125 276.055664062 c 1
 260.750976562 312.49609375 213.2578125 347.826171875 213.2578125 396.126953125 c 0
 213.2578125 459.296875 273.47265625 492.0390625 309.71484375 521.326171875 c 0
 347.232421875 552.692382812 385.647460938 584.38671875 385.647460938 626.647460938 c 0
 385.647460938 661.116210938 365.130859375 692 329.55078125 692 c 0
 258.4609375 692 232.904296875 610.630859375 207.755859375 505.693359375 c 0
 99.603515625 44.97265625 l 1
 97.4287109375 31.82421875 92.43359375 20.4150390625 89.001953125 6.505859375 c 0
 75.7646484375 -47.1455078125 63.9384765625 -91.455078125 23.5849609375 -124.2578125 c 1
 -9.7314453125 -152.272460938 -107.923828125 -190.400390625 -211.900390625 -190.400390625 c 0
 -232.8515625 -190.400390625 -253.724609375 -185.985351562 -274.486328125 -177.243164062 c 1
 -282.248046875 -173.91796875 -285.547851562 -167.243164062 -285.547851562 -161.025390625 c 0
 -285.547851562 -126.7890625 -239.885742188 -97.900390625 -215.05078125 -97.900390625 c 0
 -182.154296875 -97.900390625 -166.14453125 -128.100585938 -142.978515625 -128.100585938 c 0
 -136.051757812 -128.100585938 -126.065429688 -125.369140625 -115.90234375 -120.439453125 c 0xea
EndSplineSet
Validated: 1
EndChar

StartChar: uniFB02
Encoding: 64258 64258 152
Width: 638
VWidth: 0
Flags: W
HStem: -179.2 38.1504<-112.61 -35.58> -9.65039 63.3506<416.206 521.743> 441.158 60.832<105.638 129.223 287.468 344.537> 740.775 28.0498<373.348 441.929> 753.851 20G<642.359 647.506>
VStem: 354.194 137.586<30.6758 153.654>
LayerCount: 2
Fore
SplineSet
-225.166015625 -97.716796875 m 0xf4
 -225.166015625 -95.919921875 -225.021484375 -94.326171875 -224.390625 -92.4326171875 c 0
 -219.24609375 -71.859375 -184.14453125 -51.8212890625 -167.024414062 -51.8212890625 c 0
 -99.095703125 -51.8212890625 -144.37890625 -141.049804688 -77.9599609375 -141.049804688 c 0
 -29.02734375 -141.049804688 11.791015625 -78.9267578125 33.498046875 24.2685546875 c 0
 129.22265625 441.310546875 l 1
 111.598632812 440.08984375 99.333984375 439.198242188 83.677734375 435.415039062 c 1
 105.637695312 498.103515625 l 1
 143.928710938 498.103515625 l 1
 147.709960938 512.788085938 156.490234375 547.015625 159.186523438 557.333007812 c 1
 212 753 336.249023438 768.825195312 422.629882812 768.825195312 c 0xf4
 446.215820312 768.825195312 487.737304688 763.081054688 513.161132812 747.958007812 c 1
 636.8515625 772.62890625 l 0
 638.994140625 773.180664062 640.967773438 773.850585938 643.75 773.850585938 c 0xec
 651.262695312 773.850585938 653.956054688 766.420898438 653.956054688 762.08984375 c 0
 653.956054688 758.025390625 653.026367188 753.43359375 651.623046875 747.435546875 c 0
 505.69921875 134.868164062 l 1
 500.37109375 112.009765625 491.780273438 80.9287109375 491.780273438 70.5107421875 c 0
 491.780273438 62.7470703125 494.611328125 53.7001953125 502.948242188 53.7001953125 c 0
 520.19140625 53.7001953125 539.6640625 62.0537109375 561.484375 78.4208984375 c 1
 577.07421875 58.9345703125 l 1
 557.38671875 20.3955078125 486.193359375 -9.650390625 441.498046875 -9.650390625 c 0
 390.913085938 -9.650390625 354.194335938 13.068359375 354.194335938 48.283203125 c 0
 354.194335938 73.9853515625 363.208007812 106.2421875 372.782226562 145.810546875 c 1
 488 625 l 1
 481.123046875 655.799804688 460.606445312 740.775390625 408.951171875 740.775390625 c 0
 351.223632812 740.775390625 327.407226562 666.107421875 298.7265625 547.616210938 c 0
 287.467773438 501.990234375 l 1
 334.19921875 501.990234375 l 0
 350.604492188 501.990234375 364.418945312 497.936523438 364.418945312 484.899414062 c 0
 364.418945312 477.9140625 353.500976562 450.142578125 350 445 c 0
 344.537109375 437.063476562 l 1
 335.15625 437.063476562 321.631835938 440.787109375 274.791015625 441.158203125 c 1
 172.885742188 16.6806640625 l 0
 140.819335938 -123.776367188 44.2109375 -179.200195312 -74.4501953125 -179.200195312 c 0
 -112.66015625 -179.200195312 -191.087890625 -165.795898438 -221.361328125 -110.296875 c 1
 -221.361328125 -110.296875 -225.166015625 -100.3828125 -225.166015625 -97.716796875 c 0xf4
EndSplineSet
Validated: 1
LCarets2: 1 0
Ligature2: "'liga' fl" f l
EndChar

StartChar: uniFB00
Encoding: 64256 64256 153
Width: 705
VWidth: 0
Flags: W
HStem: -179 38<137.191 222.999> -141 44<-136.518 -51.1095> -28 20G<-196.5 -157.5> 441 61<65 94 544 636> 453 48<246 392> 732 37<359.311 443.512 638.642 711.644>
LayerCount: 2
Fore
SplineSet
13 63 m 0x64
 94 441 l 1
 77 440 65 437 48 435 c 1
 65 498 l 1
 105 498 l 1
 108 513 115 544 118 554 c 1
 154 695 245 769 423 769 c 0
 455 769 495 761 517 734 c 1
 547 759 638 769 695 769 c 0
 764 769 804 750 828 698 c 1
 831 693 831 692 831 689 c 0
 831 686 831 685 830 681 c 0
 826 661 794 639 779 639 c 0
 718 639 729 733 687 733 c 0
 631 733 583 663 555 545 c 0
 544 502 l 1
 627 502 l 0
 645.645336063 502 654.030211245 494.757321731 654.030211245 484.492033016 c 0
 654.030211245 481.543994369 653.338665984 478.34666496 652 475 c 0
 649 469 644 452 641 447 c 1
 636 437 l 1
 631 437 l 0
 626 437 588 440 545 441 c 1
 543 441 538 441 534 441 c 1
 433 17 l 0
 400 -129 297 -179 188 -179 c 0xb4
 113 -179 47 -146 25 -110 c 1
 -6 -128 -56 -141 -100 -141 c 0
 -139 -141 -211 -122 -244 -67 c 1
 -244 -67 -249 -57 -249 -55 c 0
 -249 -29 -207 -8 -186 -8 c 0
 -129 -8 -157 -97 -108 -97 c 0
 -47 -97 -9 -40 13 63 c 0x64
151 59 m 1
 140 10 121 -31 98 -60 c 1
 113 -112 151 -141 184 -141 c 0
 310 -141 355 330 392 453 c 1
 323 453 267 453 239 453 c 1xac
 151 59 l 1
246 501 m 1
 254 501 305 500 338 500 c 0
 363 500 393 501 403 501 c 1
 407 518 413 540 417 554 c 1
 431 603 443 633 462 664 c 1
 449 696 448 732 412 732 c 0
 353 732 285 663 257 545 c 0
 246 501 l 1
EndSplineSet
Validated: 1
LCarets2: 1 0
Ligature2: "'liga' ff" f f
EndChar

StartChar: uniFB01
Encoding: 64257 64257 154
Width: 611
VWidth: 0
Flags: W
HStem: -179.2 37.8223<-108.271 -31.8403> -10.2246 64.3496<409.544 515.947> 441.311 55.793<106.317 132.023> 453.277 46.8223<288.63 445.162> 494.642 20G<567.044 579.983> 740.775 28.0498<378.836 475.549>
VStem: 348.008 140.139<30.9409 156.02>
LayerCount: 2
Fore
SplineSet
36.97265625 24.2685546875 m 0xd6
 132.0234375 441.310546875 l 1
 97.2587890625 440.08984375 103.997070312 438.19921875 86.271484375 435.415039062 c 1
 106.317382812 497.103515625 l 1
 145.76953125 497.103515625 l 1xe6
 149.564453125 511.788085938 155.377929688 537.015625 158.083984375 547.333007812 c 1
 205.220703125 708.221679688 280.578125 768.825195312 445.405273438 768.825195312 c 0
 505.692382812 768.825195312 588.831054688 735.876953125 588.831054688 667.4453125 c 0
 588.831054688 638.284179688 569.115234375 603.100585938 523.73046875 603.100585938 c 0
 436.059570312 603.100585938 484.323242188 740.775390625 414.638671875 740.775390625 c 0
 352.829101562 740.775390625 327.396484375 654.778320312 298.930664062 537.616210938 c 0
 288.629882812 500.099609375 l 1xd6
 353.044921875 500.099609375 399.291992188 500.349609375 464.115234375 500.349609375 c 1
 492.428710938 500.729492188 555.891601562 514.641601562 578.197265625 514.641601562 c 0xce
 581.76953125 514.641601562 593.032226562 511.361328125 593.032226562 501.112304688 c 0
 593.032226562 478.655273438 571.508789062 413.362304688 562.538085938 376.672851562 c 0
 500.442382812 133.36328125 l 0
 494.266601562 108.595703125 488.146484375 81.1455078125 488.146484375 67.5302734375 c 0
 488.146484375 59.38671875 492.580078125 54.125 501.702148438 54.125 c 0
 518.145507812 54.125 535.953125 61.5146484375 557.724609375 77.845703125 c 1
 573.3125 58.359375 l 1
 551.618164062 19.79296875 480.1875 -10.224609375 432.392578125 -10.224609375 c 0
 386.6953125 -10.224609375 348.0078125 12.9775390625 348.0078125 48.904296875 c 0
 348.0078125 75.2080078125 357.4609375 108.038085938 367.713867188 148.595703125 c 0
 427.536132812 381.266601562 l 0
 430.44140625 392.604492188 438.958984375 424.119140625 445.162109375 450.325195312 c 1
 380.309570312 451.517578125 312.840820312 453.061523438 280.920898438 453.27734375 c 1
 177.655273438 20.505859375 l 0
 145.465820312 -122.713867188 53.634765625 -179.200195312 -71.4501953125 -179.200195312 c 0
 -109.66015625 -179.200195312 -185.807617188 -167.71875 -217.155273438 -110.25 c 1
 -217.155273438 -110.25 -221.094726562 -99.9833984375 -221.094726562 -97.2236328125 c 0
 -221.094726562 -73.708984375 -179.294921875 -52.0537109375 -163.137695312 -52.0537109375 c 0
 -94.7978515625 -52.0537109375 -142.099609375 -141.377929688 -71.173828125 -141.377929688 c 0
 -36.5302734375 -141.377929688 12 -96 36.97265625 24.2685546875 c 0xd6
EndSplineSet
Validated: 1
LCarets2: 1 0
Ligature2: "'liga' fi" f i
EndChar

